<svg width="35" height="48" viewBox="0 0 35 48" fill="none" xmlns="http://www.w3.org/2000/svg">
<path d="M17.8537 0.350342C18.3194 0.350342 18.6975 0.726763 18.6975 1.19245V44.928L33.5783 32.6148C33.9361 32.3183 34.4694 32.3663 34.7664 32.7259C35.0635 33.0838 35.0137 33.6152 34.6551 33.9116C34.6551 33.9116 18.381 47.4897 18.2097 47.5697C18.0798 47.6303 17.9389 47.6564 17.8013 47.6472C17.587 47.664 17.376 47.5941 17.2048 47.4501L1.20836 33.9764C0.852264 33.6767 0.806697 33.1461 1.10626 32.7908C1.40581 32.4346 1.93658 32.3882 2.29436 32.6872L17.0098 45.0013V1.19245C17.0098 0.727605 17.387 0.350342 17.8537 0.350342Z" fill="#000000"/>
</svg>
