<svg width="395" height="379" viewBox="0 0 395 379" fill="none" xmlns="http://www.w3.org/2000/svg">
<g clip-path="url(#clip0)">
<path d="M288.921 378.784C285.844 378.764 283.086 376.876 281.957 374.018C280.479 370.181 282.377 365.865 286.214 364.366C290.05 362.878 294.377 364.776 295.865 368.623C297.354 372.459 295.456 376.786 291.609 378.274C290.76 378.614 289.841 378.784 288.921 378.784ZM283.946 373.259C284.455 374.578 285.464 375.637 286.763 376.206C289.461 377.395 292.618 376.176 293.807 373.478C294.996 370.781 293.777 367.624 291.079 366.435C288.382 365.246 285.225 366.465 284.036 369.162C283.466 370.461 283.436 371.94 283.946 373.259Z" fill="#000000"/>
<path d="M108.147 378.784C107.108 378.784 106.089 378.564 105.149 378.135C103.331 377.345 101.912 375.857 101.213 374.008C99.7841 370.201 101.722 365.955 105.529 364.526C109.336 363.098 113.582 365.036 115.011 368.843C116.41 372.589 114.571 376.766 110.865 378.254C109.995 378.614 109.076 378.784 108.147 378.784ZM108.147 365.985C107.517 365.995 106.898 366.115 106.308 366.335C103.561 367.414 102.202 370.511 103.271 373.259C104.35 375.996 107.428 377.355 110.175 376.296C111.494 375.777 112.563 374.757 113.143 373.459C113.692 372.16 113.692 370.691 113.143 369.392C112.633 368.063 111.624 366.994 110.325 366.425C109.636 366.135 108.896 365.985 108.147 365.985Z" fill="#000000"/>
<path d="M198.389 353.246C195.312 353.226 192.564 351.338 191.445 348.48C189.947 344.643 191.855 340.317 195.692 338.828C199.528 337.33 203.855 339.238 205.343 343.075C206.832 346.911 204.934 351.238 201.097 352.726C201.087 352.726 201.077 352.736 201.077 352.736C200.228 353.066 199.308 353.246 198.389 353.246ZM193.414 347.721C194.493 350.468 197.59 351.817 200.338 350.748C201.646 350.238 202.696 349.229 203.265 347.94C204.454 345.243 203.235 342.086 200.537 340.887C197.84 339.698 194.682 340.927 193.493 343.624C192.934 344.923 192.904 346.392 193.414 347.721Z" fill="#000000"/>
<path d="M199.478 224.257H197.36V339.378H199.478V224.257Z" fill="#000000"/>
<path d="M286.623 365.086C286.254 365.086 285.924 364.896 285.724 364.586L198.399 226.245L111.104 364.676C110.785 365.166 110.115 365.306 109.626 364.976C109.286 364.756 109.106 364.356 109.156 363.957L129.139 224.197C129.209 223.678 129.658 223.288 130.188 223.298H264.932C265.452 223.288 265.891 223.668 265.961 224.177L287.672 363.937C287.752 364.436 287.463 364.916 286.993 365.096C286.863 365.116 286.743 365.106 286.623 365.086ZM131.097 225.326L111.944 359.261L196.551 225.326H131.097ZM200.338 225.326L284.795 359.151L264.003 225.346L200.338 225.326Z" fill="#000000"/>
<path d="M130.994 223.633L129.172 224.713L197.426 339.799L199.248 338.718L130.994 223.633Z" fill="#000000"/>
<path d="M263.938 223.698L197.465 338.829L199.3 339.888L265.772 224.757L263.938 223.698Z" fill="#000000"/>
<path d="M393.163 0.0147939L263.994 223.735L265.828 224.794L394.997 1.07388L393.163 0.0147939Z" fill="#000000"/>
<path d="M1.84218 0.0396705L0.00804901 1.0994L129.254 224.794L131.088 223.734L1.84218 0.0396705Z" fill="#000000"/>
<path d="M199.828 -459.604H197.83V223.807H199.828V-459.604Z" fill="#000000"/>
<path d="M198.409 228.274C200.627 228.274 202.426 226.475 202.426 224.257C202.426 222.039 200.627 220.24 198.409 220.24C196.191 220.24 194.393 222.039 194.393 224.257C194.393 226.475 196.191 228.274 198.409 228.274Z" fill="#000000"/>
<path d="M295.316 174.24C297.534 174.24 299.332 172.442 299.332 170.224C299.332 168.005 297.534 166.207 295.316 166.207C293.098 166.207 291.299 168.005 291.299 170.224C291.299 172.442 293.098 174.24 295.316 174.24Z" fill="#000000"/>
<path d="M198.449 174.24C200.667 174.24 202.466 172.442 202.466 170.224C202.466 168.005 200.667 166.207 198.449 166.207C196.231 166.207 194.433 168.005 194.433 170.224C194.433 172.442 196.231 174.24 198.449 174.24Z" fill="#000000"/>
<path d="M223.418 299.872C225.636 299.872 227.434 298.074 227.434 295.855C227.434 293.637 225.636 291.839 223.418 291.839C221.199 291.839 219.401 293.637 219.401 295.855C219.401 298.074 221.199 299.872 223.418 299.872Z" fill="#000000"/>
<path d="M198.449 228.274C200.667 228.274 202.466 226.475 202.466 224.257C202.466 222.039 200.667 220.24 198.449 220.24C196.231 220.24 194.433 222.039 194.433 224.257C194.433 226.475 196.231 228.274 198.449 228.274Z" fill="#000000"/>
<path d="M98.5252 174.24C100.743 174.24 102.542 172.442 102.542 170.224C102.542 168.005 100.743 166.207 98.5252 166.207C96.3069 166.207 94.5087 168.005 94.5087 170.224C94.5087 172.442 96.3069 174.24 98.5252 174.24Z" fill="#000000"/>
<path d="M198.409 128.869C200.627 128.869 202.426 127.071 202.426 124.853C202.426 122.634 200.627 120.836 198.409 120.836C196.191 120.836 194.393 122.634 194.393 124.853C194.393 127.071 196.191 128.869 198.409 128.869Z" fill="#000000"/>
<path d="M173.421 299.872C175.639 299.872 177.437 298.074 177.437 295.855C177.437 293.637 175.639 291.839 173.421 291.839C171.202 291.839 169.404 293.637 169.404 295.855C169.404 298.074 171.202 299.872 173.421 299.872Z" fill="#000000"/>
</g>
<defs>
<clipPath id="clip0">
<rect width="395" height="378.784" fill="white"/>
</clipPath>
</defs>
</svg>
