<svg width="304" height="304" viewBox="0 0 304 304" fill="none" xmlns="http://www.w3.org/2000/svg">
<rect y="-100" width="320" height="451" fill="#09394E"/>
<path d="M85.75 148C84.232 148 83 149.232 83 150.75V161.75C83 163.271 84.232 164.5 85.75 164.5C87.268 164.5 88.5 163.271 88.5 161.75V150.75C88.5 149.232 87.268 148 85.75 148Z" fill="#DAB679"/>
<path d="M96.75 137C95.232 137 94 138.232 94 139.75V172.75C94 174.271 95.232 175.5 96.75 175.5C98.268 175.5 99.5 174.271 99.5 172.75V139.75C99.5 138.232 98.268 137 96.75 137Z" fill="#DAB679"/>
<path d="M107.75 142.5C106.232 142.5 105 143.732 105 145.25V167.25C105 168.771 106.232 170 107.75 170C109.268 170 110.5 168.771 110.5 167.25V145.25C110.5 143.732 109.268 142.5 107.75 142.5Z" fill="#DAB679"/>
<path d="M118.75 120.5C117.232 120.5 116 121.732 116 123.25V189.25C116 190.771 117.232 192 118.75 192C120.268 192 121.5 190.771 121.5 189.25V123.25C121.5 121.732 120.268 120.5 118.75 120.5Z" fill="#DAB679"/>
<path d="M129.75 142.5C128.232 142.5 127 143.732 127 145.25V167.25C127 168.771 128.232 170 129.75 170C131.268 170 132.5 168.771 132.5 167.25V145.25C132.5 143.732 131.268 142.5 129.75 142.5Z" fill="#DAB679"/>
<path d="M140.75 93C139.232 93 138 94.232 138 95.75V216.75C138 218.271 139.232 219.5 140.75 219.5C142.268 219.5 143.5 218.271 143.5 216.75V95.75C143.5 94.232 142.268 93 140.75 93Z" fill="#DAB679"/>
<path d="M151.75 115C150.232 115 149 116.232 149 117.75V194.75C149 196.271 150.232 197.5 151.75 197.5C153.268 197.5 154.5 196.271 154.5 194.75V117.75C154.5 116.232 153.268 115 151.75 115Z" fill="#DAB679"/>
<path d="M162.75 126C161.229 126 160 127.232 160 128.75V183.75C160 185.271 161.229 186.5 162.75 186.5C164.271 186.5 165.5 185.271 165.5 183.75V128.75C165.5 127.232 164.271 126 162.75 126Z" fill="#DAB679"/>
<path d="M173.75 142.5C172.229 142.5 171 143.732 171 145.25V167.25C171 168.771 172.229 170 173.75 170C175.271 170 176.5 168.771 176.5 167.25V145.25C176.5 143.732 175.271 142.5 173.75 142.5Z" fill="#DAB679"/>
<path d="M184.75 148C183.229 148 182 149.232 182 150.75V161.75C182 163.271 183.229 164.5 184.75 164.5C186.271 164.5 187.5 163.271 187.5 161.75V150.75C187.5 149.232 186.271 148 184.75 148Z" fill="#DAB679"/>
<path d="M195.75 126C194.229 126 193 127.232 193 128.75V178.25C193 179.771 194.229 181 195.75 181C197.271 181 198.5 179.771 198.5 178.25V128.75C198.5 127.232 197.271 126 195.75 126Z" fill="#DAB679"/>
<path d="M206.75 142.5C205.229 142.5 204 143.732 204 145.25V167.25C204 168.771 205.229 170 206.75 170C208.271 170 209.5 168.771 209.5 167.25V145.25C209.5 143.732 208.271 142.5 206.75 142.5Z" fill="#DAB679"/>
<path d="M217.75 148C216.229 148 215 149.232 215 150.75V161.75C215 163.271 216.229 164.5 217.75 164.5C219.271 164.5 220.5 163.271 220.5 161.75V150.75C220.5 149.232 219.271 148 217.75 148Z" fill="#DAB679"/>
</svg>
