<svg width="18" height="11" viewBox="0 0 18 11" fill="none" xmlns="http://www.w3.org/2000/svg">
<path d="M0.293737 9.70815C0.386612 9.80126 0.496946 9.87514 0.618416 9.92554C0.739885 9.97595 0.870106 10.0019 1.00162 10.0019C1.13313 10.0019 1.26335 9.97595 1.38482 9.92554C1.50629 9.87514 1.61662 9.80126 1.7095 9.70815L9.00026 2.41539L16.291 9.70815C16.4788 9.8959 16.7334 10.0014 16.9989 10.0014C17.2644 10.0014 17.519 9.8959 17.7068 9.70815C17.8945 9.52041 18 9.26578 18 9.00027C18 8.73477 17.8945 8.48014 17.7068 8.29239L9.70814 0.293749C9.61527 0.200638 9.50493 0.126765 9.38346 0.0763609C9.262 0.0259573 9.13178 1.16225e-05 9.00026 1.1611e-05C8.86875 1.15995e-05 8.73853 0.0259573 8.61706 0.0763608C8.49559 0.126765 8.38526 0.200638 8.29238 0.293749L0.293738 8.29239C0.200627 8.38527 0.126755 8.4956 0.0763494 8.61707C0.0259458 8.73854 9.90614e-08 8.86876 8.75642e-08 9.00027C7.6067e-08 9.13179 0.0259457 9.26201 0.0763493 9.38348C0.126755 9.50495 0.200626 9.61528 0.293737 9.70815Z" fill="#DAB679"/>
</svg>