<svg width="30" height="30" viewBox="0 0 30 30" fill="none" xmlns="http://www.w3.org/2000/svg">
<circle cx="15" cy="15" r="14" stroke="#EB5757" stroke-width="2"/>
<path d="M14.8341 19C14.6807 19.0009 14.5286 18.9715 14.3865 18.9134C14.2445 18.8554 14.1153 18.7699 14.0063 18.6619L9.34287 13.9984C9.12333 13.7789 9 13.4811 9 13.1706C9 12.8602 9.12333 12.5624 9.34287 12.3429C9.56241 12.1233 9.86017 12 10.1706 12C10.4811 12 10.7789 12.1233 10.9984 12.3429L14.8341 16.1902L18.6698 12.3545C18.8929 12.1635 19.1797 12.0637 19.4732 12.0751C19.7666 12.0864 20.0449 12.208 20.2526 12.4157C20.4602 12.6233 20.5818 12.9016 20.5932 13.1951C20.6045 13.4885 20.5047 13.7754 20.3137 13.9984L15.6502 18.6619C15.4331 18.8773 15.14 18.9987 14.8341 19Z" fill="#EB5757"/>
</svg>
