<svg width="18" height="11" viewBox="0 0 18 11" fill="none" xmlns="http://www.w3.org/2000/svg">
<path d="M17.7063 0.293737C17.6134 0.200627 17.5031 0.126753 17.3816 0.0763487C17.2601 0.0259444 17.1299 0 16.9984 0C16.8669 0 16.7367 0.0259444 16.6152 0.0763487C16.4937 0.126753 16.3834 0.200627 16.2905 0.293737L8.99974 7.5865L1.70897 0.293737C1.52123 0.105996 1.2666 0.000523473 1.00109 0.000523479C0.735587 0.000523484 0.480955 0.105996 0.293213 0.293737C0.105472 0.481479 5.23377e-09 0.736111 0 1.00162C-5.23377e-09 1.26712 0.105472 1.52176 0.293213 1.7095L8.29186 9.70814C8.38473 9.80125 8.49507 9.87513 8.61654 9.92553C8.73801 9.97593 8.86823 10.0019 8.99974 10.0019C9.13125 10.0019 9.26147 9.97593 9.38294 9.92553C9.50441 9.87513 9.61474 9.80125 9.70762 9.70814L17.7063 1.7095C17.7994 1.61662 17.8732 1.50629 17.9237 1.38482C17.9741 1.26335 18 1.13313 18 1.00162C18 0.870105 17.9741 0.739885 17.9237 0.618415C17.8732 0.496945 17.7994 0.386613 17.7063 0.293737V0.293737Z" fill="#DAB679"/>
</svg>