<svg width="52" height="52" viewBox="0 0 52 52" fill="none" xmlns="http://www.w3.org/2000/svg">
<circle cx="26" cy="26" r="26" fill="#09394E"/>
<path d="M26 26.5715C27.1655 26.5715 28.3049 26.2259 29.2739 25.5784C30.243 24.9308 30.9983 24.0105 31.4443 22.9337C31.8903 21.8569 32.007 20.6721 31.7797 19.529C31.5523 18.3859 30.991 17.3359 30.1669 16.5117C29.3428 15.6876 28.2928 15.1264 27.1497 14.899C26.0066 14.6716 24.8217 14.7883 23.7449 15.2343C22.6682 15.6804 21.7478 16.4357 21.1003 17.4047C20.4528 18.3738 20.1072 19.5131 20.1072 20.6786C20.1088 22.241 20.7302 23.7389 21.835 24.8437C22.9398 25.9484 24.4377 26.5698 26 26.5715ZM26 16.3572C26.8547 16.3572 27.6902 16.6106 28.4009 17.0855C29.1115 17.5603 29.6654 18.2352 29.9925 19.0249C30.3196 19.8145 30.4052 20.6834 30.2384 21.5217C30.0717 22.36 29.6601 23.13 29.0557 23.7343C28.4514 24.3387 27.6814 24.7503 26.8431 24.917C26.0048 25.0838 25.1359 24.9982 24.3463 24.6711C23.5567 24.344 22.8817 23.7901 22.4069 23.0795C21.9321 22.3688 21.6786 21.5333 21.6786 20.6786C21.6799 19.5329 22.1355 18.4344 22.9457 17.6243C23.7559 16.8141 24.8543 16.3584 26 16.3572Z" fill="#DAB679"/>
<path d="M35.7428 31.3447C35.1891 29.5999 34.1769 28.0358 32.8121 26.8158C32.6565 26.6791 32.4533 26.6093 32.2465 26.6217C32.0398 26.6341 31.8463 26.7276 31.7081 26.8819C31.5699 27.0363 31.4983 27.2389 31.5088 27.4457C31.5192 27.6526 31.611 27.847 31.764 27.9865C32.9192 29.0189 33.7759 30.3426 34.2445 31.8192C34.3136 32.0315 34.3311 32.2571 34.2957 32.4775C34.2604 32.6979 34.173 32.9067 34.041 33.0866C33.915 33.26 33.7495 33.4009 33.5582 33.4976C33.3669 33.5944 33.1553 33.6442 32.941 33.6429H19.0598C18.8454 33.6445 18.6338 33.595 18.4425 33.4983C18.2512 33.4017 18.0857 33.2608 17.9598 33.0874C17.8273 32.9064 17.7398 32.6966 17.7044 32.4751C17.669 32.2537 17.6868 32.027 17.7563 31.8137C18.2323 30.3194 19.1058 28.9826 20.2831 27.9465C20.4394 27.8085 20.5345 27.6141 20.5475 27.4061C20.5604 27.198 20.4902 26.9933 20.3523 26.837C20.2143 26.6807 20.0199 26.5857 19.8119 26.5727C19.6038 26.5597 19.3991 26.6299 19.2428 26.7679C17.8516 27.9928 16.8196 29.5729 16.2571 31.3392C16.1116 31.7878 16.0751 32.2645 16.1505 32.73C16.2259 33.1956 16.4112 33.6364 16.6908 34.0161C16.9622 34.3896 17.3186 34.693 17.7305 34.9014C18.1425 35.1098 18.5981 35.217 19.0598 35.2143H32.9394C33.4007 35.2166 33.8559 35.109 34.2674 34.9005C34.679 34.692 35.0349 34.3886 35.306 34.0153C35.5857 33.6369 35.7712 33.1972 35.8472 32.7328C35.9232 32.2684 35.8874 31.7925 35.7428 31.3447Z" fill="#DAB679"/>
</svg>
