<svg width="92" height="47" viewBox="0 0 92 47" fill="none" xmlns="http://www.w3.org/2000/svg">
<path d="M46.1633 16.978L45.6925 18.025L58.2159 23.7755L58.6867 22.7285L46.1633 16.978Z" fill="#DAB679"/>
<path d="M45.4065 46.55V0L59.1625 23.28L45.4065 46.55ZM46.5446 4.21V42.35L57.8364 23.28L46.5446 4.21Z" fill="#DAB679"/>
<path d="M57.8424 21.7481L45.33 29.2466L45.9105 30.2357L58.4229 22.7372L57.8424 21.7481Z" fill="#DAB679"/>
<path d="M45.7588 17.0206L33.234 22.7697L33.7047 23.8167L46.2295 18.0677L45.7588 17.0206Z" fill="#DAB679"/>
<path d="M33.9521 22.9516L32.9754 23.542L45.4945 44.688L46.4712 44.0976L33.9521 22.9516Z" fill="#DAB679"/>
<path d="M45.4621 1.73309L32.9469 22.9393L33.9244 23.5284L46.4396 2.32212L45.4621 1.73309Z" fill="#DAB679"/>
<path d="M33.7646 22.8195L33.1854 23.8094L45.708 31.2903L46.2872 30.3004L33.7646 22.8195Z" fill="#DAB679"/>
<path d="M2.49583 25.16C2.40677 25.17 2.31768 25.17 2.22861 25.16C1.74369 25.09 1.29837 24.83 1.00147 24.43C0.378004 23.6 0.536341 22.41 1.36763 21.78C2.18903 21.15 3.36669 21.31 3.99016 22.15C4.61363 22.98 4.4553 24.17 3.624 24.8C3.29742 25.05 2.90158 25.18 2.49583 25.18V25.16ZM2.49583 22.55C2.33749 22.55 2.18904 22.6 2.06039 22.7C1.91195 22.82 1.81298 22.99 1.7833 23.18C1.72392 23.57 1.98122 23.94 2.36718 24.01C2.37707 24.01 2.37706 24.01 2.38696 24.01C2.57499 24.03 2.7729 23.98 2.93125 23.87C3.07969 23.75 3.17868 23.58 3.20837 23.39C3.26775 22.99 2.99064 22.62 2.60468 22.56C2.60468 22.56 2.60467 22.56 2.59477 22.56L2.49583 22.55Z" fill="#DAB679"/>
<path d="M13.3423 35.82C10.9276 35.81 8.88897 34.02 8.55249 31.61C8.22591 29.43 9.71035 27.39 11.8777 27.06C11.8974 27.06 11.9172 27.05 11.937 27.05C13.7382 26.78 15.4107 28.04 15.6779 29.86C15.6779 29.87 15.6779 29.87 15.6779 29.88L14.5497 30.04C14.3814 28.85 13.2929 28.02 12.1152 28.19C12.1053 28.19 12.1053 28.19 12.0954 28.19C10.5416 28.42 9.45304 29.88 9.68066 31.45C9.96765 33.5 11.8381 34.92 13.8569 34.63C13.8668 34.63 13.8668 34.63 13.8767 34.63C16.4894 34.24 18.3004 31.8 17.9342 29.16C17.4493 25.78 14.3517 23.44 11.0068 23.92C7.04822 24.49 4.17828 28.01 4.36632 32.04H3.22824C3.02042 27.42 6.31591 23.4 10.8385 22.73C14.807 22.15 18.4785 24.93 19.0525 28.94V28.95C19.4979 32.21 17.2712 35.23 14.045 35.71C13.8173 35.77 13.5798 35.8 13.3423 35.82Z" fill="#DAB679"/>
<path d="M14.3121 32.11C13.2829 32.04 12.5209 31.14 12.5902 30.1C12.6595 29.06 13.5501 28.29 14.5794 28.36C15.6086 28.43 16.3706 29.33 16.3013 30.37C16.232 31.3 15.4997 32.04 14.5794 32.11H14.3121ZM14.3121 29.5H14.2132C13.8272 29.55 13.5502 29.91 13.5996 30.31V30.32C13.659 30.72 14.0252 30.99 14.421 30.94C14.6091 30.91 14.7773 30.81 14.8961 30.66C15.0049 30.5 15.0544 30.31 15.0346 30.12C15.0148 29.93 14.9059 29.75 14.7476 29.64C14.6189 29.56 14.4606 29.53 14.3121 29.55V29.5Z" fill="#DAB679"/>
<path d="M11.8776 23.86C11.551 23.86 11.2145 23.83 10.888 23.78C6.36532 23.11 3.06982 19.09 3.27765 14.47L4.41572 14.52C4.2178 18.55 7.09766 22.08 11.0562 22.64C14.4012 23.13 17.4987 20.79 17.9837 17.41C18.3498 14.77 16.5388 12.32 13.9261 11.94C11.8974 11.65 10.0171 13.07 9.7301 15.12C9.50248 16.69 10.5911 18.15 12.1448 18.38C12.7188 18.47 13.2928 18.32 13.7579 17.97C14.2131 17.62 14.5199 17.1 14.5991 16.52L15.7273 16.69C15.47 18.51 13.8074 19.78 12.0062 19.52C11.9964 19.52 11.9964 19.52 11.9865 19.52C9.80927 19.2 8.29511 17.15 8.6019 14.95C8.98785 12.27 11.4422 10.42 14.0944 10.8C17.3206 11.28 19.5572 14.31 19.102 17.57C18.5873 21.2 15.4997 23.88 11.8776 23.86Z" fill="#DAB679"/>
<path d="M14.3121 18.22H14.0548C13.0454 18.15 12.2734 17.26 12.3427 16.23C12.412 15.21 13.2927 14.43 14.3121 14.5C15.3215 14.57 16.0934 15.46 16.0242 16.49C15.9549 17.42 15.2225 18.16 14.3121 18.22ZM14.3121 15.61C13.9162 15.62 13.5995 15.96 13.6094 16.36C13.6193 16.71 13.8767 17 14.2131 17.06C14.609 17.11 14.9751 16.84 15.0345 16.44C15.0543 16.25 15.0048 16.06 14.896 15.9C14.7772 15.74 14.609 15.64 14.4209 15.61H14.3121Z" fill="#DAB679"/>
<path d="M89.5042 25.16C89.5932 25.17 89.6823 25.17 89.7714 25.16C90.2563 25.09 90.7016 24.83 90.9985 24.43C91.622 23.6 91.4637 22.41 90.6324 21.78C89.811 21.15 88.6333 21.31 88.0098 22.15C87.3863 22.98 87.5447 24.17 88.376 24.8C88.7026 25.05 89.0984 25.18 89.5042 25.18V25.16ZM89.5042 22.55C89.6625 22.55 89.8109 22.6 89.9396 22.7C90.088 22.82 90.187 22.99 90.2167 23.18C90.2761 23.57 90.0188 23.94 89.6328 24.01C89.6229 24.01 89.6229 24.01 89.613 24.01C89.425 24.03 89.2271 23.98 89.0687 23.87C88.9203 23.75 88.8213 23.58 88.7916 23.39C88.7322 22.99 89.0093 22.62 89.3953 22.56C89.3953 22.56 89.3953 22.56 89.4052 22.56L89.5042 22.55Z" fill="#DAB679"/>
<path d="M78.6577 35.82C81.0724 35.81 83.111 34.02 83.4475 31.61C83.7741 29.43 82.2897 27.39 80.1223 27.06C80.1026 27.06 80.0828 27.05 80.063 27.05C78.2618 26.78 76.5893 28.04 76.3221 29.86C76.3221 29.87 76.3221 29.87 76.3221 29.88L77.4503 30.04C77.6186 28.85 78.7071 28.02 79.8848 28.19C79.8947 28.19 79.8947 28.19 79.9046 28.19C81.4584 28.42 82.547 29.88 82.3193 31.45C82.0323 33.5 80.1619 34.92 78.1431 34.63C78.1332 34.63 78.1332 34.63 78.1233 34.63C75.5106 34.24 73.6996 31.8 74.0658 29.16C74.5507 25.78 77.6483 23.44 80.9932 23.92C84.9518 24.49 87.8217 28.01 87.6337 32.04H88.7718C88.9796 27.42 85.6841 23.4 81.1615 22.73C77.193 22.15 73.5215 24.93 72.9475 28.94V28.95C72.5021 32.21 74.7288 35.23 77.955 35.71C78.1827 35.77 78.4202 35.8 78.6577 35.82Z" fill="#DAB679"/>
<path d="M77.6879 32.11C78.7171 32.04 79.4791 31.14 79.4098 30.1C79.3406 29.06 78.4499 28.29 77.4207 28.36C76.3914 28.43 75.6294 29.33 75.6987 30.37C75.768 31.3 76.5003 32.04 77.4207 32.11H77.6879ZM77.6879 29.5H77.7868C78.1728 29.55 78.4499 29.91 78.4004 30.31V30.32C78.341 30.72 77.9749 30.99 77.579 30.94C77.391 30.91 77.2227 30.81 77.104 30.66C76.9951 30.5 76.9456 30.31 76.9654 30.12C76.9852 29.93 77.0941 29.75 77.2524 29.64C77.3811 29.56 77.5394 29.53 77.6879 29.55V29.5Z" fill="#DAB679"/>
<path d="M80.1224 23.86C80.449 23.86 80.7855 23.83 81.112 23.78C85.6347 23.11 88.9302 19.09 88.7224 14.47L87.5843 14.52C87.7822 18.55 84.9023 22.08 80.9438 22.64C77.5988 23.13 74.5012 20.79 74.0163 17.41C73.6501 14.77 75.4612 12.32 78.0738 11.94C80.1026 11.65 81.9829 13.07 82.2699 15.12C82.4975 16.69 81.4089 18.15 79.8552 18.38C79.2812 18.47 78.7072 18.32 78.2421 17.97C77.7869 17.62 77.4801 17.1 77.4009 16.52L76.2727 16.69C76.53 18.51 78.1926 19.78 79.9937 19.52C80.0036 19.52 80.0036 19.52 80.0135 19.52C82.1907 19.2 83.7049 17.15 83.3981 14.95C83.0121 12.27 80.5578 10.42 77.9056 10.8C74.6794 11.28 72.4428 14.31 72.898 17.57C73.4126 21.2 76.5003 23.88 80.1224 23.86Z" fill="#DAB679"/>
<path d="M77.6879 18.22H77.9452C78.9546 18.15 79.7266 17.26 79.6573 16.23C79.588 15.21 78.7073 14.43 77.6879 14.5C76.6785 14.57 75.9066 15.46 75.9758 16.49C76.0451 17.42 76.7775 18.16 77.6879 18.22ZM77.6879 15.61C78.0838 15.62 78.4005 15.96 78.3906 16.36C78.3807 16.71 78.1233 17 77.7869 17.06C77.391 17.11 77.0249 16.84 76.9655 16.44C76.9457 16.25 76.9952 16.06 77.104 15.9C77.2228 15.74 77.391 15.64 77.5791 15.61H77.6879Z" fill="#DAB679"/>
</svg>
