<svg width="20" height="26" viewBox="0 0 20 26" fill="none" xmlns="http://www.w3.org/2000/svg">
<path d="M2.49583 15.16C2.40677 15.17 2.31768 15.17 2.22861 15.16C1.74369 15.09 1.29837 14.83 1.00147 14.43C0.378004 13.6 0.536341 12.41 1.36763 11.78C2.18903 11.15 3.36669 11.31 3.99016 12.15C4.61363 12.98 4.4553 14.17 3.624 14.8C3.29742 15.05 2.90158 15.18 2.49583 15.18V15.16ZM2.49583 12.55C2.33749 12.55 2.18904 12.6 2.06039 12.7C1.91195 12.82 1.81298 12.99 1.7833 13.18C1.72392 13.57 1.98122 13.94 2.36718 14.01C2.37707 14.01 2.37706 14.01 2.38696 14.01C2.57499 14.03 2.7729 13.98 2.93125 13.87C3.07969 13.75 3.17868 13.58 3.20837 13.39C3.26775 12.99 2.99064 12.62 2.60468 12.56C2.60468 12.56 2.60467 12.56 2.59477 12.56L2.49583 12.55Z" fill="#DAB679"/>
<path d="M13.3423 25.82C10.9276 25.81 8.88897 24.02 8.55249 21.61C8.22591 19.43 9.71035 17.39 11.8777 17.06C11.8974 17.06 11.9172 17.05 11.937 17.05C13.7382 16.78 15.4107 18.04 15.6779 19.86C15.6779 19.87 15.6779 19.87 15.6779 19.88L14.5497 20.04C14.3814 18.85 13.2929 18.02 12.1152 18.19C12.1053 18.19 12.1053 18.19 12.0954 18.19C10.5416 18.42 9.45304 19.88 9.68066 21.45C9.96765 23.5 11.8381 24.92 13.8569 24.63C13.8668 24.63 13.8668 24.63 13.8767 24.63C16.4894 24.24 18.3004 21.8 17.9342 19.16C17.4493 15.78 14.3517 13.44 11.0068 13.92C7.04822 14.49 4.17828 18.01 4.36632 22.04H3.22824C3.02042 17.42 6.31591 13.4 10.8385 12.73C14.807 12.15 18.4785 14.93 19.0525 18.94V18.95C19.4979 22.21 17.2712 25.23 14.045 25.71C13.8173 25.77 13.5798 25.8 13.3423 25.82Z" fill="#DAB679"/>
<path d="M11.8776 13.86C11.551 13.86 11.2145 13.83 10.888 13.78C6.36532 13.11 3.06982 9.08996 3.27765 4.46996L4.41572 4.51996C4.2178 8.54996 7.09766 12.08 11.0562 12.64C14.4012 13.13 17.4987 10.79 17.9837 7.40996C18.3498 4.76996 16.5388 2.31996 13.9261 1.93996C11.8974 1.64996 10.0171 3.06996 9.7301 5.11996C9.50248 6.68996 10.5911 8.14995 12.1448 8.37995C12.7188 8.46995 13.2928 8.31995 13.7579 7.96995C14.2131 7.61996 14.5199 7.09996 14.5991 6.51996L15.7273 6.68996C15.47 8.50996 13.8074 9.77996 12.0062 9.51996C11.9964 9.51996 11.9964 9.51996 11.9865 9.51996C9.80927 9.19996 8.29511 7.14996 8.6019 4.94996C8.98785 2.26996 11.4422 0.419956 14.0944 0.799956C17.3206 1.27996 19.5572 4.30996 19.102 7.56996C18.5873 11.2 15.4997 13.88 11.8776 13.86Z" fill="#DAB679"/>
</svg>
