<svg width="20" height="26" viewBox="0 0 20 26" fill="none" xmlns="http://www.w3.org/2000/svg">
<path d="M17.5042 15.16C17.5932 15.17 17.6823 15.17 17.7714 15.16C18.2563 15.09 18.7016 14.83 18.9985 14.43C19.622 13.6 19.4637 12.41 18.6324 11.78C17.811 11.15 16.6333 11.31 16.0098 12.15C15.3863 12.98 15.5447 14.17 16.376 14.8C16.7026 15.05 17.0984 15.18 17.5042 15.18V15.16ZM17.5042 12.55C17.6625 12.55 17.8109 12.6 17.9396 12.7C18.088 12.82 18.187 12.99 18.2167 13.18C18.2761 13.57 18.0188 13.94 17.6328 14.01C17.6229 14.01 17.6229 14.01 17.613 14.01C17.425 14.03 17.2271 13.98 17.0687 13.87C16.9203 13.75 16.8213 13.58 16.7916 13.39C16.7322 12.99 17.0093 12.62 17.3953 12.56C17.3953 12.56 17.3953 12.56 17.4052 12.56L17.5042 12.55Z" fill="#DAB679"/>
<path d="M6.65767 25.82C9.07239 25.81 11.111 24.02 11.4475 21.61C11.7741 19.43 10.2897 17.39 8.12235 17.06C8.10255 17.06 8.08276 17.05 8.06297 17.05C6.26183 16.78 4.58935 18.04 4.32215 19.86C4.32215 19.87 4.32215 19.87 4.32215 19.88L5.45032 20.04C5.61856 18.85 6.70715 18.02 7.88481 18.19C7.89471 18.19 7.89473 18.19 7.90463 18.19C9.45836 18.42 10.547 19.88 10.3193 21.45C10.0323 23.5 8.16193 24.92 6.14307 24.63C6.13318 24.63 6.13316 24.63 6.12326 24.63C3.51062 24.24 1.69961 21.8 2.06578 19.16C2.5507 15.78 5.64826 13.44 8.99323 13.92C12.9518 14.49 15.8217 18.01 15.6337 22.04H16.7718C16.9796 17.42 13.6841 13.4 9.16145 12.73C5.19301 12.15 1.52147 14.93 0.947483 18.94V18.95C0.502148 22.21 2.72883 25.23 5.95504 25.71C6.18266 25.77 6.42016 25.8 6.65767 25.82Z" fill="#DAB679"/>
<path d="M8.12239 13.86C8.44897 13.86 8.78545 13.83 9.11203 13.78C13.6347 13.11 16.9302 9.08996 16.7224 4.46996L15.5843 4.51996C15.7822 8.54996 12.9023 12.08 8.94378 12.64C5.5988 13.13 2.50124 10.79 2.01631 7.40996C1.65015 4.76996 3.46119 2.31996 6.07384 1.93996C8.10259 1.64996 9.9829 3.06996 10.2699 5.11996C10.4975 6.68996 9.4089 8.14995 7.85517 8.37995C7.28118 8.46995 6.70722 8.31995 6.24209 7.96995C5.78685 7.61996 5.48006 7.09996 5.40089 6.51996L4.27269 6.68996C4.52999 8.50996 6.19259 9.77996 7.99374 9.51996C8.00363 9.51996 8.00362 9.51996 8.01352 9.51996C10.1907 9.19996 11.7049 7.14996 11.3981 4.94996C11.0121 2.26996 8.55781 0.419956 5.90558 0.799956C2.67936 1.27996 0.442783 4.30996 0.898018 7.56996C1.41263 11.2 4.50032 13.88 8.12239 13.86Z" fill="#DAB679"/>
</svg>
