<svg width="198" height="269" viewBox="0 0 198 269" fill="none" xmlns="http://www.w3.org/2000/svg">
<g clip-path="url(#clip0_638:1572)">
<path d="M198 147.304C198.005 145.868 197.662 144.451 197.001 143.176C196.34 141.901 195.381 140.804 194.205 139.98C194.205 139.766 194.205 139.516 194.205 139.285C194.19 137.061 193.354 134.922 191.858 133.277C190.361 131.632 188.31 130.599 186.098 130.375V60.5896C188.154 60.3847 190.076 59.4713 191.532 58.0056C193.226 56.3112 194.178 54.0132 194.178 51.617C194.178 49.2208 193.226 46.9227 191.532 45.2284C190.076 43.8232 188.185 42.9558 186.17 42.7691V39.3298H182.873C182.632 37.1167 181.581 35.0707 179.924 33.5845C178.267 32.0982 176.12 31.2762 173.894 31.2762C171.668 31.2762 169.52 32.0982 167.863 33.5845C166.206 35.0707 165.156 37.1167 164.914 39.3298H136.407L102.786 4.57986C103.014 4.13886 103.136 3.6507 103.142 3.15422C103.142 2.31767 102.81 1.51538 102.219 0.92385C101.627 0.332319 100.825 0 99.9889 0C99.1525 0 98.3503 0.332319 97.7589 0.92385C97.1675 1.51538 96.8353 2.31767 96.8353 3.15422C96.833 3.65176 96.9555 4.14191 97.1916 4.57986L63.6244 39.3298H34.9035C34.6739 37.3024 33.7557 35.4152 32.3022 33.9836C31.1016 32.7836 29.5873 31.9461 27.9328 31.5671C26.2783 31.1882 24.5505 31.2832 22.9475 31.8412C21.3445 32.3992 19.931 33.3977 18.8692 34.7221C17.8074 36.0466 17.1402 37.6435 16.944 39.3298H13.5766V42.7691C11.4696 43.123 9.55631 44.2123 8.17638 45.8436C6.79645 47.4749 6.03924 49.5425 6.03924 51.6794C6.03924 53.8162 6.79645 55.8839 8.17638 57.5152C9.55631 59.1464 11.4696 60.2357 13.5766 60.5896V130.285H12.757C10.3627 130.29 8.06778 131.244 6.37474 132.937C4.68171 134.63 3.72849 136.926 3.72378 139.32C3.72378 139.57 3.72378 139.802 3.72378 140.033C2.5476 140.854 1.58705 141.947 0.923793 143.22C0.260536 144.492 -0.0858154 145.905 -0.0858154 147.34C-0.0858154 148.774 0.260536 150.188 0.923793 151.46C1.58705 152.732 2.5476 153.825 3.72378 154.646C3.72378 154.878 3.72378 155.109 3.72378 155.341C3.72378 157.737 4.67549 160.035 6.36954 161.73C8.0636 163.424 10.3612 164.376 12.757 164.376C13.0299 164.393 13.3036 164.393 13.5766 164.376V235.996C11.3639 236.238 9.31836 237.289 7.83238 238.946C6.3464 240.604 5.52459 242.752 5.52459 244.978C5.52459 247.204 6.3464 249.352 7.83238 251.01C9.31836 252.667 11.3639 253.718 13.5766 253.96V257.381H16.944C17.1402 259.067 17.8074 260.664 18.8692 261.989C19.931 263.313 21.3445 264.312 22.9475 264.87C24.5505 265.428 26.2783 265.523 27.9328 265.144C29.5873 264.765 31.1016 263.927 32.3022 262.727C33.7492 261.293 34.661 259.406 34.8857 257.381H82.9915C83.2518 259.566 84.3005 261.581 85.9407 263.048C87.5809 264.514 89.6999 265.332 91.9 265.347H92.5948C93.4153 266.527 94.5089 267.491 95.7825 268.157C97.056 268.822 98.4717 269.17 99.9087 269.17C101.346 269.17 102.761 268.822 104.035 268.157C105.308 267.491 106.402 266.527 107.223 265.347H107.917C110.117 265.332 112.236 264.514 113.877 263.048C115.517 261.581 116.566 259.566 116.826 257.381H164.932C165.156 259.406 166.068 261.293 167.515 262.727C168.716 263.927 170.23 264.765 171.885 265.144C173.539 265.523 175.267 265.428 176.87 264.87C178.473 264.312 179.886 263.313 180.948 261.989C182.01 260.664 182.677 259.067 182.873 257.381H186.17V253.96C188.382 253.718 190.428 252.667 191.914 251.01C193.4 249.352 194.222 247.204 194.222 244.978C194.222 242.752 193.4 240.604 191.914 238.946C190.428 237.289 188.382 236.238 186.17 235.996V164.305C188.378 164.073 190.425 163.037 191.92 161.394C193.415 159.751 194.253 157.616 194.276 155.394C194.276 155.163 194.276 154.931 194.276 154.699C195.449 153.86 196.401 152.749 197.049 151.461C197.698 150.173 198.024 148.746 198 147.304V147.304ZM98.6526 6.0055C99.0699 6.20486 99.5264 6.30833 99.9889 6.30833C100.451 6.30833 100.908 6.20486 101.325 6.0055L133.503 39.3298H116.862C116.61 37.1365 115.565 35.1109 113.924 33.6341C112.284 32.1572 110.16 31.3309 107.953 31.3106C107.722 31.2929 107.489 31.2929 107.258 31.3106C106.438 30.1306 105.344 29.1666 104.071 28.5008C102.797 27.8351 101.381 27.4874 99.9443 27.4874C98.5073 27.4874 97.0917 27.8351 95.8181 28.5008C94.5445 29.1666 93.4509 30.1306 92.6305 31.3106C92.3992 31.2929 92.1669 31.2929 91.9356 31.3106C89.7285 31.3309 87.6048 32.1572 85.9642 33.6341C84.3236 35.1109 83.279 37.1365 83.0271 39.3298H66.4573L98.6526 6.0055ZM192.601 153.256L192.031 153.648V154.307C192.093 154.643 192.129 154.982 192.138 155.323C192.134 157.15 191.416 158.903 190.138 160.208C188.86 161.513 187.123 162.267 185.297 162.309H184.067V237.957H185.297C186.677 237.953 188.028 238.36 189.177 239.125C190.326 239.89 191.221 240.98 191.75 242.256C192.279 243.531 192.417 244.935 192.147 246.289C191.876 247.643 191.21 248.886 190.232 249.861C189.575 250.517 188.794 251.037 187.934 251.389C187.075 251.74 186.154 251.918 185.225 251.91H184.192V255.296H180.949V256.312C180.951 257.224 180.771 258.128 180.42 258.969C180.068 259.811 179.551 260.573 178.9 261.212C177.926 262.186 176.685 262.85 175.334 263.12C173.984 263.39 172.583 263.255 171.309 262.731C170.035 262.207 168.945 261.318 168.175 260.176C167.404 259.034 166.989 257.689 166.981 256.312V255.296H114.937V256.312C114.92 257.309 114.691 258.291 114.264 259.192C113.837 260.093 113.223 260.892 112.462 261.537C111.701 262.181 110.812 262.656 109.853 262.929C108.894 263.202 107.888 263.267 106.902 263.119L106.243 263.012L105.886 263.6C105.267 264.622 104.395 265.467 103.354 266.053C102.313 266.639 101.139 266.947 99.9443 266.947C98.7498 266.947 97.5754 266.639 96.5346 266.053C95.4938 265.467 94.6216 264.622 94.0024 263.6L93.6282 263.012L92.969 263.119C92.6279 263.182 92.2823 263.218 91.9356 263.226C90.0908 263.222 88.3225 262.489 87.0147 261.188C85.7069 259.886 84.9654 258.121 84.9513 256.276V255.26H32.908V256.276C32.8997 257.654 32.4843 258.998 31.7141 260.14C30.9438 261.282 29.8532 262.171 28.5792 262.695C27.3053 263.219 25.9049 263.354 24.5543 263.084C23.2036 262.814 21.963 262.15 20.9884 261.177C20.3376 260.538 19.821 259.775 19.4691 258.933C19.1173 258.092 18.9372 257.188 18.9395 256.276V255.26H15.6255V251.892H14.5921C13.6743 251.898 12.7645 251.72 11.9168 251.368C11.069 251.016 10.3005 250.497 9.65683 249.843C8.6814 248.866 8.01728 247.622 7.74833 246.268C7.47939 244.914 7.61769 243.51 8.14577 242.234C8.67384 240.959 9.56801 239.868 10.7154 239.1C11.8627 238.333 13.2117 237.922 14.5921 237.921H15.6255V161.792L14.3605 162.166C13.8359 162.296 13.2975 162.362 12.757 162.362C11.7455 162.389 10.7408 162.19 9.81595 161.78C8.89111 161.369 8.0694 160.758 7.41064 159.989C6.75187 159.221 6.27263 158.316 6.00779 157.339C5.74294 156.362 5.69916 155.339 5.87963 154.343L5.98653 153.666L5.34512 153.256C4.32364 152.637 3.47906 151.764 2.89289 150.723C2.30673 149.682 1.99878 148.508 1.99878 147.313C1.99878 146.118 2.30673 144.944 2.89289 143.903C3.47906 142.861 4.32364 141.989 5.34512 141.37L5.93308 141.013L5.82618 140.354C5.64612 139.357 5.69006 138.333 5.95483 137.356C6.21961 136.378 6.69857 135.472 7.35698 134.702C8.0154 133.933 8.83677 133.32 9.76152 132.907C10.6863 132.494 11.6912 132.293 12.7035 132.317C13.2447 132.324 13.7831 132.395 14.3071 132.531L15.5721 132.816V58.665H14.5921C12.7398 58.665 10.9633 57.929 9.65352 56.6189C8.34372 55.3089 7.60788 53.5321 7.60788 51.6794C7.60788 49.8267 8.34372 48.0498 9.65352 46.7398C10.9633 45.4297 12.7398 44.6937 14.5921 44.6937H15.6255V41.3791H18.9395V40.3455C18.9395 38.4928 19.6753 36.716 20.9851 35.406C22.2949 34.0959 24.0714 33.3599 25.9237 33.3599C27.7761 33.3599 29.5525 34.0959 30.8623 35.406C32.1721 36.716 32.908 38.4928 32.908 40.3455V41.3791H84.8801V40.3455C84.8848 38.4943 85.6221 36.7202 86.9309 35.4112C88.2397 34.1021 90.0134 33.3646 91.8643 33.3599C92.2168 33.3709 92.5681 33.4066 92.9155 33.4668L93.5748 33.5738L93.9311 33.0035C94.547 31.9775 95.418 31.1285 96.4592 30.5391C97.5005 29.9496 98.6766 29.6398 99.8731 29.6398C101.07 29.6398 102.246 29.9496 103.287 30.5391C104.328 31.1285 105.199 31.9775 105.815 33.0035L106.207 33.5738L106.884 33.4668C107.213 33.4039 107.547 33.3681 107.882 33.3599C109.733 33.3646 111.506 34.1021 112.815 35.4112C114.124 36.7202 114.861 38.4943 114.866 40.3455V41.3791H166.909V40.3455C166.909 38.4928 167.645 36.716 168.955 35.406C170.265 34.0959 172.041 33.3599 173.894 33.3599C175.746 33.3599 177.522 34.0959 178.832 35.406C180.142 36.716 180.878 38.4928 180.878 40.3455V41.3791H184.121V44.7116H185.154C186.083 44.6872 187.008 44.8551 187.869 45.2047C188.731 45.5543 189.511 46.078 190.161 46.7431C190.81 47.3905 191.326 48.1597 191.677 49.0068C192.029 49.8539 192.21 50.7621 192.21 51.6794C192.21 52.5966 192.029 53.5048 191.677 54.3519C191.326 55.199 190.81 55.9683 190.161 56.6156C189.509 57.2788 188.728 57.8025 187.868 58.1548C187.007 58.5071 186.084 58.6807 185.154 58.665H184.121V131.283V132.335H185.172C186.089 132.333 186.998 132.513 187.845 132.865C188.692 133.216 189.461 133.733 190.107 134.384C190.761 135.028 191.28 135.797 191.632 136.645C191.984 137.492 192.162 138.402 192.156 139.32C192.147 139.673 192.111 140.025 192.049 140.372L191.942 141.031L192.53 141.388C193.552 142.007 194.396 142.879 194.982 143.92C195.569 144.961 195.877 146.136 195.877 147.331C195.877 148.526 195.569 149.7 194.982 150.741C194.396 151.782 193.552 152.654 192.53 153.274L192.601 153.256Z" fill="#DAB679"/>
<rect x="26.5" y="51.5" width="147" height="193" stroke="#DAB679" stroke-width="3"/>
<path d="M96.5834 171.779C93.4439 171.779 90.89 169.225 90.89 166.086V151.936C90.89 148.796 93.4441 146.242 96.5834 146.242C97.0342 146.242 97.4826 146.295 97.9185 146.4L97.9388 146.401C97.9844 146.404 98.0299 146.406 98.0758 146.407C98.2674 146.413 98.4564 146.416 98.6453 146.416C109.152 146.415 117.691 138.187 118.084 127.683C118.278 122.494 116.405 117.521 112.81 113.68C109.216 109.841 104.379 107.645 99.1904 107.497C89.9898 107.234 81.9478 113.373 79.7457 122.243C79.0957 124.861 76.7349 126.667 74.049 126.597C72.3197 126.547 70.7273 125.729 69.6799 124.352C68.6318 122.974 68.2683 121.22 68.6828 119.539C70.307 112.949 74.1492 106.987 79.5013 102.751C85.2015 98.2393 92.4209 95.868 99.7053 96.1203C107.928 96.4051 115.543 99.85 121.147 105.821C126.75 111.792 129.707 119.609 129.472 127.834C129.033 143.174 117.408 155.812 102.277 157.588V166.086C102.277 169.225 99.7226 171.779 96.5834 171.779ZM96.5834 148.195C94.5209 148.195 92.8431 149.873 92.8431 151.935V166.086C92.8431 168.148 94.5211 169.826 96.5834 169.826C98.6457 169.826 100.324 168.148 100.324 166.086V156.707C100.324 156.201 100.71 155.779 101.214 155.734C115.791 154.446 127.1 142.428 127.519 127.778C127.972 111.946 115.465 98.6199 99.6377 98.0723C99.2992 98.0605 98.956 98.0547 98.6179 98.0547C85.2951 98.0547 73.765 107.081 70.5791 120.006C70.3068 121.111 70.5457 122.264 71.2344 123.169C71.9224 124.074 72.9687 124.612 74.1049 124.644C75.8709 124.696 77.4211 123.499 77.85 121.772C80.273 112.011 89.1236 105.254 99.2459 105.544C104.959 105.708 110.283 108.123 114.235 112.346C118.189 116.569 120.249 122.042 120.035 127.756C119.827 133.324 117.5 138.519 113.484 142.384C109.473 146.243 104.203 148.369 98.6449 148.369C98.4375 148.369 98.2299 148.366 98.0213 148.36C97.9592 148.358 97.8959 148.355 97.8326 148.351L97.7336 148.346C97.6642 148.343 97.5953 148.333 97.5283 148.316C97.2215 148.236 96.9035 148.195 96.5834 148.195Z" fill="#DAB679"/>
<path d="M96.941 187.898C93.8223 187.898 91.2852 185.361 91.2852 182.242C91.2852 179.124 93.8225 176.586 96.941 176.586C100.06 176.586 102.597 179.124 102.597 182.242C102.597 185.361 100.06 187.898 96.941 187.898ZM96.941 178.539C94.8992 178.539 93.2383 180.201 93.2383 182.242C93.2383 184.284 94.8994 185.945 96.941 185.945C98.9826 185.945 100.644 184.284 100.644 182.242C100.644 180.201 98.9826 178.539 96.941 178.539Z" fill="#DAB679"/>
</g>
<defs>
<clipPath id="clip0_638:1572">
<rect width="198" height="269" fill="white"/>
</clipPath>
</defs>
</svg>
