<svg width="18" height="18" viewBox="0 0 18 18" fill="none" xmlns="http://www.w3.org/2000/svg">
<path d="M17.8 0.519973C17.72 0.359973 17.64 0.239973 17.48 0.199973C17.4 0.159973 17.32 0.159973 17.28 0.159973H8.76004C8.44003 0.159973 8.16004 0.439973 8.16004 0.759973C8.16004 1.07997 8.44003 1.35997 8.76004 1.35997H15.8L1.36003 15.8V8.75997C1.36003 8.43997 1.08003 8.15997 0.760034 8.15997C0.440034 8.15997 0.160034 8.43997 0.160034 8.75997V17.24C0.160034 17.32 0.160034 17.4 0.200034 17.44C0.280034 17.6 0.360034 17.72 0.520034 17.76C0.600034 17.8 0.680034 17.8 0.720034 17.8H9.20003C9.52003 17.8 9.80003 17.52 9.80003 17.2C9.80003 16.88 9.52003 16.6 9.20003 16.6H2.20003L16.64 2.19997V9.23997C16.64 9.55997 16.92 9.83997 17.24 9.83997C17.56 9.83997 17.84 9.55997 17.84 9.23997V0.759973C17.84 0.679973 17.84 0.599973 17.8 0.519973Z" fill="#DAB679"/>
</svg>
