<svg width="25" height="16" viewBox="0 0 25 16" fill="none" xmlns="http://www.w3.org/2000/svg">
<path d="M12.5881 3.625C12.1503 3.63147 11.7157 3.69724 11.2976 3.82031C11.491 4.14192 11.5939 4.50504 11.5966 4.875C11.5966 5.16227 11.5368 5.44672 11.4206 5.71212C11.3043 5.97752 11.1339 6.21867 10.9191 6.4218C10.7043 6.62492 10.4492 6.78605 10.1685 6.89599C9.88787 7.00592 9.58705 7.0625 9.28325 7.0625C8.892 7.05993 8.50798 6.96256 8.16786 6.77969C7.89952 7.65969 7.93079 8.59721 8.25726 9.45947C8.58372 10.3217 9.18882 11.065 9.98684 11.584C10.7849 12.103 11.7354 12.3714 12.7037 12.3513C13.672 12.3311 14.6091 12.0233 15.3821 11.4716C16.1552 10.9199 16.7251 10.1521 17.0111 9.2771C17.2971 8.40209 17.2847 7.46417 16.9756 6.5962C16.6665 5.72823 16.0765 4.97421 15.289 4.44096C14.5016 3.9077 13.5567 3.62224 12.5881 3.625ZM24.3418 7.42969C22.1015 3.29648 17.6664 0.5 12.5881 0.5C7.50978 0.5 3.07343 3.29844 0.834386 7.43008C0.739884 7.60684 0.690647 7.80213 0.690647 8.0002C0.690647 8.19826 0.739884 8.39355 0.834386 8.57031C3.07466 12.7035 7.50978 15.5 12.5881 15.5C17.6664 15.5 22.1028 12.7016 24.3418 8.56992C24.4363 8.39316 24.4856 8.19787 24.4856 7.9998C24.4856 7.80174 24.4363 7.60645 24.3418 7.42969ZM12.5881 13.625C8.5128 13.625 4.77667 11.4766 2.75905 8C4.77667 4.52344 8.51239 2.375 12.5881 2.375C16.6638 2.375 20.3995 4.52344 22.4172 8C20.4 11.4766 16.6638 13.625 12.5881 13.625Z"/>
</svg>
