<svg width="38" height="24" viewBox="0 0 38 24" fill="none" xmlns="http://www.w3.org/2000/svg">
<path d="M37.8894 2.14049C37.8894 2.38451 37.6915 2.58233 37.4479 2.58233H0.530776C0.286756 2.58233 0.0893555 2.38451 0.0893555 2.14049V0.550788C0.0893555 0.306768 0.287176 0.108948 0.530776 0.108948H37.4475C37.6915 0.108948 37.8889 0.306768 37.8889 0.550788V2.14049H37.8894ZM33.4731 7.61645C33.4731 7.37243 33.2752 7.17503 33.0316 7.17503H4.94666C4.70264 7.17503 4.50524 7.37285 4.50524 7.61645V9.20615C4.50524 9.45017 4.70306 9.64757 4.94666 9.64757H33.0316C33.2757 9.64757 33.4731 9.44975 33.4731 9.20615V7.61645ZM29.0576 14.6817C29.0576 14.4377 28.8598 14.2403 28.6158 14.2403H9.36254C9.11852 14.2403 8.9207 14.4381 8.9207 14.6817V16.2714C8.9207 16.5154 9.11852 16.7128 9.36254 16.7128H28.6158C28.8598 16.7128 29.0576 16.515 29.0576 16.2714V14.6817ZM24.6417 21.7473C24.6417 21.5033 24.4439 21.3055 24.2003 21.3055H13.7784C13.5344 21.3055 13.337 21.5033 13.337 21.7473V23.337C13.337 23.5811 13.5348 23.7789 13.7784 23.7789H24.1999C24.4439 23.7789 24.6413 23.5811 24.6413 23.337V21.7473H24.6417Z" fill="#EB5757"/>
</svg>