<svg width="36" height="36" viewBox="0 0 36 36" fill="none" xmlns="http://www.w3.org/2000/svg">
<path d="M35.5589 33.4723L25.3563 23.1905C27.3068 20.7889 28.5071 17.6368 28.5071 14.2595C28.5071 6.37925 22.1305 0 14.2535 0C6.37659 0 0 6.37925 0 14.2595C0 22.1398 6.37659 28.519 14.2535 28.519C17.6294 28.519 20.7802 27.3182 23.1808 25.3669L33.3833 35.5737C34.0585 36.2492 35.0337 36.024 35.4838 35.5737C36.159 34.9733 36.159 34.0727 35.5589 33.4723ZM3.00075 14.2595C3.00075 8.03035 8.027 3.002 14.2535 3.002C20.4801 3.002 25.5063 8.03035 25.5063 14.2595C25.5063 20.4887 20.4801 25.517 14.2535 25.517C8.027 25.517 3.00075 20.4887 3.00075 14.2595Z" fill="#DAB679"/>
</svg>