<svg width="21" height="21" viewBox="0 0 21 21" fill="none" xmlns="http://www.w3.org/2000/svg">
<path d="M13.3959 7.60346C15.8465 10.0566 15.8128 13.9895 13.4107 16.405C13.4062 16.4099 13.4008 16.4153 13.3959 16.4202L10.6397 19.1764C8.20867 21.6074 4.25357 21.6071 1.82294 19.1764C-0.608054 16.7458 -0.608054 12.7903 1.82294 10.3597L3.34487 8.83779C3.74846 8.43419 4.44351 8.70244 4.46435 9.2728C4.49093 9.99968 4.62128 10.73 4.86179 11.4352C4.94325 11.674 4.88505 11.9381 4.70663 12.1165L4.16986 12.6533C3.02035 13.8028 2.9843 15.6745 4.12248 16.8353C5.27191 18.0074 7.16117 18.0144 8.31941 16.8562L11.0757 14.1003C12.2319 12.9441 12.2271 11.0751 11.0757 9.92372C10.9239 9.77221 10.771 9.65449 10.6515 9.57225C10.567 9.51423 10.4973 9.43726 10.4478 9.34749C10.3983 9.25772 10.3705 9.15763 10.3666 9.05521C10.3503 8.6218 10.5039 8.17518 10.8464 7.8327L11.7099 6.96911C11.9364 6.74267 12.2916 6.71486 12.5542 6.89812C12.8549 7.1081 13.1366 7.34412 13.3959 7.60346ZM19.1765 1.82264C16.7458 -0.608032 12.7907 -0.60836 10.3597 1.82264L7.60348 4.57889C7.59856 4.58381 7.59323 4.58914 7.58872 4.59406C5.18659 7.00956 5.15292 10.9425 7.60348 13.3956C7.86281 13.6549 8.14446 13.8909 8.44516 14.1009C8.70775 14.2842 9.06302 14.2563 9.28943 14.0299L10.153 13.1663C10.4955 12.8239 10.649 12.3772 10.6328 11.9438C10.6288 11.8414 10.601 11.7413 10.5516 11.6515C10.5021 11.5618 10.4323 11.4848 10.3478 11.4268C10.2284 11.3445 10.0755 11.2268 9.92369 11.0753C8.77226 9.92388 8.76742 8.05496 9.92369 6.89869L12.6799 4.14285C13.8382 2.98461 15.7274 2.99158 16.8769 4.16377C18.0151 5.32451 17.979 7.19622 16.8295 8.34572L16.2927 8.88249C16.1143 9.06091 16.0561 9.32505 16.1376 9.56385C16.3781 10.2691 16.5084 10.9994 16.535 11.7262C16.5559 12.2966 17.2509 12.5648 17.6545 12.1612L19.1764 10.6393C21.6074 8.20877 21.6074 4.25322 19.1765 1.82264Z"/>
</svg>
