<svg width="36" height="26" viewBox="0 0 36 26" fill="none" xmlns="http://www.w3.org/2000/svg">
<path d="M12.4626 21.75C12.1468 21.7489 11.8432 21.6283 11.6126 21.4125C10.4711 20.3288 9.56214 19.0241 8.94098 17.5778C8.31981 16.1316 7.99948 14.574 7.99948 13C7.99948 11.426 8.31981 9.86846 8.94098 8.42221C9.56214 6.97596 10.4711 5.67125 11.6126 4.58751C11.8586 4.38805 12.1711 4.28939 12.487 4.31146C12.803 4.33353 13.0987 4.47469 13.3146 4.70642C13.5304 4.93814 13.6503 5.24316 13.6499 5.55985C13.6496 5.87653 13.529 6.18128 13.3126 6.41251C12.4241 7.26422 11.717 8.28689 11.234 9.41898C10.7509 10.5511 10.5019 11.7692 10.5019 13C10.5019 14.2308 10.7509 15.449 11.234 16.581C11.717 17.7131 12.4241 18.7358 13.3126 19.5875C13.4954 19.7586 13.6226 19.9807 13.6777 20.2249C13.7328 20.4691 13.7133 20.7243 13.6217 20.9573C13.5301 21.1903 13.3706 21.3904 13.164 21.5318C12.9573 21.6731 12.713 21.7491 12.4626 21.75ZM7.46263 25.1C7.69544 24.8658 7.82612 24.549 7.82612 24.2188C7.82612 23.8885 7.69544 23.5717 7.46263 23.3375C6.06418 22.0033 4.95097 20.3993 4.19038 18.6224C3.42978 16.8455 3.03762 14.9328 3.03762 13C3.03762 11.0672 3.42978 9.15449 4.19038 7.37763C4.95097 5.60077 6.06418 3.9967 7.46263 2.66251C7.70464 2.42879 7.84389 2.1085 7.84975 1.77211C7.85561 1.43571 7.7276 1.11077 7.49388 0.868761C7.26016 0.626751 6.93987 0.487499 6.60347 0.481638C6.26708 0.475778 5.94214 0.603788 5.70013 0.83751C4.05353 2.40651 2.74268 4.29353 1.847 6.38418C0.951333 8.47483 0.489502 10.7256 0.489502 13C0.489502 15.2744 0.951333 17.5252 1.847 19.6158C2.74268 21.7065 4.05353 23.5935 5.70013 25.1625C5.82041 25.2757 5.96192 25.3639 6.11649 25.422C6.27105 25.4802 6.43561 25.5071 6.60066 25.5013C6.7657 25.4955 6.92796 25.4571 7.07805 25.3882C7.22815 25.3193 7.36311 25.2214 7.47513 25.1H7.46263ZM24.3751 21.4125C25.5166 20.3288 26.4256 19.0241 27.0468 17.5778C27.6679 16.1316 27.9883 14.574 27.9883 13C27.9883 11.426 27.6679 9.86846 27.0468 8.42221C26.4256 6.97596 25.5166 5.67125 24.3751 4.58751C24.2553 4.47507 24.1145 4.38733 23.9608 4.3293C23.807 4.27127 23.6433 4.24409 23.4791 4.24932C23.3149 4.25454 23.1533 4.29206 23.0035 4.35974C22.8538 4.42742 22.7188 4.52393 22.6064 4.64376C22.4939 4.76359 22.4062 4.9044 22.3482 5.05814C22.2901 5.21188 22.263 5.37554 22.2682 5.53978C22.2734 5.70403 22.3109 5.86563 22.3786 6.01538C22.4463 6.16512 22.5428 6.30007 22.6626 6.41251C23.556 7.26144 24.2673 8.28321 24.7534 9.41567C25.2395 10.5481 25.4901 11.7676 25.4901 13C25.4901 14.2324 25.2395 15.4519 24.7534 16.5843C24.2673 17.7168 23.556 18.7386 22.6626 19.5875C22.4213 19.8133 22.2793 20.1256 22.2676 20.4559C22.2559 20.7862 22.3754 21.1076 22.6001 21.35C22.7181 21.4772 22.8613 21.5785 23.0205 21.6474C23.1798 21.7162 23.3516 21.7512 23.5251 21.75C23.8409 21.7489 24.1446 21.6283 24.3751 21.4125ZM30.2751 25.1625C31.9265 23.5963 33.2417 21.7102 34.1404 19.6192C35.0392 17.5282 35.5027 15.276 35.5027 13C35.5027 10.724 35.0392 8.47187 34.1404 6.38084C33.2417 4.28981 31.9265 2.40371 30.2751 0.83751C30.0291 0.63805 29.7166 0.539389 29.4007 0.561461C29.0848 0.583532 28.789 0.72469 28.5732 0.956416C28.3573 1.18814 28.2375 1.49316 28.2378 1.80985C28.2382 2.12653 28.3587 2.43128 28.5751 2.66251C29.9736 3.9967 31.0868 5.60077 31.8474 7.37763C32.608 9.15449 33.0001 11.0672 33.0001 13C33.0001 14.9328 32.608 16.8455 31.8474 18.6224C31.0868 20.3993 29.9736 22.0033 28.5751 23.3375C28.3338 23.5633 28.1918 23.8756 28.1801 24.2059C28.1684 24.5362 28.2879 24.8576 28.5126 25.1C28.6292 25.2257 28.7703 25.326 28.9273 25.3949C29.0843 25.4637 29.2537 25.4995 29.4251 25.5C29.7409 25.4989 30.0446 25.3783 30.2751 25.1625ZM20.5001 13C20.5001 12.5056 20.3535 12.0222 20.0788 11.6111C19.8041 11.2 19.4137 10.8795 18.9568 10.6903C18.5 10.5011 17.9974 10.4516 17.5124 10.548C17.0275 10.6445 16.582 10.8826 16.2324 11.2322C15.8827 11.5819 15.6446 12.0273 15.5482 12.5123C15.4517 12.9972 15.5012 13.4999 15.6904 13.9567C15.8796 14.4135 16.2001 14.804 16.6112 15.0787C17.0223 15.3534 17.5057 15.5 18.0001 15.5C18.6632 15.5 19.2991 15.2366 19.7679 14.7678C20.2367 14.2989 20.5001 13.6631 20.5001 13Z" fill="#3EC293"/>
</svg>
