<svg width="61" height="49" viewBox="0 0 61 49" fill="none" xmlns="http://www.w3.org/2000/svg">
<path d="M59.5282 44.3038C59.0853 44.1097 58.5957 44.0482 58.1185 44.1266L51.3003 0H9.34508L3.00569 44.0911C2.52691 43.984 2.0271 44.021 1.56935 44.1975C1.03467 44.4059 0.589509 44.7942 0.310635 45.2954C0.0317617 45.7967 -0.0633429 46.3795 0.0417224 46.9434C0.146788 47.5072 0.445437 48.0168 0.886167 48.3841C1.3269 48.7515 1.88208 48.9536 2.45598 48.9557C2.93384 48.9561 3.40144 48.8171 3.80145 48.5558C4.20146 48.2946 4.51652 47.9224 4.70801 47.4848C4.96478 46.9075 4.98718 46.2532 4.77049 45.6597C4.55381 45.0663 4.11497 44.5801 3.54653 44.3038L19.9669 18.7139L29.7198 35.2304H29.6311C29.0926 35.4345 28.643 35.8212 28.3608 36.323C28.0786 36.8248 27.9819 37.4097 28.0876 37.9755C28.1932 38.5413 28.4945 39.0521 28.9387 39.4184C29.3829 39.7848 29.9418 39.9835 30.5177 39.9797C30.8203 39.9784 31.1203 39.9244 31.4044 39.8203C31.7067 39.7037 31.9829 39.5285 32.2171 39.3048C32.4514 39.0811 32.639 38.8133 32.7692 38.5167C32.8995 38.2202 32.9697 37.9009 32.9759 37.5772C32.982 37.2534 32.9241 36.9316 32.8053 36.6304C32.6914 36.3292 32.5182 36.054 32.2958 35.8211C32.0734 35.5882 31.8065 35.4024 31.5108 35.2747L31.3157 35.2127L41.042 18.519L57.5776 44.3038C57.0758 44.5363 56.6667 44.9308 56.4164 45.4238C56.166 45.9168 56.0889 46.4796 56.1974 47.0217C56.3059 47.5638 56.5937 48.0537 57.0145 48.4125C57.4353 48.7713 57.9647 48.9783 58.5175 49C58.8207 48.9973 59.121 48.9403 59.4041 48.8316C59.7062 48.7148 59.9822 48.5397 60.2165 48.3162C60.4508 48.0927 60.6387 47.8252 60.7695 47.5291C61.0275 46.9363 61.0419 46.2658 60.8097 45.6624C60.5775 45.0591 60.1172 44.5711 59.5282 44.3038ZM49.9792 1.04557L40.9977 16.5608L31.032 1.03671L49.9792 1.04557ZM20.0023 16.7734L10.6396 1.01899H30.1454L20.0023 16.7734ZM3.04115 45.1899C3.21507 45.2649 3.37232 45.3737 3.50373 45.51C3.63515 45.6463 3.7381 45.8074 3.80659 45.9839C3.87508 46.1604 3.90774 46.3487 3.90267 46.538C3.8976 46.7272 3.8549 46.9135 3.77705 47.0861C3.70357 47.2614 3.59596 47.4205 3.46047 47.5539C3.32498 47.6874 3.1643 47.7926 2.98778 47.8635C2.81126 47.9344 2.6224 47.9696 2.43218 47.9669C2.24195 47.9643 2.05415 47.9239 1.87967 47.8481C1.53107 47.692 1.2574 47.4058 1.11717 47.0506C1.04857 46.8744 1.01549 46.6863 1.01983 46.4973C1.02418 46.3082 1.06586 46.1219 1.14248 45.949C1.2191 45.7761 1.32915 45.62 1.46632 45.4897C1.60348 45.3595 1.76504 45.2576 1.94173 45.1899C2.10493 45.1234 2.27977 45.0903 2.45598 45.0924C2.5915 45.0907 2.72636 45.1117 2.85496 45.1544V45.3671L2.94362 45.1899H3.04115ZM4.49522 40.8481L10.081 2.01139L19.3906 17.7215L4.49522 40.8481ZM30.0744 3.02152V33.7418L20.5875 17.7215L30.0744 3.02152ZM31.9186 37.0291C32.0547 37.3852 32.0444 37.7807 31.89 38.1293C31.7355 38.4778 31.4494 38.7513 31.0941 38.8899C30.7526 38.981 30.3895 38.9431 30.0743 38.7834C29.7591 38.6238 29.5138 38.3536 29.3854 38.0246C29.257 37.6955 29.2545 37.3307 29.3783 36.9999C29.5022 36.6692 29.7437 36.3956 30.0567 36.2316C30.4131 36.0956 30.8088 36.1059 31.1576 36.2603C31.5063 36.4147 31.7799 36.7006 31.9186 37.0557V37.0291ZM31.0763 33.6709V2.99494L40.4037 17.5266L31.0763 33.6709ZM41.6183 17.5266L50.5821 2.04684L56.5757 40.8215L41.6183 17.5266ZM59.8563 47.1127C59.7433 47.3747 59.5547 47.5972 59.3147 47.7516C59.0746 47.9061 58.7939 47.9855 58.5084 47.9798C58.223 47.9741 57.9457 47.8835 57.712 47.7196C57.4783 47.5557 57.2988 47.3259 57.1964 47.0595C57.057 46.7034 57.0647 46.3067 57.2176 45.9562C57.3705 45.6057 57.6562 45.3302 58.0121 45.1899H58.1451L58.3224 45.4646L58.2692 45.1544C58.5273 45.104 58.7943 45.1254 59.041 45.2163C59.2878 45.3071 59.5049 45.4639 59.6686 45.6696C59.8323 45.8752 59.9364 46.1219 59.9695 46.3826C60.0026 46.6433 59.9634 46.9081 59.8563 47.1481V47.1127Z" fill="#DAB679"/>
</svg>
