<svg width="100" height="55" viewBox="0 0 100 55" fill="none" xmlns="http://www.w3.org/2000/svg">
<path d="M77.1998 17.1C76.0998 17.9 74.7998 18.4 73.2998 18.4C69.8998 18.4 67.1998 15.7 67.1998 12.4C67.1998 9.1 69.9998 6.4 73.2998 6.4C74.7998 6.4 76.0998 6.9 77.1998 7.7L78.4998 6.4C77.0998 5.2 75.2998 4.5 73.2998 4.5C68.8998 4.5 65.2998 8 65.2998 12.3C65.2998 16.6 68.8998 20.1 73.2998 20.1C75.2998 20.1 77.0998 19.4 78.4998 18.2L77.1998 17.1Z" fill="white"/>
<path d="M53.5999 30.9C54.1999 30.9 54.7999 30.4 54.7999 29.7C54.7999 29 54.2999 28.5 53.5999 28.5C52.9999 28.5 52.3999 29 52.3999 29.7C52.3999 30.4 52.8999 30.9 53.5999 30.9Z" fill="#EA5254"/>
<path d="M54.4997 33.1H52.6997V48.7H54.4997V33.1Z" fill="#EA5254"/>
<path d="M15.1001 12.4C15.1001 8.1 11.7001 4.7 7.6001 4.7C5.4001 4.7 3.3001 5.7 1.9001 7.4V4.7H0.100098V25.9H1.9001V17.6C3.3001 19.3 5.4001 20.3 7.6001 20.3C11.7001 20.2 15.1001 16.7 15.1001 12.4ZM7.5001 18.4C4.4001 18.4 1.9001 15.9 1.8001 12.7V12.5C1.8001 9.2 4.4001 6.6 7.5001 6.6C10.6001 6.6 13.2001 9.3 13.2001 12.5C13.2001 15.7 10.7001 18.4 7.5001 18.4Z" fill="white"/>
<path d="M21.8999 48.7C24.0999 48.7 26.1999 47.7 27.5999 46V48.7H29.3999V33.1H27.5999V35.8C26.1999 34.1 24.0999 33.1 21.8999 33.1C17.7999 33.1 14.3999 36.6 14.3999 40.8C14.3999 45.2 17.7999 48.7 21.8999 48.7ZM16.1999 40.9C16.1999 37.6 18.7999 35 21.8999 35C24.9999 35 27.5999 37.7 27.5999 40.9V41.1C27.4999 44.3 24.9999 46.8 21.8999 46.8C18.7999 46.9 16.1999 44.2 16.1999 40.9Z" fill="#EA5254"/>
<path d="M49.2998 40.9C49.2998 36.6 45.8998 33.2 41.7998 33.2C39.5998 33.2 37.4998 34.2 36.0998 35.9V33.2H34.2998V54.4H36.0998V46.1C37.4998 47.8 39.5998 48.8 41.7998 48.8C45.8998 48.7 49.2998 45.2 49.2998 40.9ZM41.7998 46.9C38.6998 46.9 36.1998 44.4 36.0998 41.2V41C36.0998 37.7 38.6998 35.1 41.7998 35.1C44.8998 35.1 47.4998 37.8 47.4998 41C47.4998 44.2 44.8998 46.9 41.7998 46.9Z" fill="#EA5254"/>
<path d="M28.7999 4.6V13.8C28.7999 16.3 26.7999 18.3 24.1999 18.4C21.6999 18.4 19.6999 16.4 19.6999 13.8V4.6H17.8999V13.8C17.8999 17.3 20.6999 20.2 24.1999 20.2C27.6999 20.2 30.5999 17.3 30.5999 13.8V4.6H28.7999Z" fill="white"/>
<path d="M41.7998 4.6C39.5998 4.6 37.4998 5.6 36.0998 7.3V0H34.2998V20.2H36.0998V17.5C37.4998 19.2 39.5998 20.2 41.7998 20.2C45.8998 20.2 49.2998 16.7 49.2998 12.5C49.2998 8.1 45.8998 4.6 41.7998 4.6ZM47.4998 12.5C47.4998 15.8 44.8998 18.4 41.7998 18.4C38.6998 18.4 36.0998 15.7 36.0998 12.5V12.3C36.1998 9.1 38.6998 6.6 41.7998 6.6C44.8998 6.5 47.4998 9.2 47.4998 12.5Z" fill="white"/>
<path d="M60.8001 2.4C61.4001 2.4 62.0001 1.9 62.0001 1.2C62.0001 0.5 61.5001 0 60.8001 0C60.2001 0 59.6001 0.5 59.6001 1.2C59.6001 1.9 60.1001 2.4 60.8001 2.4Z" fill="white"/>
<path d="M61.6999 4.6H59.8999V20.2H61.6999V4.6Z" fill="white"/>
<path d="M83.7 2.4C84.3 2.4 84.9 1.9 84.9 1.2C84.9 0.5 84.4 0 83.7 0C83.1 0 82.5 0.5 82.5 1.2C82.5 1.9 83 2.4 83.7 2.4Z" fill="white"/>
<path d="M84.5998 4.6H82.7998V20.2H84.5998V4.6Z" fill="white"/>
<path d="M83.5001 33.1C81.8001 33.1 80.1001 33.8 78.9001 35.1V33.1H77.1001V48.7H78.9001V39.5C79.0001 37 81.0001 35 83.5001 35C86.0001 35 88.0001 37 88.0001 39.5V48.7H89.8001V39.5C89.9001 36 87.0001 33.1 83.5001 33.1Z" fill="#EA5254"/>
<path d="M99.4001 46.9H99.2001C99.0001 46.9 98.7001 47 98.3001 47C97.6001 47 97.2001 46.5 97.2001 45.4V34.8H99.4001V33H97.2001V27.8H95.3001V33H93.1001V34.8H95.3001V45.5C95.3001 46.7 95.5001 47.4 96.0001 47.9C96.4001 48.4 97.1001 48.6 97.8001 48.6C98.4001 48.6 98.9001 48.5 99.3001 48.4H99.4001V46.9Z" fill="#EA5254"/>
<path d="M70.6998 44.2C69.6998 45.9 67.8998 46.9 65.8998 46.9C62.8998 46.9 60.3998 44.5 60.1998 41.4H72.4998C72.9998 41.4 73.3998 41 73.3998 40.6V40.5C73.0998 36.4 69.8998 33.3 65.8998 33.3C61.6998 33.3 58.2998 36.8 58.2998 41.1C58.2998 45.4 61.6998 48.8 65.8998 48.8C68.3998 48.8 70.7998 47.5 72.1998 45.3L70.6998 44.2ZM65.9998 35C68.6998 35 70.9998 36.9 71.4998 39.6H60.2998C60.9998 36.9 63.1998 35 65.9998 35Z" fill="#EA5254"/>
<path d="M10.2 41.2C10.2 41.2 9.7 40.8 9.2 40.6C8.7 40.4 8 40.1 6.4 39.8C6.2 39.7 6 39.7 5.8 39.7C4.8 39.4 4 39.1 3.4 38.7C2.8 38.2 2.6 37.8 2.6 37.3C2.6 36.7 3 36.2 3.6 35.7C4.3 35.2 5.3 34.9 6.4 35C7.7 35.1 8.7 35.7 9.7 36.5L9.8 36.6L11.1 35.4C10.9 35.2 10.9 35.2 10.5 34.9C9.5 34.2 8.2 33.4 6.4 33.4C4.9 33.3 3.6 33.6 2.5 34.3C1.4 35.1 0.7 36.2 0.7 37.3C0.7 38.2 0.9 39 1.7 39.8C2.7 40.8 4.4 41.3 5.8 41.6C7.1 41.8 8.2 42.3 8.8 42.8C9.5 43.4 9.8 43.9 9.8 44.6C9.8 45.2 9.3 45.9 8.6 46.3C7.9 46.8 6.8 47.1 5.8 47.1C4.4 47 2.9 46.4 1.4 45.3L1.3 45.2L0 46.4L0.1 46.5C1.8 48 3.7 48.8 5.7 48.9C7.2 49 8.5 48.6 9.6 47.8C10.8 47 11.5 45.9 11.5 44.7C11.9 43.2 11.2 42 10.2 41.2Z" fill="#EA5254"/>
<path d="M98.2 12.7C98.2 12.7 97.7 12.3 97.2 12.1C96.7 11.9 96 11.6 94.4 11.3C94.2 11.2 94 11.2 93.8 11.2C92.8 10.9 92 10.6 91.4 10.2C90.8 9.7 90.6 9.3 90.6 8.8C90.6 8.2 91 7.7 91.6 7.2C92.3 6.7 93.3 6.4 94.4 6.5C95.7 6.6 96.7 7.2 97.7 8L97.8 8.1L99.1 6.9C98.9 6.7 98.9 6.7 98.5 6.4C97.5 5.7 96.2 4.9 94.4 4.9C92.9 4.8 91.6 5.1 90.5 5.8C89.4 6.6 88.7 7.7 88.7 8.8C88.7 9.7 88.9 10.5 89.7 11.3C90.7 12.3 92.4 12.8 93.8 13.1C95.1 13.3 96.2 13.8 96.8 14.3C97.5 14.9 97.8 15.4 97.8 16.1C97.8 16.7 97.3 17.4 96.6 17.8C95.9 18.3 94.8 18.6 93.8 18.6C92.4 18.5 90.9 17.9 89.4 16.8L89.3 16.7L88 17.9L88.1 18C89.8 19.5 91.7 20.3 93.7 20.4C95.2 20.5 96.5 20.1 97.6 19.3C98.8 18.5 99.5 17.4 99.5 16.2C99.9 14.7 99.3 13.5 98.2 12.7Z" fill="white"/>
<path d="M54.5002 0.1H52.7002V20.2H54.5002V0.1Z" fill="white"/>
</svg>