<svg width="63" height="94" viewBox="0 0 63 94" fill="none" xmlns="http://www.w3.org/2000/svg">
<path d="M63 45.8257C62.9901 39.2122 60.7617 32.7807 56.6502 27.499C52.5387 22.2173 46.7664 18.3712 40.2021 16.5395C41.4496 16.2599 42.581 15.6222 43.448 14.71C44.3151 13.7978 44.8776 12.6534 45.0618 11.4266C45.2558 10.113 44.9035 8.77858 44.0821 7.71622C43.2608 6.65387 42.0375 5.95045 40.6809 5.76036C39.5743 5.6081 38.4505 5.88669 37.5556 6.5351C36.6608 7.18351 36.0679 8.14886 35.907 9.21964C35.7871 10.0183 35.971 10.8318 36.4246 11.5089C36.8782 12.186 37.5704 12.6805 38.3726 12.9003C38.5556 13.0241 38.7661 13.1047 38.9872 13.1355C39.2668 13.1737 39.5518 13.1307 39.8062 13.0122C40.0607 12.8937 40.2732 12.7049 40.4169 12.4696C40.5606 12.2343 40.6291 11.963 40.6137 11.6901C40.5984 11.4171 40.4998 11.1547 40.3306 10.9359C40.1613 10.7171 39.9289 10.5517 39.6627 10.4607C39.3964 10.3696 39.1083 10.3569 38.8346 10.4242C38.5609 10.4915 38.314 10.6358 38.1249 10.8388C37.9358 11.0418 37.8131 11.2945 37.7722 11.565C37.7654 11.6202 37.7654 11.6759 37.7722 11.7311C37.566 11.5901 37.3829 11.4199 37.2291 11.226C37.0209 10.9588 36.8695 10.6543 36.7836 10.3301C36.6978 10.0059 36.6791 9.66846 36.7288 9.33725C36.8631 8.47828 37.3425 7.70544 38.0627 7.1871C38.7828 6.66876 39.6854 6.4469 40.5737 6.56983C41.7136 6.72909 42.7415 7.31989 43.4316 8.21242C44.1217 9.10494 44.4176 10.2262 44.2543 11.3298C44.1518 12.027 43.9083 12.6978 43.5377 13.3037C43.167 13.9097 42.6766 14.4389 42.0944 14.8611C41.5122 15.2833 40.8497 15.5902 40.1449 15.7643C39.44 15.9383 38.7066 15.976 37.9866 15.8753C37.0667 15.7516 36.1813 15.4526 35.3815 14.9956C34.5818 14.5385 33.8835 13.9325 33.3273 13.2125C32.771 12.4926 32.3677 11.673 32.1407 10.8012C31.9137 9.92935 31.8676 9.02262 32.0049 8.13342C32.3185 6.02781 33.4304 4.11057 35.124 2.75495C36.8176 1.39933 38.9717 0.702358 41.1669 0.799749L41.2026 0.0110345C39.0577 -0.0900788 36.9395 0.506013 35.1848 1.70449C33.4301 2.90298 32.1397 4.63503 31.5189 6.62518C30.8948 4.63696 29.6036 2.90698 27.8497 1.70903C26.0958 0.511084 23.9793 -0.0864338 21.8351 0.0110345L21.8709 0.799749C24.0673 0.697606 26.2239 1.39284 27.9186 2.74932C29.6133 4.1058 30.7239 6.02582 31.0329 8.13342C31.2984 9.91775 30.8213 11.7311 29.7063 13.1751C28.5914 14.619 26.9298 15.5753 25.0869 15.8338C24.3669 15.9345 23.6335 15.8968 22.9287 15.7228C22.2238 15.5487 21.5613 15.2418 20.9791 14.8196C20.3969 14.3974 19.9065 13.8681 19.5359 13.2622C19.1653 12.6562 18.9217 11.9855 18.8193 11.2883C18.7374 10.7417 18.7677 10.1848 18.9085 9.64963C19.0493 9.11441 19.2977 8.61133 19.6396 8.16919C19.9814 7.72704 20.4101 7.35451 20.9009 7.07295C21.3917 6.79139 21.935 6.60631 22.4998 6.52831C23.3885 6.4035 24.292 6.62465 25.0126 7.14332C25.7332 7.662 26.2122 8.43594 26.3447 9.29573C26.3944 9.62694 26.3758 9.96441 26.2899 10.2886C26.204 10.6128 26.0526 10.9173 25.8444 11.1845C25.6907 11.3784 25.5076 11.5486 25.3013 11.6896C25.3048 11.6343 25.3048 11.5788 25.3013 11.5235C25.2604 11.253 25.1377 11.0003 24.9486 10.7973C24.7595 10.5943 24.5126 10.45 24.2389 10.3827C23.9652 10.3154 23.6771 10.3281 23.4109 10.4192C23.1446 10.5102 22.9122 10.6756 22.7429 10.8944C22.5737 11.1132 22.4751 11.3756 22.4598 11.6486C22.4444 11.9215 22.5129 12.1928 22.6566 12.4281C22.8004 12.6634 23.0128 12.8522 23.2673 12.9707C23.5217 13.0892 23.8067 13.1321 24.0864 13.094C24.3058 13.0653 24.5144 12.9845 24.6938 12.8588C25.4951 12.648 26.1902 12.163 26.6502 11.4938C27.1102 10.8246 27.3038 10.0166 27.1952 9.21964C27.0342 8.14886 26.4413 7.18351 25.5465 6.5351C24.6516 5.88669 23.5278 5.6081 22.4212 5.76036C21.0646 5.95045 19.8413 6.65387 19.02 7.71622C18.1986 8.77858 17.8463 10.113 18.0403 11.4266C18.223 12.6485 18.7805 13.7892 19.6406 14.7007C20.5007 15.6123 21.6238 16.2529 22.8643 16.5395C16.2804 18.3474 10.4855 22.1853 6.35905 27.4707C2.23263 32.7562 0 39.2005 0 45.8257C0 52.4509 2.23263 58.8952 6.35905 64.1806C10.4855 69.4661 16.2804 73.304 22.8643 75.1119C22.0134 75.3074 21.2131 75.67 20.513 76.1774C19.8438 76.6598 19.28 77.2659 18.8544 77.9606C18.4287 78.6553 18.1496 79.4249 18.0331 80.2247C17.8391 81.5384 18.1915 82.8728 19.0128 83.9352C19.8342 84.9975 21.0574 85.701 22.414 85.891C23.5207 86.0433 24.6445 85.7647 25.5393 85.1163C26.4342 84.4679 27.027 83.5025 27.188 82.4318C27.3038 81.6308 27.1155 80.8163 26.6582 80.1395C26.2008 79.4626 25.5054 78.9693 24.701 78.7511C24.5218 78.6358 24.3198 78.558 24.1078 78.5228C23.7287 78.4705 23.3437 78.5661 23.0374 78.7886C22.7312 79.0111 22.5288 79.3423 22.4748 79.7093C22.4208 80.0763 22.5195 80.449 22.7494 80.7455C22.9792 81.042 23.3213 81.2379 23.7004 81.2902C23.8868 81.3166 24.0767 81.3071 24.2593 81.2622C24.4418 81.2173 24.6134 81.1379 24.7642 81.0286C24.9149 80.9193 25.0419 80.7822 25.1377 80.6253C25.2336 80.4683 25.2965 80.2946 25.3227 80.114C25.3263 80.0541 25.3263 79.9941 25.3227 79.9342C25.705 80.2053 26.0039 80.5719 26.1877 80.9947C26.3715 81.4175 26.4332 81.8808 26.3661 82.3349C26.2319 83.1939 25.7525 83.9667 25.0323 84.485C24.3122 85.0034 23.4096 85.2252 22.5212 85.1023C21.9564 85.0243 21.4131 84.8392 20.9223 84.5577C20.4315 84.2761 20.0029 83.9036 19.661 83.4614C19.3191 83.0193 19.0707 82.5162 18.9299 81.981C18.7892 81.4458 18.7588 80.8889 18.8407 80.3423C18.9432 79.6452 19.1867 78.9744 19.5573 78.3684C19.9279 77.7625 20.4184 77.2332 21.0006 76.811C21.5827 76.3888 22.2452 76.0819 22.9501 75.9079C23.655 75.7338 24.3884 75.6961 25.1083 75.7969C26.9513 76.0554 28.6128 77.0117 29.7278 78.4556C30.8427 79.8995 31.3199 81.7129 31.0544 83.4972C30.7468 85.6055 29.6367 87.5264 27.9417 88.8832C26.2466 90.24 24.0891 90.9346 21.8923 90.8309L21.8566 91.6265H22.2925C24.3654 91.6319 26.3848 90.99 28.0509 89.7959C29.7169 88.6019 30.9406 86.9195 31.5403 84.9985C32.1381 86.9185 33.3591 88.6008 35.0224 89.7959C36.6856 90.9911 38.7025 91.6354 40.7738 91.6334H41.2098L41.1741 90.8378C38.9777 90.9399 36.821 90.2447 35.1263 88.8882C33.4317 87.5317 32.3211 85.6117 32.012 83.5041C31.7465 81.7198 32.2236 79.9064 33.3386 78.4625C34.4536 77.0186 36.1151 76.0623 37.958 75.8038C38.678 75.703 39.4114 75.7408 40.1163 75.9148C40.8211 76.0888 41.4836 76.3957 42.0658 76.8179C42.648 77.2402 43.1384 77.7694 43.5091 78.3753C43.8797 78.9813 44.1232 79.6521 44.2257 80.3493C44.3075 80.8959 44.2772 81.4527 44.1364 81.9879C43.9957 82.5231 43.7473 83.0262 43.4054 83.4684C43.0635 83.9105 42.6349 84.283 42.1441 84.5646C41.6533 84.8462 41.1099 85.0312 40.5451 85.1092C39.6565 85.234 38.7529 85.0129 38.0323 84.4942C37.3117 83.9756 36.8327 83.2016 36.7002 82.3418C36.6332 81.8877 36.6949 81.4245 36.8787 81.0016C37.0624 80.5788 37.3614 80.2122 37.7436 79.9411C37.7365 80.0008 37.7365 80.0612 37.7436 80.1209C37.7859 80.3909 37.9096 80.6427 38.0993 80.8447C38.2891 81.0467 38.5363 81.1899 38.8099 81.2562C39.0835 81.3225 39.3712 81.3089 39.6368 81.2172C39.9025 81.1255 40.1342 80.9598 40.3028 80.741C40.4713 80.5221 40.5693 80.2598 40.5842 79.9872C40.5992 79.7146 40.5305 79.4437 40.3868 79.2088C40.2431 78.9739 40.0308 78.7854 39.7766 78.667C39.5225 78.5486 39.2379 78.5056 38.9586 78.5435C38.7462 78.5776 38.5439 78.6554 38.3654 78.7718C37.561 78.9901 36.8656 79.4834 36.4082 80.1602C35.9509 80.8371 35.7626 81.6515 35.8784 82.4525C36.0394 83.5233 36.6322 84.4886 37.527 85.137C38.4219 85.7855 39.5457 86.0641 40.6523 85.9118C41.3287 85.8211 41.9798 85.6016 42.5682 85.2662C43.1565 84.9307 43.6704 84.4858 44.0803 83.9571C44.4902 83.4285 44.788 82.8265 44.9565 82.1859C45.1249 81.5453 45.1607 80.8788 45.0618 80.2247C44.88 79.0004 44.321 77.8575 43.4579 76.9454C42.5947 76.0333 41.4676 75.3943 40.2235 75.1119C46.7845 73.2774 52.5526 69.43 56.6602 64.1484C60.7678 58.8668 62.9926 52.4368 63 45.8257ZM30.3611 13.6683C30.8646 13.0214 31.2557 12.2993 31.5189 11.5304C31.7827 12.2977 32.1711 13.0194 32.6695 13.6683C33.2327 14.3898 33.9221 15.0103 34.7063 15.5017C32.5846 15.2895 30.446 15.2895 28.3243 15.5017C29.1116 15.014 29.8015 14.3929 30.3611 13.6683ZM32.6695 78.0108C32.177 78.6406 31.7888 79.3409 31.5189 80.0864C31.2494 79.3393 30.8585 78.6387 30.3611 78.0108C29.8015 77.2861 29.1116 76.6651 28.3243 76.1774C30.446 76.3896 32.5846 76.3896 34.7063 76.1774C33.9221 76.6688 33.2327 77.2893 32.6695 78.0108ZM31.5189 75.5409C25.4581 75.534 19.5354 73.7884 14.499 70.5244C9.46259 67.2604 5.53846 62.6246 3.22237 57.2026C0.906273 51.7806 0.30213 45.8157 1.48626 40.0614C2.67039 34.3072 5.58967 29.0218 9.87529 24.873C14.1609 20.7241 19.6206 17.898 25.5646 16.7517C31.5085 15.6054 37.6701 16.1902 43.2709 18.4324C48.8717 20.6746 53.6604 24.4734 57.032 29.3491C60.4036 34.2247 62.2068 39.9584 62.2139 45.8257C62.2044 53.7007 58.9663 61.25 53.2109 66.8151C47.4555 72.3803 39.6535 75.5063 31.5189 75.5063V75.5409Z" fill="#000000"/>
<path d="M9.60719 31.2552L8.89252 30.8055C8.26918 31.6957 7.6989 32.6197 7.18447 33.5729L7.89913 33.9396C8.41034 33.0113 8.98079 32.1148 9.60719 31.2552Z" fill="#000000"/>
<path d="M6.64131 36.7485L5.86947 36.4995C5.4829 37.4998 5.156 38.5208 4.89037 39.5575L5.6908 39.7442C5.94236 38.7273 6.25983 37.7268 6.64131 36.7485Z" fill="#000000"/>
<path d="M5.12622 42.7746L4.3258 42.6847C4.20275 43.7275 4.14071 44.7762 4.13998 45.8257V45.8741L4.96185 45.8257C4.9521 44.8064 5.00699 43.7874 5.12622 42.7746Z" fill="#000000"/>
<path d="M4.3258 49.0705C4.46097 50.1305 4.66144 51.1816 4.92612 52.2184L5.75513 52.0316C5.48306 51.0187 5.27541 49.9905 5.13337 48.9529L4.3258 49.0705Z" fill="#000000"/>
<path d="M5.9052 55.2765C6.29864 56.2756 6.75448 57.2506 7.27022 58.1961L7.98489 57.8225C7.48477 56.9063 7.04323 55.9613 6.66275 54.9928L5.9052 55.2765Z" fill="#000000"/>
<path d="M31.4403 20.0956V19.2999C30.3365 19.3008 29.2338 19.3678 28.1385 19.5005L28.2386 20.2893C29.3008 20.1625 30.37 20.0978 31.4403 20.0956Z" fill="#000000"/>
<path d="M37.9938 20.0471C36.9232 19.7921 35.8372 19.6026 34.742 19.4798L34.642 20.2685C35.705 20.3912 36.7597 20.5737 37.8008 20.8151L37.9938 20.0471Z" fill="#000000"/>
<path d="M44.1828 22.2957C43.2042 21.7993 42.1946 21.3626 41.1598 20.988L40.8668 21.7283C41.8687 22.0959 42.8472 22.521 43.7969 23.0013L44.1828 22.2957Z" fill="#000000"/>
<path d="M58.712 42.5325C58.5744 41.4724 58.3716 40.4212 58.1045 39.3845L57.3112 39.5713C57.5677 40.5788 57.7634 41.5998 57.8973 42.6293L58.712 42.5325Z" fill="#000000"/>
<path d="M25.0869 20.8497L24.8868 20.0817C23.8168 20.3394 22.7643 20.6606 21.7351 21.0434L22.0281 21.7837C23.0274 21.4132 24.0488 21.1013 25.0869 20.8497Z" fill="#000000"/>
<path d="M19.1051 23.0636L18.7192 22.3718C17.7438 22.8736 16.8011 23.4327 15.8963 24.0461L16.3679 24.6964C17.2456 24.0993 18.1596 23.5541 19.1051 23.0636Z" fill="#000000"/>
<path d="M8.98542 60.9289C9.61618 61.8034 10.2986 62.642 11.0294 63.4403L11.644 62.9145C10.9346 62.1391 10.2736 61.3236 9.66436 60.4722L8.98542 60.9289Z" fill="#000000"/>
<path d="M49.1497 65.08L49.7 65.675C50.5248 64.9665 51.3052 64.211 52.037 63.4126L51.4224 62.8799C50.712 63.6575 49.953 64.3923 49.1497 65.08Z" fill="#000000"/>
<path d="M47.0129 23.9423L46.5484 24.5996C47.43 25.187 48.2748 25.8246 49.0783 26.5091L49.6214 25.9141C48.795 25.2051 47.9238 24.5466 47.0129 23.9423Z" fill="#000000"/>
<path d="M37.9152 70.8086L38.1153 71.5835C39.1851 71.3282 40.2376 71.0093 41.267 70.6287L40.9811 69.8884C39.9799 70.2566 38.9559 70.5639 37.9152 70.8086Z" fill="#000000"/>
<path d="M13.302 26.0109C12.4772 26.7218 11.6968 27.4796 10.965 28.2802L11.5797 28.806C12.2894 28.0301 13.0459 27.2955 13.8452 26.6059L13.302 26.0109Z" fill="#000000"/>
<path d="M43.8898 68.6085L44.2686 69.3003C45.2533 68.7999 46.2078 68.2456 47.1272 67.6399L46.6556 66.9826C45.7686 67.5784 44.8449 68.1213 43.8898 68.6085Z" fill="#000000"/>
<path d="M51.9655 28.1972L51.3581 28.7299C52.0714 29.5014 52.7349 30.3148 53.3448 31.1653L54.0166 30.7087C53.3857 29.8324 52.7007 28.9937 51.9655 28.1972Z" fill="#000000"/>
<path d="M55.739 33.4138L55.0243 33.7874C55.5238 34.7025 55.9677 35.645 56.3536 36.6102L57.1183 36.3265C56.7187 35.33 56.2581 34.3573 55.739 33.4138Z" fill="#000000"/>
<path d="M53.402 60.4376L54.0738 60.8873C54.7052 60.0008 55.2781 59.0765 55.789 58.1199L55.0743 57.7532C54.5747 58.6806 54.0162 59.5771 53.402 60.4376Z" fill="#000000"/>
<path d="M56.3822 54.9513L57.1469 55.228C57.539 54.2289 57.8684 53.2077 58.1331 52.17L57.3327 51.9832C57.0766 52.9898 56.7592 53.9809 56.3822 54.9513Z" fill="#000000"/>
<path d="M18.8121 69.3349C19.7904 69.829 20.7973 70.268 21.828 70.6494L22.121 69.9022C21.119 69.5347 20.1406 69.1096 19.1909 68.6292L18.8121 69.3349Z" fill="#000000"/>
<path d="M24.9868 71.5973C26.0606 71.8483 27.1488 72.0378 28.2457 72.1646L28.3386 71.3759C27.2778 71.2509 26.2255 71.0661 25.1869 70.8224L24.9868 71.5973Z" fill="#000000"/>
<path d="M13.3735 65.7027C14.1999 66.4117 15.0711 67.0702 15.982 67.6745L16.4465 67.0242C15.5648 66.4344 14.72 65.7945 13.9166 65.1077L13.3735 65.7027Z" fill="#000000"/>
<path d="M58.0974 45.7219V45.8257C58.1059 46.8705 58.0486 47.9148 57.9259 48.9529L58.7477 49.0498C58.8763 47.9889 58.9407 46.9216 58.9407 45.8534V45.7496L58.0974 45.7219Z" fill="#000000"/>
<path d="M31.5475 71.5558V72.3514C32.6488 72.3528 33.7491 72.2881 34.8421 72.1577L34.7492 71.369C33.6868 71.4934 32.6176 71.5558 31.5475 71.5558Z" fill="#000000"/>
<path d="M31.7261 91.2459C31.4468 91.208 31.1622 91.251 30.9081 91.3694C30.6539 91.4878 30.4417 91.6763 30.298 91.9112C30.1543 92.1461 30.0856 92.4169 30.1005 92.6896C30.1155 92.9622 30.2134 93.2245 30.382 93.4434C30.5505 93.6622 30.7822 93.8279 31.0479 93.9196C31.3135 94.0113 31.6013 94.0248 31.8748 93.9586C32.1484 93.8923 32.3957 93.7491 32.5854 93.5471C32.7751 93.3451 32.8989 93.0933 32.9411 92.8234C32.9694 92.6424 32.9603 92.4578 32.9144 92.2803C32.8685 92.1028 32.7867 91.9358 32.6737 91.7891C32.5607 91.6424 32.4188 91.5189 32.2561 91.4256C32.0935 91.3324 31.9133 91.2713 31.7261 91.2459Z" fill="#000000"/>
<path d="M45.5621 48.261V33.3031H19.8341V34.0987H21.9781V58.7565H19.8341V59.5521H30.8971V58.7565H28.7531V48.261H45.5621ZM44.7402 47.4654H28.746V34.0987H44.7402V47.4654ZM22.8285 58.7565V34.0987H27.9098V58.7565H22.8285Z" fill="#000000"/>
</svg>
