<svg width="36" height="36" viewBox="0 0 36 36" fill="none" xmlns="http://www.w3.org/2000/svg">
<path d="M18.0041 35.5319C27.6844 35.5319 35.5318 27.6845 35.5318 18.0042C35.5318 8.32387 27.6844 0.47644 18.0041 0.47644C8.32382 0.47644 0.476395 8.32387 0.476395 18.0042C0.476395 27.6845 8.32382 35.5319 18.0041 35.5319Z" fill="#FDFBF8"/>
<path d="M18.0205 33.6756V32.7557C18.6163 32.7575 19.2116 32.7218 19.8029 32.649L19.9179 33.5853C19.2877 33.6527 18.6542 33.6829 18.0205 33.6756ZM16.1232 33.5689C15.4955 33.4904 14.8729 33.3753 14.2587 33.2239L14.4887 32.3122C15.0646 32.4533 15.649 32.5575 16.2382 32.6243L16.1232 33.5689ZM21.7741 33.2239L21.5441 32.304C22.1219 32.1634 22.6899 31.985 23.2443 31.7701L23.5811 32.6572C22.9898 32.8865 22.3866 33.0839 21.7741 33.2485V33.2239ZM12.4517 32.69C11.858 32.4671 11.2792 32.2064 10.7187 31.9097L11.1622 31.0884C11.6956 31.3627 12.244 31.6068 12.8049 31.8194L12.4517 32.69ZM25.3059 31.8687L24.8706 31.0473C25.3939 30.7692 25.9012 30.4621 26.3901 30.1274L26.924 30.8995C26.4058 31.2664 25.8654 31.6011 25.3059 31.9015V31.8687ZM9.10061 30.9323C8.57611 30.5784 8.07663 30.1887 7.60574 29.766L8.22997 29.0596C8.67596 29.454 9.14496 29.8215 9.63449 30.1602L9.10061 30.9323ZM28.4189 29.7496L27.7864 29.0432C28.2323 28.6466 28.6547 28.2242 29.0513 27.7783L29.7577 28.4108C29.3364 28.8813 28.8895 29.3283 28.4189 29.7496ZM6.24229 28.4272C5.82988 27.9548 5.44591 27.4584 5.0924 26.9405L5.91375 26.3984C6.24992 26.8899 6.61756 27.359 7.01437 27.803L6.24229 28.4272ZM30.8829 26.9159L30.1109 26.382C30.4456 25.8902 30.7527 25.3802 31.0308 24.8543L31.8521 25.2978C31.5738 25.8544 31.2639 26.3946 30.924 26.9159H30.8829ZM4.10677 25.3225C3.79761 24.765 3.5233 24.189 3.28541 23.5976L4.16426 23.2609C4.37772 23.8227 4.62456 24.3712 4.90348 24.9036L4.10677 25.3225ZM32.6817 23.5648L31.8029 23.2362C32.0103 22.6771 32.1858 22.1068 32.3285 21.5278L33.2485 21.7578C33.0995 22.3719 32.9102 22.9756 32.6817 23.5648ZM2.75975 21.7824C2.61087 21.1677 2.49571 20.5453 2.41478 19.9179L3.35934 19.8112C3.42551 20.401 3.53255 20.9856 3.67966 21.5607L2.75975 21.7824ZM33.5852 19.8933L32.6489 19.7783C32.7215 19.1897 32.7571 18.5972 32.7556 18.0042L33.6756 17.9385V18.0042C33.6825 18.6351 33.6523 19.2659 33.5852 19.8933ZM2.29979 18.0699C2.30238 17.447 2.33802 16.8246 2.40656 16.2054L3.35112 16.3204C3.29494 16.8798 3.27299 17.4421 3.28541 18.0042L2.29979 18.0699ZM32.6406 16.2054C32.5665 15.6168 32.4595 15.0327 32.3203 14.4559L33.232 14.226C33.3873 14.8393 33.5026 15.4621 33.577 16.0904L32.6406 16.2054ZM3.66324 14.5627L2.74332 14.3409C2.88266 13.7028 3.06375 13.0745 3.28541 12.46L4.16426 12.7968C3.96518 13.3536 3.7979 13.9212 3.66324 14.497V14.5627ZM31.7782 12.7804C31.5676 12.2187 31.3235 11.6701 31.0472 11.1377L31.8686 10.6941C32.1758 11.2526 32.45 11.8285 32.6899 12.419L31.7782 12.7804ZM4.92812 11.1705L4.10677 10.7352C4.4016 10.1698 4.72792 9.62135 5.08418 9.09248L5.90554 9.62636C5.54573 10.1188 5.2192 10.6346 4.92812 11.1705ZM30.1273 9.57708C29.7814 9.10154 29.4085 8.6463 29.0103 8.21363L29.7166 7.58119C30.1364 8.04223 30.5286 8.52768 30.8912 9.03499L30.1273 9.57708ZM6.93223 8.21363L6.22586 7.5894C6.64579 7.12529 7.09284 6.68646 7.56467 6.27523L8.21354 6.9816C7.76265 7.3668 7.33481 7.77818 6.93223 8.21363ZM27.7454 6.89946C27.3017 6.50839 26.8354 6.14364 26.3491 5.80706L26.8829 5.02677C27.4026 5.38741 27.9016 5.77679 28.3778 6.1931L27.7454 6.89946ZM9.58521 5.88098L9.05133 5.05963C9.57354 4.70925 10.1166 4.39107 10.6776 4.10686L11.1211 4.92821C10.5881 5.21058 10.075 5.5289 9.58521 5.88098ZM24.8213 4.92821C24.2871 4.65566 23.7388 4.41164 23.1786 4.19721L23.5236 3.2855C24.1184 3.52166 24.6973 3.79602 25.2567 4.10686L24.8213 4.92821ZM12.731 4.21363L12.3942 3.33478C12.9834 3.10633 13.5871 2.91701 14.2012 2.76805L14.4312 3.67975C13.8545 3.82413 13.2867 4.0024 12.731 4.21363ZM21.4866 3.66332C20.9026 3.52121 20.31 3.41695 19.7125 3.35121L19.8193 2.40665C20.4471 2.48086 21.0697 2.59332 21.6838 2.74341L21.4866 3.66332ZM16.1807 3.35942L16.0657 2.46415C16.692 2.38196 17.3231 2.34081 17.9548 2.34094V3.2855C17.3625 3.27317 16.77 3.29786 16.1807 3.35942Z" fill="#1F6E85"/>
<path d="M26.1684 19.6797H16.2053V18.7352H25.2238V11.4087H11.4168V10.4641H26.1684V19.6797Z" fill="#1F6E85"/>
<path d="M16.6735 10.9406H15.7289V25.7742H16.6735V10.9406Z" fill="#1F6E85"/>
<path d="M17.6509 25.2978H11.4168V26.2423H17.6509V25.2978Z" fill="#1F6E85"/>
<path d="M13.3306 10.9406H12.386V25.7742H13.3306V10.9406Z" fill="#1F6E85"/>
</svg>
