<svg width="34" height="24" viewBox="0 0 34 24" fill="none" xmlns="http://www.w3.org/2000/svg">
<path d="M18.4166 17.6923C18.1365 17.6923 17.8626 17.6092 17.6297 17.4535C17.3968 17.2978 17.2153 17.0766 17.1081 16.8178C17.0009 16.5589 16.9728 16.2741 17.0274 15.9994C17.0821 15.7246 17.217 15.4722 17.415 15.2741L30.7742 1.91351C30.9049 1.7782 31.0612 1.67028 31.234 1.59603C31.4069 1.52179 31.5928 1.48271 31.7809 1.48107C31.969 1.47944 32.1555 1.51528 32.3296 1.58651C32.5037 1.65774 32.6619 1.76294 32.7949 1.89595C32.9279 2.02897 33.0331 2.18714 33.1044 2.36124C33.1756 2.53534 33.2114 2.72189 33.2098 2.91C33.2082 3.0981 33.1691 3.28399 33.0948 3.45683C33.0206 3.62967 32.9127 3.78599 32.7774 3.91668L19.4182 17.2773C19.1526 17.543 18.7923 17.6923 18.4166 17.6923Z" fill="#27AE60"/>
<path d="M32.5379 13.3247C32.3513 13.3247 32.1665 13.2878 31.9942 13.2162C31.8218 13.1445 31.6653 13.0395 31.5337 12.9072C31.402 12.7749 31.2978 12.6179 31.2271 12.4452C31.1563 12.2725 31.1203 12.0875 31.1213 11.9009L31.1666 3.51L22.7941 3.57091H22.7842C22.4085 3.57223 22.0476 3.42424 21.781 3.15949C21.5144 2.89474 21.3639 2.53493 21.3626 2.15921C21.3612 1.78348 21.5092 1.42263 21.774 1.15602C22.0387 0.889413 22.3985 0.738897 22.7743 0.737582L32.5733 0.666748H32.5833C32.959 0.666748 33.3193 0.816004 33.585 1.08168C33.8507 1.34736 33.9999 1.70769 33.9999 2.08341L33.9546 11.9066C33.9548 12.0927 33.9183 12.2771 33.8472 12.4492C33.7761 12.6212 33.6717 12.7775 33.5402 12.9092C33.4086 13.0409 33.2524 13.1454 33.0804 13.2167C32.9084 13.288 32.7241 13.3247 32.5379 13.3247Z" fill="#27AE60"/>
<path d="M1.44212 23.3335C1.16198 23.3335 0.888136 23.2504 0.655222 23.0947C0.422308 22.939 0.240777 22.7178 0.133578 22.459C0.0263786 22.2001 -0.00167558 21.9153 0.0529618 21.6406C0.107599 21.3658 0.242475 21.1134 0.440538 20.9153L11.7484 9.60745C12.0156 9.3494 12.3734 9.2066 12.7449 9.20983C13.1163 9.21306 13.4716 9.36205 13.7343 9.62471C13.9969 9.88737 14.1459 10.2427 14.1492 10.6141C14.1524 10.9856 14.0096 11.3434 13.7515 11.6106L2.44371 22.9185C2.17809 23.1841 1.81781 23.3335 1.44212 23.3335Z" fill="#27AE60"/>
<path d="M18.4166 17.6924C18.0409 17.6923 17.6807 17.543 17.415 17.2773L11.7484 11.6106C11.4903 11.3434 11.3475 10.9856 11.3508 10.6141C11.354 10.2427 11.503 9.88737 11.7656 9.62471C12.0283 9.36205 12.3836 9.21306 12.7551 9.20983C13.1265 9.2066 13.4844 9.3494 13.7515 9.60745L19.4182 15.2741C19.6163 15.4722 19.7512 15.7246 19.8058 15.9994C19.8604 16.2742 19.8324 16.559 19.7252 16.8178C19.618 17.0766 19.4364 17.2979 19.2035 17.4535C18.9706 17.6092 18.6968 17.6923 18.4166 17.6924Z" fill="#27AE60"/>
</svg>
