<svg width="34" height="24" viewBox="0 0 34 24" fill="none" xmlns="http://www.w3.org/2000/svg">
<path d="M31.763 22.5372C31.3873 22.5371 31.027 22.3878 30.7614 22.1221L17.4022 8.76157C17.1366 8.49555 16.9875 8.13491 16.9878 7.75898C16.9881 7.38305 17.1377 7.02262 17.4037 6.75698C17.6697 6.49135 18.0303 6.34226 18.4063 6.34253C18.7822 6.3428 19.1426 6.49239 19.4082 6.7584L32.7674 20.1176C32.966 20.3156 33.1013 20.5681 33.1562 20.8431C33.2111 21.1181 33.1832 21.4033 33.0759 21.6624C32.9687 21.9215 32.7869 22.143 32.5537 22.2987C32.3205 22.4544 32.0463 22.5375 31.7658 22.5372H31.763Z" fill="#EB5757"/>
<path d="M32.5705 23.2978H22.7714C22.3957 23.2978 22.0353 23.1485 21.7697 22.8828C21.504 22.6172 21.3547 22.2568 21.3547 21.8811C21.3547 21.5054 21.504 21.1451 21.7697 20.8794C22.0353 20.6137 22.3957 20.4644 22.7714 20.4644H31.1467L31.1085 12.1344C31.1075 11.9478 31.1435 11.7628 31.2143 11.5901C31.2851 11.4174 31.3893 11.2604 31.5209 11.1281C31.6525 10.9958 31.809 10.8908 31.9814 10.8192C32.1537 10.7476 32.3385 10.7107 32.5251 10.7107C32.9009 10.7107 33.2612 10.8599 33.5269 11.1256C33.7926 11.3913 33.9418 11.7516 33.9418 12.1274L33.9871 21.8811C33.9881 22.0677 33.9521 22.2527 33.8814 22.4254C33.8106 22.5981 33.7064 22.7551 33.5747 22.8874C33.4431 23.0197 33.2866 23.1247 33.1143 23.1963C32.9419 23.268 32.7571 23.3049 32.5705 23.3049V23.2978Z" fill="#EB5757"/>
<path d="M12.7372 14.8432C12.5511 14.8437 12.3667 14.8073 12.1948 14.7361C12.0229 14.6648 11.8668 14.5602 11.7356 14.4282L0.424953 3.12033C0.159316 2.85432 0.0102327 2.49368 0.0104984 2.11775C0.0107641 1.74181 0.160357 1.38138 0.42637 1.11575C0.692382 0.850112 1.05302 0.701029 1.42895 0.701294C1.80489 0.70156 2.16532 0.851153 2.43095 1.11716L13.7416 12.425C13.9397 12.6231 14.0746 12.8755 14.1292 13.1503C14.1838 13.4251 14.1558 13.7098 14.0486 13.9687C13.9414 14.2275 13.7598 14.4487 13.5269 14.6044C13.294 14.7601 13.0202 14.8432 12.74 14.8432H12.7372Z" fill="#EB5757"/>
<path d="M12.7372 14.8433C12.457 14.8433 12.1832 14.7601 11.9503 14.6045C11.7174 14.4488 11.5358 14.2276 11.4286 13.9687C11.3214 13.7099 11.2934 13.4251 11.348 13.1504C11.4026 12.8756 11.5375 12.6232 11.7356 12.4251L17.4023 6.7584C17.5338 6.62669 17.69 6.52217 17.8619 6.45081C18.0338 6.37945 18.2181 6.34266 18.4042 6.34253C18.5904 6.3424 18.7747 6.37893 18.9468 6.45004C19.1188 6.52116 19.2751 6.62545 19.4068 6.75698C19.5386 6.88851 19.6431 7.0447 19.7144 7.21662C19.7858 7.38854 19.8226 7.57284 19.8227 7.75898C19.8228 7.94513 19.7863 8.12947 19.7152 8.30149C19.6441 8.47352 19.5398 8.62985 19.4082 8.76157L13.7416 14.4282C13.6101 14.5606 13.4535 14.6654 13.2811 14.7367C13.1086 14.808 12.9237 14.8442 12.7372 14.8433Z" fill="#EB5757"/>
</svg>
