<svg width="22" height="18" viewBox="0 0 22 18" fill="none" xmlns="http://www.w3.org/2000/svg">
<path d="M1.63114 7.61714C7.26827 5.16113 11.0272 3.54198 12.9081 2.75968C18.2781 0.526074 19.394 0.138073 20.1213 0.125124C20.2813 0.122443 20.6389 0.162086 20.8706 0.350079C21.0662 0.508817 21.1201 0.723249 21.1458 0.87375C21.1716 1.02425 21.2037 1.36709 21.1782 1.63498C20.8872 4.69262 19.628 12.1127 18.9874 15.5373C18.7163 16.9864 18.1826 17.4723 17.6659 17.5198C16.5429 17.6231 15.6902 16.7777 14.6026 16.0647C12.9007 14.9491 11.9392 14.2546 10.2872 13.166C8.37806 11.9079 9.61569 11.2164 10.7037 10.0863C10.9885 9.79059 15.9361 5.29029 16.0319 4.88204C16.0439 4.83099 16.055 4.64066 15.9419 4.54017C15.8289 4.43967 15.662 4.47404 15.5416 4.50137C15.3709 4.54011 12.6521 6.33715 7.38511 9.89249C6.61338 10.4224 5.91437 10.6806 5.28808 10.6671C4.59765 10.6522 3.26954 10.2767 2.28222 9.95577C1.07124 9.56213 0.108778 9.354 0.192587 8.68548C0.23624 8.33727 0.715758 7.98115 1.63114 7.61714Z" fill="#ffffff"/>
</svg>
