<svg width="375" height="228" viewBox="0 0 375 228" fill="none" xmlns="http://www.w3.org/2000/svg">
<g opacity="0.7" clip-path="url(#clip0_638:1393)">
<path d="M211.408 172.914V197.708V172.914ZM210.413 148.227L247.094 125.23L210.413 148.227ZM178.996 108.01L222.856 164.156L178.996 197.708V108.01ZM178.996 108.01H247.093V197.708H178.996L178.996 108.01Z" stroke="#D8B478" stroke-width="0.75" stroke-miterlimit="10"/>
<path d="M336.474 117.028V132.844V117.028ZM327.689 117.028V132.844V117.028ZM332.153 185.703V134.073V185.703ZM340.419 112.794L336.618 117.028L332.154 112.794L327.689 117.028L323.889 112.794V125.806C323.889 127.999 324.759 130.102 326.309 131.652C327.859 133.202 329.962 134.073 332.154 134.073C334.346 134.073 336.448 133.202 337.998 131.652C339.548 130.102 340.419 127.999 340.419 125.806V112.794ZM302.376 117.028V132.844V117.028ZM293.592 117.028V132.844V117.028ZM298.055 140.247V134.073V140.247ZM306.321 112.794L302.52 117.028L298.056 112.794L293.592 117.028L289.791 112.794V125.806C289.791 127.999 290.662 130.102 292.212 131.652C293.762 133.202 295.864 134.073 298.056 134.073C300.248 134.073 302.35 133.202 303.9 131.652C305.45 130.102 306.321 127.999 306.321 125.806V112.794ZM302.941 154.329C302.941 155.295 302.655 156.24 302.118 157.044C301.581 157.848 300.818 158.474 299.925 158.844C299.032 159.214 298.05 159.31 297.102 159.122C296.155 158.933 295.284 158.468 294.601 157.784C293.917 157.101 293.452 156.23 293.264 155.282C293.075 154.334 293.172 153.352 293.542 152.459C293.911 151.566 294.538 150.803 295.341 150.266C296.145 149.729 297.089 149.442 298.055 149.442C299.351 149.442 300.594 149.957 301.51 150.873C302.427 151.79 302.941 153.033 302.941 154.329V154.329ZM298.055 185.703V159.216V185.703ZM383.301 108.01L349.154 140.705L383.301 108.01ZM349.252 108.01L383.301 140.705L349.252 108.01ZM315.105 140.705L349.252 164.261L315.105 140.705ZM383.35 140.705C383.129 140.705 383.35 164.261 383.35 164.261V140.705ZM357.776 140.705C357.556 140.705 357.776 185.703 357.776 185.703V140.705ZM374.825 140.705C374.605 140.705 374.825 185.703 374.825 185.703V140.705ZM366.301 140.705C366.081 140.705 366.301 185.703 366.301 185.703V140.705ZM349.252 108.01C349.031 108.01 349.252 185.703 349.252 185.703V108.01ZM349.252 164.261H383.301H349.252ZM281.007 185.703V108.01V185.703ZM315.105 185.703V108.01V185.703ZM281.007 140.705H383.301H281.007ZM383.301 185.703H281.007V108.01H383.301V185.703Z" stroke="#D8B478" stroke-width="0.75" stroke-miterlimit="10"/>
<path d="M377.16 41.6182C379.149 41.6182 381.093 42.2081 382.747 43.3134C384.401 44.4186 385.69 45.9895 386.451 47.8275C387.212 49.6655 387.412 51.6879 387.024 53.6391C386.636 55.5903 385.678 57.3826 384.272 58.7894C382.865 60.1961 381.073 61.1542 379.123 61.5424C377.172 61.9306 375.15 61.7314 373.312 60.9702C371.474 60.209 369.904 58.9198 368.799 57.2657C367.694 55.6117 367.104 53.667 367.104 51.6776C367.103 50.3566 367.364 49.0485 367.869 47.8281C368.374 46.6076 369.115 45.4987 370.049 44.5646C370.983 43.6305 372.091 42.8895 373.312 42.3839C374.532 41.8784 375.84 41.6182 377.16 41.6182V41.6182ZM363.318 25.212C366.562 25.2121 369.733 26.1744 372.431 27.9772C375.128 29.78 377.231 32.3424 378.472 35.3403C379.713 38.3382 380.038 41.637 379.405 44.8196C378.772 48.0021 377.21 50.9254 374.916 53.2199C372.622 55.5143 369.699 57.0768 366.517 57.7098C363.335 58.3428 360.037 58.0178 357.04 56.776C354.043 55.5342 351.481 53.4313 349.679 50.7332C347.876 48.0351 346.914 44.8631 346.914 41.6182C346.915 39.4637 347.339 37.3302 348.163 35.3397C348.988 33.3492 350.196 31.5406 351.719 30.0171C353.242 28.4936 355.05 27.2852 357.041 26.4607C359.031 25.6363 361.164 25.2119 363.318 25.212V25.212ZM399.727 35.4047C395.376 35.4047 391.204 33.6761 388.128 30.5993C385.052 27.5224 383.323 23.3493 383.323 18.9979L399.727 35.4047ZM332.823 45.1748C334.382 43.4104 336.303 42.0024 338.454 41.0464C340.606 40.0905 342.938 39.609 345.292 39.6346C347.646 39.6603 349.967 40.1925 352.098 41.1951C354.228 42.1977 356.118 43.6473 357.638 45.4452C359.159 47.2431 360.274 49.3474 360.909 51.6149C361.544 53.8825 361.684 56.2602 361.319 58.5865C360.954 60.9129 360.092 63.1333 358.793 65.097C357.493 67.0607 355.786 68.7216 353.788 69.9669L332.823 45.1748ZM399.756 69.9657H332.65V18.9979H399.756V69.9657Z" stroke="#D8B478" stroke-width="0.75" stroke-miterlimit="10"/>
<path d="M256.588 43.1254H260.98C260.98 41.6665 261.559 40.2674 262.59 39.2358C263.622 38.2043 265.02 37.6247 266.479 37.6247C267.938 37.6247 269.336 38.2043 270.368 39.2358C271.399 40.2674 271.978 41.6665 271.978 43.1254V43.3896C271.978 42.9824 272.057 42.579 272.212 42.2026C272.368 41.8261 272.596 41.484 272.883 41.1957C273.171 40.9075 273.512 40.6788 273.888 40.5228C274.264 40.3668 274.668 40.2865 275.075 40.2865C275.482 40.2865 275.885 40.3668 276.261 40.5228C276.637 40.6788 276.979 40.9075 277.266 41.1957C277.554 41.484 277.782 41.8261 277.937 42.2026C278.092 42.579 278.172 42.9824 278.171 43.3896H290.723L256.588 43.1254ZM260.931 27.2739H256.539C256.539 25.8152 255.959 24.4161 254.928 23.3846C253.897 22.3531 252.498 21.7736 251.04 21.7736C249.581 21.7736 248.182 22.3531 247.151 23.3846C246.12 24.4161 245.54 25.8152 245.54 27.2739V27.5375C245.54 26.7161 245.214 25.9283 244.634 25.3474C244.053 24.7666 243.265 24.4403 242.444 24.4403C241.623 24.4403 240.835 24.7666 240.254 25.3474C239.673 25.9283 239.347 26.7161 239.347 27.5375H231.674L260.931 27.2739ZM223.747 29.17C223.747 31.4125 223.082 33.6046 221.836 35.4692C220.591 37.3338 218.82 38.787 216.749 39.6452C214.678 40.5033 212.398 40.7279 210.199 40.2904C208 39.8529 205.981 38.773 204.395 37.1873C202.81 35.6017 201.73 33.5814 201.293 31.382C200.856 29.1825 201.08 26.9028 201.938 24.831C202.796 22.7592 204.249 20.9884 206.113 19.7425C207.977 18.4967 210.169 17.8317 212.411 17.8317C215.417 17.8317 218.301 19.0263 220.427 21.1526C222.553 23.2789 223.747 26.1629 223.747 29.17L223.747 29.17ZM295.868 77.769L267.738 49.5279L254.747 62.5218L295.868 77.769ZM280.873 88.4467L236.038 43.6043L191.206 88.4467H280.873ZM295.868 88.4467H191.206V8.9552H295.868V88.4467Z" stroke="#D8B478" stroke-width="0.855" stroke-miterlimit="10"/>
<path d="M122.24 59.9095V73.6563V59.9095ZM114.604 59.9095V73.6563V59.9095ZM118.484 119.601V74.7248V119.601ZM125.669 56.23L122.365 59.9095L118.485 56.23L114.604 59.9095L111.301 56.23V67.5401C111.301 69.4458 112.058 71.2734 113.405 72.6209C114.752 73.9684 116.58 74.7254 118.485 74.7254C120.39 74.7254 122.217 73.9684 123.565 72.6209C124.912 71.2734 125.669 69.4458 125.669 67.5401L125.669 56.23ZM92.6027 59.9095V73.6563V59.9095ZM84.9676 59.9095V73.6563V59.9095ZM88.8475 80.0918V74.7248V80.0918ZM96.0314 56.23L92.728 59.9095L88.8481 56.23L84.9676 59.9095L81.6643 56.23V67.5401C81.6643 69.4457 82.4212 71.2732 83.7683 72.6207C85.1155 73.9681 86.9427 74.7251 88.8479 74.7251C90.7531 74.7251 92.5802 73.9681 93.9274 72.6207C95.2745 71.2732 96.0314 69.4457 96.0314 67.5401L96.0314 56.23ZM93.0943 92.331C93.0943 93.1711 92.8453 93.9924 92.3786 94.6909C91.912 95.3895 91.2487 95.9339 90.4727 96.2554C89.6967 96.5769 88.8428 96.661 88.019 96.4971C87.1952 96.3332 86.4385 95.9287 85.8445 95.3346C85.2506 94.7406 84.8462 93.9837 84.6823 93.1597C84.5184 92.3357 84.6025 91.4817 84.9239 90.7055C85.2454 89.9293 85.7897 89.2659 86.4881 88.7992C87.1865 88.3324 88.0076 88.0833 88.8475 88.0833C89.4052 88.0833 89.9575 88.1931 90.4727 88.4066C90.988 88.62 91.4562 88.9329 91.8505 89.3273C92.2449 89.7218 92.5577 90.1901 92.7711 90.7054C92.9846 91.2208 93.0944 91.7732 93.0943 92.331V92.331ZM88.8475 119.601V96.5788V119.601ZM162.941 52.0715L133.261 80.4894L162.941 52.0715ZM133.347 52.0715L162.941 80.4894L133.347 52.0715ZM103.666 80.4894L133.347 100.964L103.666 80.4894ZM162.984 80.4894C162.792 80.4894 162.984 100.964 162.984 100.964V80.4894ZM140.755 80.4894C140.564 80.4894 140.755 119.601 140.755 119.601V80.4894ZM155.574 80.4894C155.383 80.4894 155.574 119.601 155.574 119.601V80.4894ZM148.165 80.4894C147.973 80.4894 148.165 119.601 148.165 119.601V80.4894ZM133.347 52.0715C133.155 52.0715 133.347 119.601 133.347 119.601V52.0715ZM133.347 100.964H162.941H133.347ZM74.0292 119.601V52.0715V119.601ZM103.666 119.601V52.0715V119.601ZM74.0292 80.4894H162.941H74.0292ZM162.941 119.601H74.0292V52.0715H162.941V119.601Z" stroke="#D8B478" stroke-width="0.75" stroke-miterlimit="10"/>
<path d="M20.4718 59.958L12.6471 51.8589L4.82184 59.958H20.4718ZM-16.9694 89.9679C-15.2614 89.968 -13.5701 89.6315 -11.9922 88.9778C-10.4142 88.3241 -8.98044 87.3659 -7.77272 86.1579C-6.56501 84.9499 -5.607 83.5158 -4.95341 81.9375C-4.29982 80.3592 -3.96345 78.6676 -3.9635 76.9593L-16.9694 89.9679ZM42.263 89.9679C40.5551 89.968 38.8638 89.6315 37.2859 88.9778C35.7079 88.3241 34.2741 87.3658 33.0664 86.1579C31.8587 84.9499 30.9007 83.5158 30.2471 81.9375C29.5935 80.3592 29.2571 78.6676 29.2572 76.9593L42.263 89.9679ZM25.653 76.9593C25.653 80.4094 24.2828 83.7182 21.8437 86.1578C19.4046 88.5974 16.0965 89.9679 12.6471 89.9679C9.19776 89.9679 5.88968 88.5974 3.45061 86.1578C1.01153 83.7182 -0.358727 80.4094 -0.358727 76.9593H25.653ZM25.653 72.9116H29.2572H25.653ZM23.9164 69.9629H30.9932H23.9164ZM29.2572 69.9629V106.328V69.9629ZM25.653 69.9629V106.328V69.9629ZM-3.9635 72.9116H-0.358727H-3.9635ZM-5.69889 69.9629H1.3767H-5.69889ZM-0.358727 69.9629V106.328V69.9629ZM-3.9635 69.9629V106.328V69.9629ZM-17.8799 89.9679H43.1736H-17.8799ZM43.1736 106.328H-17.8799V59.958H43.1736V106.328Z" stroke="#D8B478" stroke-width="0.75" stroke-miterlimit="10"/>
<path d="M13.3342 51.9305C13.3342 51.7945 13.2939 51.6616 13.2184 51.5486C13.1429 51.4355 13.0355 51.3474 12.9099 51.2954C12.7843 51.2433 12.6462 51.2297 12.5128 51.2563C12.3795 51.2828 12.257 51.3483 12.1609 51.4444C12.0648 51.5405 11.9993 51.663 11.9728 51.7964C11.9463 51.9297 11.9599 52.068 12.0119 52.1936C12.0639 52.3192 12.152 52.4266 12.265 52.5021C12.3781 52.5776 12.511 52.618 12.6469 52.618C12.7372 52.618 12.8265 52.6002 12.9099 52.5657C12.9933 52.5311 13.0691 52.4805 13.1329 52.4167C13.1968 52.3528 13.2474 52.277 13.2819 52.1936C13.3165 52.1102 13.3342 52.0208 13.3342 51.9305Z" fill="#D8B478"/>
<path d="M45.0361 177.825H109.25H45.0361ZM65.1995 170.485H109.25H65.1995ZM77.1291 192.506H12.9149H77.1291ZM56.9657 199.846H12.9149H56.9657ZM109.25 185.166H12.9149H109.25ZM77.1297 163.145H12.9155H77.1297ZM56.9663 170.485H12.9155H56.9663ZM45.0361 148.464H109.25H45.0361ZM65.1995 141.124H109.25H65.1995ZM12.9155 155.805H109.25H12.9155ZM109.486 207.186H12.9155V133.784L109.486 133.785V207.186Z" stroke="#D8B478" stroke-width="0.878" stroke-miterlimit="10"/>
<path d="M220.87 107.87L213.046 99.7704L205.221 107.87" stroke="#D8B478" stroke-width="0.878" stroke-miterlimit="10"/>
<path d="M213.732 99.7705C213.732 99.6345 213.692 99.5016 213.616 99.3885C213.541 99.2755 213.434 99.1874 213.308 99.1353C213.182 99.0833 213.044 99.0697 212.911 99.0962C212.778 99.1227 212.655 99.1882 212.559 99.2844C212.463 99.3805 212.397 99.503 212.371 99.6364C212.344 99.7697 212.358 99.9079 212.41 100.034C212.462 100.159 212.55 100.267 212.663 100.342C212.776 100.418 212.909 100.458 213.045 100.458C213.135 100.458 213.225 100.44 213.308 100.406C213.391 100.371 213.467 100.32 213.531 100.257C213.595 100.193 213.645 100.117 213.68 100.034C213.715 99.9502 213.732 99.8608 213.732 99.7705Z" fill="#D8B478"/>
<path d="M251.362 8.78662L243.537 0.6875L235.712 8.78662" stroke="#D8B478" stroke-width="0.878" stroke-miterlimit="10"/>
<path d="M244.224 0.687465C244.224 0.551497 244.184 0.418583 244.108 0.30553C244.033 0.192477 243.926 0.104363 243.8 0.0523304C243.674 0.00029787 243.536 -0.0133162 243.403 0.0132097C243.27 0.0397357 243.147 0.10521 243.051 0.201354C242.955 0.297498 242.889 0.419992 242.863 0.553347C242.836 0.686702 242.85 0.824929 242.902 0.950546C242.954 1.07616 243.042 1.18353 243.155 1.25907C243.268 1.33461 243.401 1.37493 243.537 1.37493C243.627 1.37495 243.717 1.35718 243.8 1.32264C243.883 1.2881 243.959 1.23746 244.023 1.17362C244.087 1.10978 244.137 1.03399 244.172 0.95057C244.206 0.867154 244.224 0.77775 244.224 0.687465Z" fill="#D8B478"/>
<path d="M374.028 18.9983L366.203 10.8992L358.379 18.9983" stroke="#D8B478" stroke-width="0.75" stroke-miterlimit="10"/>
<path d="M366.891 10.8988C366.891 10.7628 366.85 10.6299 366.775 10.5168C366.699 10.4038 366.592 10.3157 366.466 10.2636C366.341 10.2116 366.202 10.198 366.069 10.2245C365.936 10.251 365.813 10.3165 365.717 10.4127C365.621 10.5088 365.556 10.6313 365.529 10.7647C365.503 10.898 365.516 11.0362 365.568 11.1619C365.62 11.2875 365.708 11.3948 365.821 11.4704C365.934 11.5459 366.067 11.5862 366.203 11.5862C366.293 11.5863 366.383 11.5685 366.466 11.5339C366.55 11.4994 366.625 11.4488 366.689 11.3849C366.753 11.3211 366.804 11.2453 366.838 11.1619C366.873 11.0785 366.891 10.9891 366.891 10.8988Z" fill="#D8B478"/>
<path d="M340.003 108.01L332.179 99.9111L324.354 108.01" stroke="#D8B478" stroke-width="0.75" stroke-miterlimit="10"/>
<path d="M332.866 99.9109C332.866 99.7749 332.825 99.642 332.75 99.5289C332.674 99.4159 332.567 99.3278 332.441 99.2757C332.316 99.2237 332.178 99.2101 332.044 99.2366C331.911 99.2631 331.789 99.3286 331.692 99.4247C331.596 99.5209 331.531 99.6434 331.504 99.7767C331.478 99.9101 331.491 100.048 331.543 100.174C331.595 100.3 331.683 100.407 331.797 100.482C331.91 100.558 332.042 100.598 332.178 100.598C332.269 100.598 332.358 100.581 332.441 100.546C332.525 100.512 332.601 100.461 332.664 100.397C332.728 100.333 332.779 100.257 332.813 100.174C332.848 100.091 332.866 100.001 332.866 99.9109Z" fill="#D8B478"/>
<path d="M126.31 52.0718L118.485 43.9727L110.661 52.0718" stroke="#D8B478" stroke-width="0.75" stroke-miterlimit="10"/>
<path d="M119.172 43.9723C119.172 43.8363 119.132 43.7034 119.057 43.5903C118.981 43.4773 118.874 43.3892 118.748 43.3371C118.622 43.2851 118.484 43.2715 118.351 43.298C118.218 43.3245 118.095 43.39 117.999 43.4861C117.903 43.5823 117.837 43.7048 117.811 43.8381C117.784 43.9715 117.798 44.1097 117.85 44.2353C117.902 44.361 117.99 44.4683 118.103 44.5439C118.216 44.6194 118.349 44.6597 118.485 44.6597C118.575 44.6597 118.665 44.642 118.748 44.6074C118.831 44.5729 118.907 44.5222 118.971 44.4584C119.035 44.3946 119.086 44.3188 119.12 44.2354C119.155 44.1519 119.172 44.0625 119.172 43.9723Z" fill="#D8B478"/>
<path d="M69.0252 133.784L61.2005 125.685L53.3759 133.784" stroke="#D8B478" stroke-width="0.75" stroke-miterlimit="10"/>
<path d="M61.8878 125.685C61.8878 125.549 61.8475 125.416 61.772 125.303C61.6965 125.19 61.5891 125.102 61.4635 125.05C61.3379 124.997 61.1997 124.984 61.0664 125.01C60.9331 125.037 60.8106 125.102 60.7145 125.199C60.6184 125.295 60.5529 125.417 60.5264 125.551C60.4999 125.684 60.5135 125.822 60.5655 125.948C60.6175 126.073 60.7056 126.181 60.8187 126.256C60.9317 126.332 61.0646 126.372 61.2005 126.372C61.2908 126.372 61.3802 126.354 61.4636 126.32C61.547 126.285 61.6227 126.235 61.6866 126.171C61.7504 126.107 61.801 126.031 61.8356 125.948C61.8701 125.864 61.8878 125.775 61.8878 125.685Z" fill="#D8B478"/>
</g>
<defs>
<clipPath id="clip0_638:1393">
<rect width="1157" height="228" fill="white" transform="translate(-349)"/>
</clipPath>
</defs>
</svg>
