<svg width="1440" height="373" viewBox="0 0 1440 373" fill="none" xmlns="http://www.w3.org/2000/svg">
<g opacity="0.7" clip-path="url(#clip0_638:1475)">
<path d="M1336.86 128.868C1338.72 134.063 1341.71 138.778 1345.62 142.674C1348.4 145.45 1351.69 147.652 1355.32 149.154C1358.95 150.657 1362.83 151.43 1366.76 151.43C1370.68 151.43 1374.57 150.657 1378.2 149.154C1381.82 147.652 1385.12 145.45 1387.9 142.674C1392.38 138.189 1394.9 132.107 1394.9 125.764C1394.9 119.422 1392.38 113.339 1387.9 108.854C1384.31 105.267 1379.44 103.251 1374.37 103.251C1369.29 103.251 1364.43 105.267 1360.84 108.854C1357.97 111.725 1356.36 115.618 1356.36 119.677C1356.36 123.736 1357.97 127.629 1360.84 130.499C1361.98 131.636 1363.33 132.538 1364.81 133.154C1366.3 133.769 1367.89 134.086 1369.5 134.086C1371.11 134.086 1372.7 133.769 1374.18 133.154C1375.67 132.538 1377.02 131.636 1378.16 130.499C1379.07 129.59 1379.79 128.51 1380.28 127.322C1380.77 126.133 1381.02 124.859 1381.02 123.573C1381.02 122.286 1380.77 121.013 1380.28 119.824C1379.79 118.636 1379.07 117.556 1378.16 116.646C1376.69 115.177 1374.69 114.351 1372.61 114.351C1370.54 114.351 1368.54 115.177 1367.07 116.646C1365.9 117.822 1365.24 119.417 1365.24 121.079C1365.24 122.742 1365.9 124.337 1367.07 125.512C1367.54 125.978 1368.09 126.348 1368.7 126.6C1369.31 126.852 1369.96 126.982 1370.62 126.982C1371.28 126.982 1371.93 126.852 1372.54 126.6C1373.15 126.348 1373.7 125.978 1374.17 125.512C1374.54 125.14 1374.83 124.698 1375.04 124.211C1375.24 123.724 1375.34 123.202 1375.34 122.675C1375.34 122.148 1375.24 121.627 1375.04 121.14C1374.83 120.653 1374.54 120.211 1374.17 119.838C1373.87 119.54 1373.51 119.304 1373.12 119.142C1372.74 118.981 1372.32 118.898 1371.9 118.898C1371.47 118.898 1371.06 118.981 1370.67 119.142C1370.28 119.304 1369.92 119.54 1369.63 119.838C1369.39 120.077 1369.2 120.36 1369.07 120.672C1368.94 120.983 1368.87 121.317 1368.87 121.654C1368.87 121.992 1368.94 122.326 1369.07 122.637C1369.2 122.949 1369.39 123.232 1369.63 123.47C1370.01 123.855 1370.53 124.071 1371.08 124.071C1371.62 124.071 1372.15 123.855 1372.53 123.47L1336.86 128.868ZM1304.33 151.755C1302 150.022 1299.8 148.123 1297.75 146.071C1293.34 141.658 1289.84 136.418 1287.45 130.652C1285.06 124.886 1283.83 118.705 1283.83 112.464C1283.83 106.222 1285.06 100.042 1287.45 94.2756C1289.84 88.5092 1293.34 83.2697 1297.75 78.8563C1304.88 71.7261 1314.55 67.7203 1324.64 67.7203C1334.72 67.7203 1344.39 71.7261 1351.52 78.8563C1354.35 81.6809 1356.59 85.0341 1358.12 88.7245C1359.65 92.4149 1360.43 96.3703 1360.43 100.365C1360.43 104.359 1359.65 108.315 1358.12 112.005C1356.59 115.696 1354.35 119.049 1351.52 121.873C1349.26 124.133 1346.58 125.925 1343.63 127.148C1340.68 128.371 1337.51 129.001 1334.32 129.001C1331.12 129.001 1327.96 128.371 1325 127.148C1322.05 125.925 1319.37 124.133 1317.11 121.873C1315.3 120.066 1313.87 117.92 1312.89 115.558C1311.91 113.196 1311.41 110.665 1311.41 108.108C1311.41 105.552 1311.91 103.02 1312.89 100.659C1313.87 98.2968 1315.3 96.1509 1317.11 94.3433C1318.56 92.897 1320.27 91.7496 1322.16 90.9668C1324.05 90.184 1326.08 89.7811 1328.12 89.7811C1330.17 89.7811 1332.19 90.184 1334.08 90.9668C1335.97 91.7496 1337.69 92.897 1339.13 94.3433C1340.29 95.5001 1341.21 96.8735 1341.84 98.3851C1342.46 99.8966 1342.78 101.517 1342.78 103.153C1342.78 104.789 1342.46 106.409 1341.84 107.921C1341.21 109.432 1340.29 110.806 1339.13 111.962C1338.21 112.888 1337.11 113.622 1335.9 114.123C1334.69 114.624 1333.4 114.882 1332.09 114.882C1330.78 114.882 1329.48 114.624 1328.27 114.123C1327.06 113.622 1325.96 112.888 1325.04 111.962C1323.54 110.467 1322.7 108.439 1322.7 106.324C1322.7 104.209 1323.54 102.181 1325.04 100.685C1326.23 99.4891 1327.86 98.8171 1329.55 98.8171C1331.24 98.8171 1332.86 99.4891 1334.06 100.685C1335.02 101.643 1335.56 102.941 1335.56 104.294C1335.56 105.648 1335.02 106.946 1334.06 107.903C1333.29 108.669 1332.26 109.099 1331.17 109.099C1330.09 109.099 1329.05 108.669 1328.29 107.903C1327.67 107.291 1327.33 106.46 1327.33 105.594C1327.33 104.728 1327.67 103.897 1328.29 103.284C1328.53 103.042 1328.82 102.849 1329.13 102.718C1329.45 102.586 1329.79 102.519 1330.13 102.519C1330.48 102.519 1330.82 102.586 1331.13 102.718C1331.45 102.849 1331.74 103.042 1331.98 103.284L1304.33 151.755ZM1283.61 67.2513H1394.9V151.755H1283.61V67.2513Z" stroke="#D8B478" stroke-width="0.878" stroke-miterlimit="10"/>
<path d="M1046.55 146.355C1049.34 146.355 1052.11 145.805 1054.69 144.736C1057.27 143.667 1059.61 142.101 1061.59 140.126C1063.56 138.151 1065.13 135.806 1066.2 133.225C1067.27 130.645 1067.82 127.879 1067.82 125.086L1046.55 146.355ZM1143.41 146.355C1140.62 146.355 1137.85 145.805 1135.27 144.736C1132.69 143.667 1130.35 142.101 1128.37 140.126C1126.4 138.151 1124.83 135.806 1123.76 133.225C1122.69 130.645 1122.14 127.879 1122.14 125.086L1143.41 146.355ZM1116.25 125.086C1116.25 130.727 1114.01 136.137 1110.02 140.125C1106.03 144.114 1100.62 146.355 1094.98 146.355C1089.34 146.355 1083.93 144.114 1079.94 140.125C1075.95 136.137 1073.71 130.727 1073.71 125.086H1116.25ZM1116.25 118.468H1122.14H1116.25ZM1113.41 113.647H1124.98H1113.41ZM1122.14 113.647V173.104V113.647ZM1116.25 113.647V173.104V113.647ZM1067.82 118.468H1073.71H1067.82ZM1064.98 113.647H1076.55H1064.98ZM1073.71 113.647V173.104V113.647ZM1067.82 113.647V173.104V113.647ZM1045.06 146.355H1144.9H1045.06ZM1144.9 173.104H1045.06V97.2889H1144.9V173.104Z" stroke="#D8B478" stroke-width="0.75" stroke-miterlimit="10"/>
<path d="M689.457 282.713V323.252V282.713ZM687.83 242.351L747.816 204.751L687.83 242.351ZM636.453 176.596L708.179 268.394L636.453 323.252V176.596ZM636.453 176.596H747.815V323.252H636.453L636.453 176.596Z" stroke="#D8B478" stroke-width="0.75" stroke-miterlimit="10"/>
<path d="M893.982 191.34V217.199V191.34ZM879.616 191.34V217.199V191.34ZM886.916 303.624V219.208V303.624ZM900.433 184.418L894.218 191.34L886.917 184.418L879.616 191.34L873.401 184.418V205.693C873.401 209.277 874.825 212.715 877.36 215.25C879.895 217.785 883.333 219.209 886.917 219.209C890.502 219.209 893.94 217.785 896.474 215.25C899.009 212.715 900.433 209.277 900.433 205.693V184.418ZM838.221 191.34V217.199V191.34ZM823.855 191.34V217.199V191.34ZM831.155 229.304V219.208V229.304ZM844.672 184.418L838.456 191.34L831.156 184.418L823.855 191.34L817.64 184.418V205.693C817.64 209.277 819.064 212.715 821.599 215.25C824.134 217.785 827.572 219.209 831.156 219.209C834.741 219.209 838.179 217.785 840.714 215.25C843.248 212.715 844.672 209.277 844.672 205.693V184.418ZM839.145 252.327C839.145 253.907 838.677 255.452 837.799 256.766C836.921 258.08 835.673 259.104 834.213 259.709C832.753 260.313 831.146 260.471 829.596 260.163C828.047 259.855 826.623 259.094 825.505 257.976C824.388 256.859 823.627 255.435 823.319 253.885C823.01 252.336 823.169 250.729 823.773 249.269C824.378 247.809 825.402 246.561 826.716 245.683C828.03 244.805 829.575 244.337 831.155 244.337C833.274 244.337 835.307 245.179 836.805 246.677C838.303 248.175 839.145 250.208 839.145 252.327V252.327ZM831.155 303.624V260.317V303.624ZM970.56 176.596L914.718 230.052L970.56 176.596ZM914.878 176.596L970.56 230.052L914.878 176.596ZM859.037 230.052L914.878 268.566L859.037 230.052ZM970.641 230.052C970.279 230.052 970.641 268.566 970.641 268.566V230.052ZM928.819 230.052C928.458 230.052 928.819 303.624 928.819 303.624V230.052ZM956.7 230.052C956.339 230.052 956.7 303.624 956.7 303.624V230.052ZM942.76 230.052C942.399 230.052 942.76 303.624 942.76 303.624V230.052ZM914.878 176.596C914.518 176.596 914.878 303.624 914.878 303.624V176.596ZM914.878 268.566H970.56H914.878ZM803.275 303.624V176.596V303.624ZM859.037 303.624V176.596V303.624ZM803.275 230.052H970.56H803.275ZM970.56 303.624H803.275V176.596H970.56V303.624Z" stroke="#D8B478" stroke-width="0.75" stroke-miterlimit="10"/>
<path d="M1088.06 213.492L1075.27 200.25L1062.47 213.492H1088.06ZM1075.27 258.064C1061.51 258.017 1048.06 253.966 1036.56 246.405L1075.27 258.064ZM1075.27 258.064C1089.03 258.017 1102.47 253.965 1113.97 246.404L1075.27 258.064ZM1075.27 228.488C1089.03 228.535 1102.47 232.587 1113.97 240.148L1075.27 228.488ZM1075.27 228.488C1061.5 228.535 1048.06 232.587 1036.56 240.148L1075.27 228.488ZM1090.19 243.276C1090.22 246.235 1089.37 249.135 1087.75 251.609C1086.12 254.083 1083.8 256.018 1081.08 257.17C1078.35 258.322 1075.34 258.638 1072.44 258.078C1069.53 257.518 1066.86 256.107 1064.76 254.025C1062.66 251.942 1061.22 249.282 1060.63 246.383C1060.05 243.483 1060.33 240.473 1061.46 237.737C1062.58 235.001 1064.5 232.661 1066.96 231.014C1069.41 229.367 1072.31 228.488 1075.27 228.488C1079.21 228.47 1082.99 230.017 1085.79 232.79C1088.59 235.564 1090.18 239.335 1090.19 243.276V243.276ZM1079.34 243.276C1079.34 244.081 1079.1 244.868 1078.65 245.538C1078.2 246.207 1077.57 246.729 1076.82 247.037C1076.08 247.345 1075.26 247.426 1074.47 247.269C1073.68 247.112 1072.96 246.724 1072.39 246.155C1071.82 245.585 1071.43 244.86 1071.27 244.07C1071.12 243.281 1071.2 242.462 1071.5 241.718C1071.81 240.974 1072.33 240.339 1073 239.891C1073.67 239.444 1074.46 239.205 1075.27 239.205C1076.34 239.205 1077.38 239.634 1078.14 240.398C1078.91 241.161 1079.34 242.196 1079.34 243.276V243.276ZM1113.97 272.275H1036.56V213.492H1113.97V272.275Z" stroke="#D8B478" stroke-width="0.75" stroke-miterlimit="10"/>
<path d="M1076.39 200.25C1076.39 200.028 1076.32 199.81 1076.2 199.626C1076.08 199.441 1075.9 199.297 1075.7 199.212C1075.49 199.126 1075.26 199.104 1075.05 199.148C1074.83 199.191 1074.63 199.298 1074.47 199.455C1074.31 199.612 1074.21 199.813 1074.16 200.031C1074.12 200.249 1074.14 200.475 1074.23 200.68C1074.31 200.886 1074.46 201.061 1074.64 201.185C1074.83 201.308 1075.04 201.374 1075.27 201.374C1075.41 201.374 1075.56 201.345 1075.7 201.288C1075.83 201.232 1075.96 201.149 1076.06 201.045C1076.16 200.94 1076.25 200.817 1076.3 200.68C1076.36 200.544 1076.39 200.398 1076.39 200.25Z" fill="#D8B478"/>
<path d="M227.654 38.9257L214.858 25.6837L202.062 38.9257H227.654ZM234.223 96.9647C239.417 95.1038 244.133 92.1117 248.029 88.2047C250.805 85.4289 253.006 82.1335 254.509 78.5068C256.011 74.88 256.784 70.9928 256.784 67.0672C256.784 63.1416 256.011 59.2545 254.509 55.6277C253.006 52.0009 250.805 48.7055 248.029 45.9297C245.808 43.7091 243.172 41.9476 240.271 40.7458C237.369 39.544 234.26 38.9254 231.119 38.9254C227.979 38.9254 224.869 39.544 221.968 40.7458C219.066 41.9476 216.43 43.7091 214.21 45.9297C212.433 47.7062 211.024 49.8151 210.062 52.1362C209.101 54.4573 208.606 56.9451 208.606 59.4575C208.606 61.9699 209.1 64.4577 210.062 66.7789C211.023 69.1001 212.432 71.2091 214.209 72.9857C217.079 75.856 220.972 77.4684 225.031 77.4684C229.09 77.4684 232.983 75.856 235.854 72.9857C236.991 71.8488 237.893 70.499 238.508 69.0134C239.123 67.5279 239.44 65.9357 239.44 64.3277C239.44 62.7198 239.123 61.1275 238.508 59.642C237.893 58.1565 236.991 56.8067 235.854 55.6697C234.944 54.76 233.865 54.0384 232.676 53.546C231.488 53.0536 230.214 52.8002 228.928 52.8002C227.641 52.8002 226.368 53.0536 225.179 53.546C223.991 54.0384 222.911 54.76 222.002 55.6697C220.532 57.1393 219.707 59.1325 219.707 61.2107C219.707 63.289 220.532 65.2821 222.002 66.7517C223.177 67.9273 224.772 68.5877 226.434 68.5877C228.097 68.5877 229.691 67.9273 230.867 66.7517C231.333 66.286 231.702 65.7331 231.954 65.1246C232.206 64.5161 232.336 63.8639 232.336 63.2052C232.336 62.5466 232.206 61.8943 231.954 61.2858C231.702 60.6773 231.333 60.1244 230.867 59.6587C230.114 58.9067 229.094 58.4842 228.03 58.4842C226.966 58.4842 225.945 58.9067 225.193 59.6587C224.591 60.2609 224.253 61.0774 224.253 61.9287C224.253 62.78 224.591 63.5965 225.193 64.1987C225.431 64.4372 225.714 64.6264 226.026 64.7555C226.338 64.8845 226.671 64.951 227.009 64.951C227.346 64.951 227.68 64.8845 227.992 64.7555C228.303 64.6264 228.586 64.4372 228.825 64.1987C229.21 63.8132 229.426 63.2906 229.426 62.7457C229.426 62.2008 229.21 61.6782 228.825 61.2927L234.223 96.9647ZM257.11 129.5C255.377 131.825 253.477 134.022 251.426 136.073C247.012 140.486 241.773 143.987 236.006 146.376C230.24 148.764 224.06 149.993 217.818 149.993C211.577 149.993 205.396 148.764 199.63 146.376C193.864 143.987 188.624 140.486 184.211 136.073C177.08 128.942 173.075 119.271 173.075 109.187C173.075 99.1033 177.08 89.4323 184.211 82.3017C189.915 76.5972 197.652 73.3925 205.72 73.3925C213.787 73.3925 221.524 76.5972 227.229 82.3017C229.488 84.5613 231.281 87.2438 232.504 90.1961C233.727 93.1484 234.356 96.3127 234.356 99.5082C234.356 102.704 233.727 105.868 232.504 108.82C231.281 111.773 229.488 114.455 227.229 116.715C225.421 118.523 223.275 119.957 220.913 120.935C218.551 121.913 216.02 122.417 213.463 122.417C210.907 122.417 208.375 121.913 206.013 120.935C203.651 119.957 201.505 118.523 199.698 116.715C198.252 115.269 197.104 113.552 196.322 111.662C195.539 109.773 195.136 107.748 195.136 105.703C195.136 103.658 195.539 101.632 196.322 99.743C197.104 97.8536 198.252 96.1368 199.698 94.6907C200.855 93.5337 202.228 92.6159 203.739 91.9897C205.251 91.3635 206.871 91.0412 208.507 91.0412C210.143 91.0412 211.763 91.3635 213.275 91.9897C214.787 92.6159 216.16 93.5337 217.317 94.6907C218.242 95.6162 218.977 96.715 219.478 97.9243C219.979 99.1336 220.236 100.43 220.236 101.739C220.236 103.048 219.979 104.344 219.478 105.553C218.977 106.762 218.242 107.861 217.317 108.787C215.821 110.282 213.793 111.121 211.679 111.121C209.564 111.121 207.536 110.282 206.041 108.787C205.448 108.194 204.978 107.491 204.657 106.717C204.337 105.943 204.172 105.114 204.172 104.276C204.172 103.438 204.337 102.608 204.657 101.834C204.978 101.06 205.448 100.357 206.041 99.7647C206.515 99.2908 207.077 98.9149 207.696 98.6584C208.315 98.402 208.979 98.27 209.649 98.27C210.319 98.27 210.983 98.402 211.602 98.6584C212.221 98.9149 212.784 99.2908 213.258 99.7647C214.023 100.53 214.453 101.569 214.453 102.652C214.453 103.734 214.023 104.773 213.258 105.539C212.645 106.151 211.814 106.495 210.948 106.495C210.082 106.495 209.251 106.151 208.639 105.539C208.396 105.296 208.203 105.008 208.072 104.691C207.941 104.374 207.873 104.034 207.873 103.691C207.873 103.348 207.941 103.008 208.072 102.691C208.203 102.374 208.396 102.086 208.639 101.844L257.11 129.5ZM172.606 38.9257H257.11V150.212H172.606V38.9257Z" stroke="#D8B478" stroke-width="0.878" stroke-miterlimit="10"/>
<path d="M215.982 25.6838C215.982 25.4615 215.916 25.2442 215.792 25.0594C215.669 24.8745 215.493 24.7304 215.288 24.6454C215.082 24.5603 214.856 24.538 214.638 24.5814C214.42 24.6248 214.22 24.7318 214.063 24.889C213.906 25.0462 213.799 25.2465 213.755 25.4645C213.712 25.6826 213.734 25.9086 213.819 26.114C213.904 26.3193 214.048 26.4949 214.233 26.6184C214.418 26.7419 214.635 26.8078 214.858 26.8078C215.005 26.8079 215.152 26.7788 215.288 26.7223C215.424 26.6659 215.548 26.5831 215.653 26.4787C215.757 26.3743 215.84 26.2504 215.896 26.114C215.953 25.9776 215.982 25.8314 215.982 25.6838Z" fill="#D8B478"/>
<path d="M1225.18 218.729C1225.18 221.024 1224.49 223.267 1223.22 225.174C1221.95 227.082 1220.13 228.569 1218.01 229.447C1215.89 230.325 1213.56 230.555 1211.31 230.107C1209.06 229.66 1206.99 228.555 1205.37 226.932C1203.75 225.31 1202.64 223.243 1202.2 220.993C1201.75 218.742 1201.98 216.41 1202.86 214.29C1203.73 212.17 1205.22 210.358 1207.13 209.083C1209.04 207.809 1211.28 207.128 1213.57 207.128C1216.65 207.128 1219.6 208.351 1221.78 210.526C1223.95 212.702 1225.18 215.653 1225.18 218.729ZM1244.1 202.761C1244.1 206.504 1242.99 210.162 1240.91 213.274C1238.83 216.386 1235.88 218.811 1232.42 220.244C1228.96 221.676 1225.16 222.051 1221.48 221.321C1217.81 220.591 1214.44 218.789 1211.8 216.142C1209.15 213.496 1207.35 210.124 1206.62 206.454C1205.89 202.783 1206.26 198.979 1207.69 195.521C1209.13 192.063 1211.55 189.108 1214.66 187.029C1217.77 184.949 1221.43 183.839 1225.18 183.839C1230.19 183.839 1235.01 185.833 1238.56 189.381C1242.1 192.93 1244.1 197.743 1244.1 202.761V202.761ZM1232.34 244.762C1232.34 239.744 1234.34 234.931 1237.88 231.382C1241.43 227.833 1246.25 225.839 1251.26 225.839L1232.34 244.762ZM1221.07 167.582C1223.11 169.381 1224.73 171.597 1225.83 174.079C1226.94 176.561 1227.49 179.251 1227.46 181.967C1227.43 184.682 1226.82 187.36 1225.66 189.818C1224.51 192.275 1222.84 194.455 1220.76 196.209C1218.69 197.963 1216.26 199.25 1213.65 199.983C1211.03 200.715 1208.29 200.877 1205.61 200.455C1202.92 200.034 1200.36 199.04 1198.1 197.541C1195.83 196.042 1193.92 194.073 1192.48 191.768L1221.07 167.582ZM1192.48 167.383H1251.26V244.795H1192.48V167.383Z" stroke="#D8B478" stroke-width="0.75" stroke-miterlimit="10"/>
<path d="M1411.13 273.691L1424.64 260.914L1411.13 273.691ZM1418.62 272.894L1428.77 263.299L1418.62 272.894ZM1412.39 266.213L1422.54 256.618L1412.39 266.213ZM1435.56 250.591C1436.38 251.475 1436.83 252.65 1436.79 253.86C1436.76 255.069 1436.25 256.217 1435.37 257.052C1434.94 257.462 1434.43 257.781 1433.87 257.992C1433.31 258.203 1432.72 258.301 1432.12 258.28C1431.52 258.259 1430.94 258.121 1430.4 257.872C1429.85 257.623 1429.36 257.269 1428.96 256.83C1428.13 255.947 1427.69 254.772 1427.72 253.562C1427.76 252.352 1428.27 251.204 1429.14 250.368C1429.58 249.959 1430.09 249.64 1430.65 249.43C1431.2 249.219 1431.8 249.121 1432.4 249.142C1432.99 249.163 1433.58 249.302 1434.12 249.55C1434.66 249.799 1435.15 250.153 1435.56 250.591V250.591ZM1347.89 196.652H1353.15H1347.89ZM1350.52 199.282V194.021V199.282ZM1438.82 201.914H1444.08H1438.82ZM1441.45 204.544V199.283V204.544ZM1342.63 244.924H1347.89H1342.63ZM1345.26 247.554V242.293V247.554ZM1361.53 276.405H1366.8H1361.53ZM1364.17 279.035V273.774V279.035ZM1452.05 259.071H1457.31H1452.05ZM1454.68 261.701V256.44V261.701ZM1444.08 226.112H1449.34H1444.08ZM1446.71 228.741V223.48V228.741ZM1400.79 208.181C1407.21 203.787 1412.17 201.87 1413.87 203.573C1416.91 206.614 1408.42 220.033 1394.91 233.547C1381.4 247.06 1367.98 255.55 1364.94 252.509C1363.23 250.805 1365.15 245.841 1369.55 239.427L1400.79 208.181ZM1404.94 211.462C1408.12 214.638 1410.28 218.684 1411.15 223.089C1412.03 227.494 1411.58 232.06 1409.86 236.21C1408.14 240.359 1405.23 243.906 1401.5 246.401C1397.76 248.896 1393.37 250.228 1388.88 250.228C1384.39 250.228 1380 248.896 1376.27 246.401C1372.53 243.906 1369.62 240.359 1367.9 236.21C1366.19 232.06 1365.74 227.494 1366.61 223.089C1367.49 218.684 1369.65 214.638 1372.83 211.462C1377.09 207.204 1382.86 204.812 1388.88 204.812C1394.91 204.812 1400.68 207.204 1404.94 211.462V211.462ZM1454.68 288.03C1454.68 286.107 1455.06 284.203 1455.8 282.426C1456.53 280.65 1457.61 279.035 1458.97 277.675C1460.33 276.315 1461.95 275.237 1463.72 274.501C1465.5 273.765 1467.41 273.386 1469.33 273.386L1454.68 288.03ZM1469.33 288.03H1334.11V185.356H1469.33L1469.33 288.03Z" stroke="#D8B478" stroke-width="0.75" stroke-miterlimit="10"/>
<path d="M1414.52 185.556L1401.72 172.314L1388.93 185.556" stroke="#D8B478" stroke-width="0.75" stroke-miterlimit="10"/>
<path d="M1402.85 172.314C1402.85 172.092 1402.78 171.874 1402.66 171.689C1402.53 171.505 1402.36 171.361 1402.15 171.276C1401.95 171.19 1401.72 171.168 1401.5 171.212C1401.28 171.255 1401.08 171.362 1400.93 171.519C1400.77 171.676 1400.66 171.877 1400.62 172.095C1400.58 172.313 1400.6 172.539 1400.68 172.744C1400.77 172.949 1400.91 173.125 1401.1 173.249C1401.28 173.372 1401.5 173.438 1401.72 173.438C1401.87 173.438 1402.02 173.409 1402.15 173.352C1402.29 173.296 1402.41 173.213 1402.52 173.109C1402.62 173.004 1402.7 172.881 1402.76 172.744C1402.82 172.608 1402.85 172.462 1402.85 172.314Z" fill="#D8B478"/>
<path d="M242.665 285.707L256.18 272.93L242.665 285.707ZM250.155 284.91L260.305 275.315L250.155 284.91ZM243.927 278.229L254.074 268.634L243.927 278.229ZM267.096 262.607C267.923 263.491 268.367 264.665 268.333 265.875C268.299 267.085 267.789 268.232 266.914 269.068C266.479 269.478 265.968 269.797 265.41 270.008C264.851 270.218 264.256 270.316 263.66 270.296C263.063 270.275 262.477 270.136 261.934 269.887C261.391 269.639 260.903 269.285 260.499 268.846C259.671 267.962 259.227 266.788 259.261 265.578C259.295 264.368 259.805 263.22 260.681 262.384C261.115 261.975 261.626 261.656 262.185 261.445C262.744 261.235 263.338 261.137 263.935 261.158C264.532 261.179 265.118 261.317 265.661 261.566C266.203 261.815 266.691 262.169 267.096 262.607V262.607ZM179.427 208.668H184.688H179.427ZM182.056 211.298V206.037V211.298ZM270.358 213.93H275.62H270.358ZM272.988 216.56V211.299V216.56ZM174.164 256.94H179.427H174.164ZM176.797 259.57V254.309V259.57ZM193.073 288.421H198.336H193.073ZM195.704 291.051V285.79V291.051ZM283.592 271.087H288.854H283.592ZM286.222 273.717V268.456V273.717ZM275.62 238.128H280.88H275.62ZM278.25 240.757V235.496V240.757ZM232.331 220.197C238.745 215.803 243.708 213.886 245.411 215.589C248.452 218.63 239.962 232.049 226.449 245.563C212.936 259.076 199.517 267.566 196.477 264.525C194.773 262.821 196.691 257.857 201.085 251.443L232.331 220.197ZM236.478 223.478C239.654 226.654 241.817 230.7 242.694 235.105C243.57 239.51 243.12 244.076 241.402 248.225C239.683 252.375 236.772 255.921 233.038 258.416C229.304 260.912 224.913 262.244 220.422 262.244C215.931 262.244 211.54 260.912 207.806 258.416C204.072 255.921 201.161 252.375 199.442 248.225C197.724 244.076 197.274 239.51 198.15 235.105C199.027 230.7 201.19 226.654 204.366 223.478C208.624 219.22 214.4 216.828 220.422 216.828C226.444 216.828 232.22 219.22 236.479 223.478H236.478ZM286.222 300.046C286.223 298.123 286.601 296.219 287.337 294.442C288.073 292.665 289.152 291.051 290.512 289.691C291.872 288.331 293.486 287.252 295.263 286.517C297.04 285.781 298.944 285.402 300.867 285.402L286.222 300.046ZM300.867 300.046H165.654V197.372H300.867V300.046Z" stroke="#D8B478" stroke-width="0.75" stroke-miterlimit="10"/>
<path d="M246.056 197.572L233.26 184.33L220.464 197.572" stroke="#D8B478" stroke-width="0.75" stroke-miterlimit="10"/>
<path d="M234.384 184.329C234.384 184.107 234.318 183.89 234.195 183.705C234.071 183.52 233.896 183.376 233.69 183.291C233.485 183.206 233.259 183.184 233.041 183.227C232.823 183.27 232.623 183.377 232.465 183.535C232.308 183.692 232.201 183.892 232.158 184.11C232.114 184.328 232.137 184.554 232.222 184.759C232.307 184.965 232.451 185.14 232.636 185.264C232.821 185.387 233.038 185.453 233.26 185.453C233.408 185.453 233.554 185.424 233.69 185.368C233.827 185.311 233.951 185.229 234.055 185.124C234.159 185.02 234.242 184.896 234.299 184.759C234.355 184.623 234.384 184.477 234.384 184.329Z" fill="#D8B478"/>
<path d="M960.518 68.0455C963.771 68.0455 966.951 69.01 969.655 70.8171C972.36 72.6242 974.467 75.1926 975.712 78.1977C976.957 81.2027 977.283 84.5094 976.648 87.6996C976.014 90.8898 974.448 93.8202 972.148 96.1203C969.848 98.4203 966.917 99.9867 963.727 100.621C960.537 101.256 957.23 100.931 954.225 99.6859C951.22 98.4413 948.652 96.3336 946.844 93.6292C945.037 90.9248 944.072 87.7452 944.072 84.4925C944.072 82.3327 944.497 80.194 945.324 78.1986C946.15 76.2032 947.362 74.3901 948.889 72.8628C950.416 71.3355 952.229 70.124 954.224 69.2975C956.22 68.4709 958.359 68.0455 960.518 68.0455V68.0455ZM937.881 41.2215C943.187 41.2216 948.373 42.7949 952.784 45.7425C957.195 48.6901 960.633 52.8796 962.664 57.7812C964.694 62.6828 965.225 68.0763 964.19 73.2797C963.155 78.4831 960.6 83.2628 956.848 87.0142C953.097 90.7656 948.317 93.3203 943.114 94.3552C937.91 95.3901 932.516 94.8588 927.615 92.8285C922.713 90.7981 918.524 87.3598 915.577 82.9485C912.629 78.5372 911.056 73.3509 911.056 68.0455C911.056 64.5229 911.75 61.0347 913.098 57.7802C914.446 54.5257 916.422 51.5686 918.913 49.0778C921.404 46.587 924.361 44.6111 927.616 43.2631C930.87 41.9152 934.359 41.2214 937.881 41.2215V41.2215ZM997.422 57.8865C990.308 57.8865 983.485 55.0603 978.454 50.0296C973.423 44.999 970.597 38.176 970.597 31.0615L997.422 57.8865ZM888.011 73.8605C890.561 70.9758 893.702 68.6737 897.221 67.1107C900.739 65.5477 904.553 64.7604 908.403 64.8024C912.253 64.8443 916.049 65.7145 919.533 67.3538C923.016 68.993 926.107 71.363 928.593 74.3026C931.079 77.2423 932.904 80.6827 933.943 84.3901C934.981 88.0975 935.21 91.9851 934.613 95.7886C934.015 99.5922 932.606 103.223 930.481 106.433C928.356 109.644 925.565 112.359 922.297 114.396L888.011 73.8605ZM997.47 114.394H887.729V31.0615H997.47V114.394Z" stroke="#D8B478" stroke-width="0.75" stroke-miterlimit="10"/>
<path d="M763.342 70.5096H770.523C770.523 68.1244 771.471 65.8369 773.157 64.1502C774.844 62.4636 777.132 61.5161 779.517 61.5161C781.902 61.5161 784.19 62.4636 785.876 64.1502C787.563 65.8369 788.51 68.1244 788.51 70.5096V70.9416C788.509 70.2758 788.639 69.6163 788.893 69.0008C789.147 68.3853 789.52 67.8259 789.99 67.3547C790.46 66.8834 791.019 66.5095 791.634 66.2544C792.249 65.9993 792.908 65.868 793.574 65.868C794.24 65.868 794.899 65.9993 795.514 66.2544C796.129 66.5095 796.688 66.8834 797.158 67.3547C797.628 67.8259 798.001 68.3853 798.255 69.0008C798.509 69.6163 798.639 70.2758 798.637 70.9416H819.163L763.342 70.5096ZM770.443 44.5926H763.261C763.261 42.2075 762.314 39.9201 760.627 38.2336C758.941 36.5471 756.653 35.5996 754.268 35.5996C751.883 35.5996 749.596 36.5471 747.909 38.2336C746.223 39.9201 745.275 42.2075 745.275 44.5926V45.0236C745.275 43.6805 744.742 42.3925 743.792 41.4428C742.842 40.4931 741.554 39.9596 740.211 39.9596C738.868 39.9596 737.58 40.4931 736.63 41.4428C735.681 42.3925 735.147 43.6805 735.147 45.0236H722.598L770.443 44.5926ZM709.635 47.6926C709.635 51.3591 708.548 54.9432 706.511 57.9918C704.474 61.0403 701.579 63.4164 698.191 64.8195C694.804 66.2226 691.077 66.5897 687.481 65.8744C683.885 65.1591 680.582 63.3935 677.989 60.801C675.396 58.2084 673.631 54.9052 672.916 51.3092C672.2 47.7132 672.567 43.9858 673.97 40.5984C675.373 37.211 677.75 34.3158 680.798 32.2788C683.847 30.2418 687.431 29.1546 691.097 29.1546C696.014 29.1546 700.729 31.1077 704.206 34.5843C707.682 38.0608 709.635 42.776 709.635 47.6926L709.635 47.6926ZM827.577 127.152L781.576 80.9776L760.331 102.223L827.577 127.152ZM803.055 144.61L729.736 71.2926L656.419 144.61H803.055ZM827.577 144.61H656.419V14.6416H827.577V144.61Z" stroke="#D8B478" stroke-width="0.855" stroke-miterlimit="10"/>
<path d="M543.637 97.9515V120.427V97.9515ZM531.15 97.9515V120.427V97.9515ZM537.495 195.547V122.174V195.547ZM549.244 91.9355L543.842 97.9515L537.496 91.9355L531.15 97.9515L525.748 91.9355V110.427C525.748 113.543 526.986 116.531 529.189 118.735C531.392 120.938 534.38 122.175 537.496 122.175C540.612 122.175 543.6 120.938 545.803 118.735C548.006 116.531 549.244 113.543 549.244 110.427L549.244 91.9355ZM495.17 97.9515V120.427V97.9515ZM482.684 97.9515V120.427V97.9515ZM489.029 130.949V122.174V130.949ZM500.777 91.9355L495.375 97.9515L489.03 91.9355L482.684 97.9515L477.282 91.9355V110.427C477.282 113.543 478.52 116.531 480.723 118.734C482.926 120.937 485.914 122.175 489.03 122.175C492.145 122.175 495.133 120.937 497.336 118.734C499.54 116.531 500.777 113.543 500.777 110.427L500.777 91.9355ZM495.974 150.96C495.974 152.334 495.567 153.677 494.804 154.819C494.041 155.961 492.956 156.851 491.687 157.377C490.418 157.902 489.021 158.04 487.674 157.772C486.327 157.504 485.09 156.843 484.118 155.871C483.147 154.9 482.486 153.663 482.218 152.315C481.95 150.968 482.087 149.572 482.613 148.303C483.138 147.034 484.029 145.949 485.171 145.186C486.313 144.423 487.656 144.015 489.029 144.015C489.941 144.015 490.844 144.195 491.687 144.544C492.53 144.893 493.295 145.405 493.94 146.049C494.585 146.694 495.097 147.46 495.446 148.303C495.795 149.145 495.974 150.048 495.974 150.96V150.96ZM489.029 195.547V157.905V195.547ZM610.197 85.1365L561.66 131.599L610.197 85.1365ZM561.8 85.1365L610.197 131.599L561.8 85.1365ZM513.263 131.599L561.8 165.075L513.263 131.599ZM610.267 131.599C609.953 131.599 610.267 165.075 610.267 165.075V131.599ZM573.916 131.599C573.603 131.599 573.916 195.547 573.916 195.547V131.599ZM598.15 131.599C597.837 131.599 598.15 195.547 598.15 195.547V131.599ZM586.033 131.599C585.719 131.599 586.033 195.547 586.033 195.547V131.599ZM561.8 85.1365C561.486 85.1365 561.8 195.547 561.8 195.547V85.1365ZM561.8 165.075H610.197H561.8ZM464.796 195.547V85.1365V195.547ZM513.263 195.547V85.1365V195.547ZM464.796 131.599H610.197H464.796ZM610.197 195.547H464.796V85.1365H610.197V195.547Z" stroke="#D8B478" stroke-width="0.75" stroke-miterlimit="10"/>
<path d="M377.212 98.0309L364.416 84.7889L351.619 98.0309H377.212ZM315.983 147.097C318.776 147.097 321.542 146.547 324.122 145.478C326.703 144.409 329.047 142.843 331.022 140.868C332.997 138.893 334.564 136.548 335.633 133.967C336.702 131.387 337.252 128.621 337.252 125.828L315.983 147.097ZM412.848 147.097C410.055 147.097 407.289 146.547 404.708 145.478C402.128 144.409 399.783 142.843 397.808 140.868C395.833 138.893 394.266 136.548 393.198 133.967C392.129 131.387 391.579 128.621 391.579 125.828L412.848 147.097ZM385.685 125.828C385.685 131.469 383.444 136.879 379.455 140.867C375.466 144.856 370.057 147.097 364.416 147.097C358.775 147.097 353.365 144.856 349.376 140.867C345.388 136.879 343.147 131.469 343.147 125.828H385.685ZM385.685 119.21H391.579H385.685ZM382.845 114.389H394.418H382.845ZM391.579 114.389V173.846V114.389ZM385.685 114.389V173.846V114.389ZM337.252 119.21H343.147H337.252ZM334.414 114.389H345.985H334.414ZM343.147 114.389V173.846V114.389ZM337.252 114.389V173.846V114.389ZM314.494 147.097H414.337H314.494ZM414.337 173.846H314.494V98.0309H414.337V173.846Z" stroke="#D8B478" stroke-width="0.75" stroke-miterlimit="10"/>
<path d="M365.539 84.9059C365.539 84.6836 365.473 84.4662 365.35 84.2814C365.226 84.0966 365.051 83.9525 364.845 83.8674C364.64 83.7823 364.414 83.7601 364.196 83.8035C363.978 83.8468 363.778 83.9539 363.621 84.1111C363.463 84.2683 363.356 84.4685 363.313 84.6866C363.27 84.9046 363.292 85.1306 363.377 85.336C363.462 85.5414 363.606 85.7169 363.791 85.8404C363.976 85.9639 364.193 86.0299 364.415 86.0299C364.563 86.0299 364.709 86.0008 364.845 85.9444C364.982 85.8879 365.106 85.8051 365.21 85.7007C365.315 85.5963 365.397 85.4724 365.454 85.336C365.51 85.1996 365.539 85.0535 365.539 84.9059Z" fill="#D8B478"/>
<path d="M43.1503 138.365V243.377V138.365ZM55.1512 171.339V243.377V171.339ZM19.1473 190.848V85.8357V190.848ZM7.14626 157.874V85.8357V157.874ZM31.1483 243.377V85.8357V243.377ZM67.1523 190.849V85.8367V190.849ZM55.1512 157.875V85.8367V157.875ZM91.1553 138.365V243.377V138.365ZM103.156 171.339V243.377V171.339ZM79.1533 85.8367V243.377V85.8367ZM-4.85474 243.762V85.8367H115.157L115.156 243.762H-4.85474Z" stroke="#D8B478" stroke-width="0.878" stroke-miterlimit="10"/>
<path d="M67.948 85.806L55.152 72.564L42.356 85.806" stroke="#D8B478" stroke-width="0.878" stroke-miterlimit="10"/>
<path d="M56.2752 72.2253C56.2752 72.003 56.2093 71.7857 56.0858 71.6009C55.9623 71.416 55.7867 71.2719 55.5814 71.1869C55.376 71.1018 55.15 71.0795 54.9319 71.1229C54.7139 71.1663 54.5136 71.2733 54.3564 71.4305C54.1992 71.5877 54.0922 71.788 54.0488 72.006C54.0054 72.2241 54.0277 72.4501 54.1128 72.6555C54.1979 72.8608 54.3419 73.0364 54.5268 73.1599C54.7116 73.2834 54.9289 73.3493 55.1512 73.3493C55.2988 73.3494 55.445 73.3203 55.5814 73.2638C55.7178 73.2074 55.8417 73.1246 55.9461 73.0202C56.0504 72.9158 56.1332 72.7919 56.1897 72.6555C56.2462 72.5191 56.2752 72.3729 56.2752 72.2253Z" fill="#D8B478"/>
<path d="M417.383 290.743H522.395H417.383ZM450.357 278.742H522.395H450.357ZM469.866 314.746H364.854H469.866ZM436.892 326.747H364.854H436.892ZM522.395 302.745H364.854H522.395ZM469.867 266.741H364.855H469.867ZM436.893 278.742H364.855H436.893ZM417.383 242.738H522.395H417.383ZM450.357 230.737H522.395H450.357ZM364.855 254.74H522.395H364.855ZM522.78 338.748H364.855V218.736L522.78 218.737V338.748Z" stroke="#D8B478" stroke-width="0.878" stroke-miterlimit="10"/>
<path d="M704.931 176.366L692.135 163.124L679.339 176.366" stroke="#D8B478" stroke-width="0.878" stroke-miterlimit="10"/>
<path d="M693.258 163.124C693.258 162.902 693.192 162.684 693.069 162.5C692.945 162.315 692.77 162.171 692.564 162.086C692.359 162 692.133 161.978 691.915 162.022C691.697 162.065 691.497 162.172 691.339 162.329C691.182 162.486 691.075 162.687 691.032 162.905C690.988 163.123 691.011 163.349 691.096 163.554C691.181 163.76 691.325 163.935 691.51 164.059C691.694 164.182 691.912 164.248 692.134 164.248C692.282 164.248 692.428 164.219 692.564 164.163C692.701 164.106 692.825 164.023 692.929 163.919C693.033 163.814 693.116 163.691 693.173 163.554C693.229 163.418 693.258 163.272 693.258 163.124Z" fill="#D8B478"/>
<path d="M754.795 14.366L741.999 1.12402L729.203 14.366" stroke="#D8B478" stroke-width="0.878" stroke-miterlimit="10"/>
<path d="M743.123 1.124C743.123 0.901694 743.057 0.68438 742.933 0.49954C742.81 0.314699 742.634 0.170633 742.429 0.0855599C742.224 0.000487015 741.998 -0.0217719 741.78 0.0215978C741.561 0.0649676 741.361 0.172018 741.204 0.329212C741.047 0.486407 740.94 0.686684 740.896 0.904719C740.853 1.12275 740.875 1.34875 740.96 1.55414C741.045 1.75952 741.189 1.93507 741.374 2.05857C741.559 2.18208 741.776 2.248 741.999 2.248C742.146 2.24803 742.293 2.21898 742.429 2.16251C742.565 2.10603 742.689 2.02324 742.794 1.91886C742.898 1.81448 742.981 1.69056 743.037 1.55418C743.094 1.41779 743.123 1.27162 743.123 1.124Z" fill="#D8B478"/>
<path d="M1355.42 67.251L1342.63 54.009L1329.83 67.251" stroke="#D8B478" stroke-width="0.75" stroke-miterlimit="10"/>
<path d="M1343.75 54.0091C1343.75 53.7868 1343.68 53.5695 1343.56 53.3847C1343.44 53.1998 1343.26 53.0558 1343.06 52.9707C1342.85 52.8856 1342.62 52.8634 1342.41 52.9067C1342.19 52.9501 1341.99 53.0571 1341.83 53.2143C1341.67 53.3715 1341.57 53.5718 1341.52 53.7899C1341.48 54.0079 1341.5 54.2339 1341.59 54.4393C1341.67 54.6447 1341.82 54.8202 1342 54.9437C1342.19 55.0672 1342.4 55.1331 1342.63 55.1331C1342.77 55.1332 1342.92 55.1041 1343.06 55.0476C1343.19 54.9912 1343.32 54.9084 1343.42 54.804C1343.52 54.6996 1343.61 54.5757 1343.66 54.4393C1343.72 54.3029 1343.75 54.1567 1343.75 54.0091Z" fill="#D8B478"/>
<path d="M1234.67 167.383L1221.87 154.141L1209.08 167.383" stroke="#D8B478" stroke-width="0.75" stroke-miterlimit="10"/>
<path d="M1223 154.141C1223 153.919 1222.93 153.701 1222.81 153.517C1222.68 153.332 1222.51 153.188 1222.3 153.103C1222.1 153.018 1221.87 152.995 1221.65 153.039C1221.44 153.082 1221.24 153.189 1221.08 153.346C1220.92 153.503 1220.81 153.704 1220.77 153.922C1220.73 154.14 1220.75 154.366 1220.83 154.571C1220.92 154.777 1221.06 154.952 1221.25 155.076C1221.43 155.199 1221.65 155.265 1221.87 155.265C1222.02 155.265 1222.17 155.236 1222.3 155.18C1222.44 155.123 1222.56 155.04 1222.67 154.936C1222.77 154.832 1222.86 154.708 1222.91 154.571C1222.97 154.435 1223 154.289 1223 154.141Z" fill="#D8B478"/>
<path d="M1107.41 97.289L1094.62 84.047L1081.82 97.289" stroke="#D8B478" stroke-width="0.75" stroke-miterlimit="10"/>
<path d="M1095.74 84.0467C1095.74 83.8244 1095.68 83.6071 1095.55 83.4223C1095.43 83.2374 1095.25 83.0934 1095.05 83.0083C1094.84 82.9232 1094.62 82.901 1094.4 82.9443C1094.18 82.9877 1093.98 83.0947 1093.82 83.2519C1093.67 83.4091 1093.56 83.6094 1093.52 83.8274C1093.47 84.0455 1093.49 84.2715 1093.58 84.4769C1093.66 84.6823 1093.81 84.8578 1093.99 84.9813C1094.18 85.1048 1094.4 85.1707 1094.62 85.1707C1094.77 85.1708 1094.91 85.1417 1095.05 85.0852C1095.18 85.0288 1095.31 84.946 1095.41 84.8416C1095.52 84.7372 1095.6 84.6133 1095.66 84.4769C1095.71 84.3405 1095.74 84.1943 1095.74 84.0467Z" fill="#D8B478"/>
<path d="M955.396 31.0619L942.6 17.8199L929.804 31.0619" stroke="#D8B478" stroke-width="0.75" stroke-miterlimit="10"/>
<path d="M943.724 17.8193C943.724 17.597 943.658 17.3797 943.534 17.1949C943.411 17.01 943.235 16.8659 943.03 16.7809C942.824 16.6958 942.598 16.6735 942.38 16.7169C942.162 16.7603 941.962 16.8673 941.805 17.0245C941.648 17.1817 941.541 17.382 941.497 17.6C941.454 17.8181 941.476 18.0441 941.561 18.2494C941.646 18.4548 941.79 18.6304 941.975 18.7539C942.16 18.8774 942.377 18.9433 942.6 18.9433C942.747 18.9433 942.893 18.9143 943.03 18.8578C943.166 18.8013 943.29 18.7186 943.395 18.6142C943.499 18.5098 943.582 18.3859 943.638 18.2495C943.695 18.1131 943.724 17.9669 943.724 17.8193Z" fill="#D8B478"/>
<path d="M899.754 176.596L886.958 163.354L874.162 176.596" stroke="#D8B478" stroke-width="0.75" stroke-miterlimit="10"/>
<path d="M888.082 163.353C888.082 163.131 888.016 162.914 887.892 162.729C887.769 162.544 887.593 162.4 887.388 162.315C887.182 162.23 886.956 162.208 886.738 162.251C886.52 162.294 886.32 162.402 886.163 162.559C886.006 162.716 885.899 162.916 885.855 163.134C885.812 163.352 885.834 163.578 885.919 163.784C886.004 163.989 886.148 164.165 886.333 164.288C886.518 164.412 886.735 164.477 886.958 164.477C887.105 164.478 887.251 164.448 887.388 164.392C887.524 164.336 887.648 164.253 887.752 164.148C887.857 164.044 887.94 163.92 887.996 163.784C888.053 163.647 888.082 163.501 888.082 163.353Z" fill="#D8B478"/>
<path d="M550.293 85.137L537.497 71.895L524.701 85.137" stroke="#D8B478" stroke-width="0.75" stroke-miterlimit="10"/>
<path d="M538.621 71.8943C538.621 71.672 538.555 71.4546 538.431 71.2698C538.308 71.085 538.132 70.9409 537.927 70.8558C537.721 70.7708 537.495 70.7485 537.277 70.7919C537.059 70.8352 536.859 70.9423 536.702 71.0995C536.545 71.2567 536.438 71.457 536.394 71.675C536.351 71.893 536.373 72.119 536.458 72.3244C536.543 72.5298 536.687 72.7053 536.872 72.8288C537.057 72.9523 537.274 73.0183 537.497 73.0183C537.644 73.0183 537.79 72.9893 537.927 72.9328C538.063 72.8763 538.187 72.7935 538.291 72.6891C538.396 72.5847 538.479 72.4608 538.535 72.3244C538.591 72.1881 538.621 72.0419 538.621 71.8943Z" fill="#D8B478"/>
<path d="M456.613 218.736L443.817 205.494L431.021 218.736" stroke="#D8B478" stroke-width="0.75" stroke-miterlimit="10"/>
<path d="M444.941 205.494C444.941 205.271 444.875 205.054 444.752 204.869C444.628 204.684 444.453 204.54 444.247 204.455C444.042 204.37 443.816 204.348 443.598 204.391C443.38 204.434 443.179 204.542 443.022 204.699C442.865 204.856 442.758 205.056 442.715 205.274C442.671 205.492 442.693 205.718 442.779 205.924C442.864 206.129 443.008 206.305 443.193 206.428C443.377 206.552 443.595 206.618 443.817 206.618C443.965 206.618 444.111 206.588 444.247 206.532C444.384 206.476 444.507 206.393 444.612 206.288C444.716 206.184 444.799 206.06 444.856 205.924C444.912 205.787 444.941 205.641 444.941 205.494Z" fill="#D8B478"/>
</g>
<defs>
<clipPath id="clip0_638:1475">
<rect width="1892.09" height="372.778" fill="white" transform="translate(-227)"/>
</clipPath>
</defs>
</svg>
