<svg width="36" height="26" viewBox="0 0 36 26" fill="none" xmlns="http://www.w3.org/2000/svg">
<path d="M11.9731 21.2686C11.6573 21.2675 11.3537 21.1469 11.1231 20.9311C9.98163 19.8473 9.07264 18.5426 8.45147 17.0964C7.83031 15.6501 7.50998 14.0926 7.50998 12.5186C7.50998 10.9446 7.83031 9.38702 8.45147 7.94077C9.07264 6.49451 9.98163 5.1898 11.1231 4.10607C11.3691 3.90661 11.6816 3.80794 11.9975 3.83001C12.3135 3.85209 12.6092 3.99324 12.8251 4.22497C13.0409 4.4567 13.1608 4.76172 13.1604 5.0784C13.1601 5.39509 13.0395 5.69983 12.8231 5.93106C11.9346 6.78277 11.2275 7.80544 10.7445 8.93753C10.2614 10.0696 10.0124 11.2877 10.0124 12.5186C10.0124 13.7494 10.2614 14.9675 10.7445 16.0996C11.2275 17.2317 11.9346 18.2544 12.8231 19.1061C13.0059 19.2772 13.1331 19.4992 13.1882 19.7435C13.2433 19.9877 13.2238 20.2428 13.1322 20.4758C13.0406 20.7089 12.8811 20.909 12.6745 21.0503C12.4678 21.1917 12.2235 21.2677 11.9731 21.2686ZM6.97313 24.6186C7.20594 24.3844 7.33662 24.0675 7.33662 23.7373C7.33662 23.4071 7.20594 23.0903 6.97313 22.8561C5.57467 21.5219 4.46147 19.9178 3.70087 18.1409C2.94028 16.3641 2.54812 14.4514 2.54812 12.5186C2.54812 10.5858 2.94028 8.67305 3.70087 6.89618C4.46147 5.11932 5.57467 3.51526 6.97313 2.18107C7.21514 1.94734 7.35439 1.62706 7.36025 1.29066C7.36611 0.954269 7.2381 0.629325 7.00438 0.387315C6.77065 0.145305 6.45037 0.00605323 6.11397 0.000192714C5.77758 -0.0056678 5.45264 0.122343 5.21063 0.356065C3.56403 1.92507 2.25317 3.81208 1.3575 5.90273C0.461831 7.99338 0 10.2441 0 12.5186C0 14.793 0.461831 17.0437 1.3575 19.1344C2.25317 21.225 3.56403 23.1121 5.21063 24.6811C5.33091 24.7942 5.47242 24.8824 5.62698 24.9406C5.78155 24.9987 5.94611 25.0257 6.11116 25.0199C6.2762 25.0141 6.43846 24.9756 6.58855 24.9067C6.73865 24.8378 6.8736 24.7399 6.98563 24.6186H6.97313ZM23.8856 20.9311C25.0271 19.8473 25.9361 18.5426 26.5573 17.0964C27.1784 15.6501 27.4988 14.0926 27.4988 12.5186C27.4988 10.9446 27.1784 9.38702 26.5573 7.94077C25.9361 6.49451 25.0271 5.1898 23.8856 4.10607C23.7658 3.99362 23.625 3.90588 23.4713 3.84785C23.3175 3.78982 23.1538 3.76265 22.9896 3.76787C22.8254 3.77309 22.6638 3.81062 22.514 3.87829C22.3643 3.94597 22.2293 4.04248 22.1169 4.16231C22.0044 4.28215 21.9167 4.42295 21.8587 4.57669C21.8006 4.73043 21.7735 4.89409 21.7787 5.05834C21.7839 5.22258 21.8214 5.38419 21.8891 5.53393C21.9568 5.68367 22.0533 5.81862 22.1731 5.93106C23.0665 6.77999 23.7778 7.80176 24.2639 8.93422C24.75 10.0667 25.0006 11.2862 25.0006 12.5186C25.0006 13.7509 24.75 14.9704 24.2639 16.1029C23.7778 17.2354 23.0665 18.2571 22.1731 19.1061C21.9318 19.3319 21.7898 19.6441 21.7781 19.9744C21.7664 20.3047 21.8859 20.6262 22.1106 20.8686C22.2286 20.9958 22.3718 21.097 22.531 21.1659C22.6903 21.2348 22.8621 21.2697 23.0356 21.2686C23.3514 21.2675 23.6551 21.1469 23.8856 20.9311ZM29.7856 24.6811C31.437 23.1149 32.7522 21.2288 33.6509 19.1377C34.5497 17.0467 35.0132 14.7946 35.0132 12.5186C35.0132 10.2426 34.5497 7.99042 33.6509 5.89939C32.7522 3.80837 31.437 1.92227 29.7856 0.356065C29.5396 0.156605 29.2271 0.0579439 28.9112 0.0800152C28.5953 0.102087 28.2995 0.243245 28.0837 0.474971C27.8678 0.706697 27.748 1.01172 27.7483 1.3284C27.7487 1.64509 27.8692 1.94983 28.0856 2.18107C29.4841 3.51526 30.5973 5.11932 31.3579 6.89618C32.1185 8.67305 32.5106 10.5858 32.5106 12.5186C32.5106 14.4514 32.1185 16.3641 31.3579 18.1409C30.5973 19.9178 29.4841 21.5219 28.0856 22.8561C27.8443 23.0819 27.7023 23.3941 27.6906 23.7244C27.6789 24.0547 27.7984 24.3762 28.0231 24.6186C28.1397 24.7442 28.2808 24.8446 28.4378 24.9134C28.5948 24.9822 28.7642 25.018 28.9356 25.0186C29.2514 25.0175 29.5551 24.8969 29.7856 24.6811ZM20.0106 12.5186C20.0106 12.0241 19.864 11.5408 19.5893 11.1296C19.3146 10.7185 18.9242 10.3981 18.4673 10.2089C18.0105 10.0196 17.5079 9.97014 17.0229 10.0666C16.5379 10.1631 16.0925 10.4012 15.7429 10.7508C15.3932 11.1004 15.1551 11.5459 15.0587 12.0308C14.9622 12.5158 15.0117 13.0185 15.2009 13.4753C15.3901 13.9321 15.7106 14.3225 16.1217 14.5972C16.5328 14.8719 17.0162 15.0186 17.5106 15.0186C18.1737 15.0186 18.8096 14.7552 19.2784 14.2863C19.7472 13.8175 20.0106 13.1816 20.0106 12.5186Z" fill="#EA5254"/>
</svg>