<svg width="21" height="18" viewBox="0 0 21 18" fill="none" xmlns="http://www.w3.org/2000/svg">
<path d="M21 1.96875C20.2125 2.3625 19.425 2.49375 18.5063 2.625C19.425 2.1 20.0812 1.3125 20.3438 0.2625C19.5562 0.7875 18.6375 1.05 17.5875 1.3125C16.8 0.525 15.6187 0 14.4375 0C11.6813 0 9.58125 2.625 10.2375 5.25C6.69375 5.11875 3.54375 3.4125 1.3125 0.787501C0.13125 2.75625 0.7875 5.25 2.625 6.5625C1.96875 6.5625 1.3125 6.3 0.65625 6.0375C0.65625 8.00625 2.1 9.84375 4.06875 10.3687C3.4125 10.5 2.75625 10.6313 2.1 10.5C2.625 12.2063 4.2 13.5187 6.16875 13.5187C4.59375 14.7 2.23125 15.3562 0 15.0938C1.96875 16.275 4.2 17.0625 6.5625 17.0625C14.5687 17.0625 19.0312 10.3687 18.7687 4.2C19.6875 3.675 20.475 2.8875 21 1.96875Z"/>
</svg>
