<svg width="60" height="55" viewBox="0 0 60 55" fill="none" xmlns="http://www.w3.org/2000/svg">
    <path d="M1.39315 23.9653C1.72306 23.8379 2.07967 23.7941 2.43082 23.838C1.38869 22.4447 0.74028 20.7994 0.552822 19.0728C0.365364 17.3462 0.645691 15.6012 1.36472 14.0186C3.85228 8.48329 9.1259 6.01607 15.1529 7.26735C14.3056 6.53821 13.6213 5.64068 13.1439 4.63253C12.6665 3.62438 12.4066 2.52797 12.3811 1.41388V1.15231L17.4343 0L17.1287 0.657455C16.5033 1.9865 15.1174 5.71915 16.084 7.11182C16.6634 7.53394 17.303 7.86753 17.9816 8.10154C19.689 8.74412 21.3511 9.49989 22.9567 10.3638L23.0989 10.4132C23.2592 10.4832 23.4097 10.5735 23.5466 10.6819C27.9247 13.1067 31.983 16.2031 35.9418 19.2288C35.8833 18.8284 35.9375 18.4198 36.0981 18.0482C36.2432 17.724 36.4662 17.4402 36.7475 17.222C37.0288 17.0037 37.3598 16.8576 37.7113 16.7966C38.0627 16.7356 38.4239 16.7615 38.7629 16.8721C39.1019 16.9827 39.4084 17.1746 39.6553 17.4308C39.9021 17.687 40.0818 17.9997 40.1785 18.3413C40.2753 18.6829 40.286 19.0429 40.2098 19.3896C40.1336 19.7363 39.9728 20.059 39.7417 20.3293C39.5105 20.5996 39.216 20.8092 38.8842 20.9396C38.7158 20.9986 38.542 21.0412 38.3654 21.0668C45.3021 26.3477 52.0825 30.9004 60 30.7449V31.4518H59.602C55.9488 31.3903 52.3572 30.5057 49.0974 28.8644C26.5175 27.3586 21.4429 39.5887 21.386 39.6947C20.49 41.7256 20.4403 44.0271 21.2476 46.0944C22.055 48.1618 23.6537 49.8263 25.693 50.723C27.3045 51.4287 29.1311 51.4717 30.7743 50.8425C32.4174 50.2134 33.7436 48.9633 34.4634 47.365C34.7423 46.7376 34.894 46.0615 34.9099 45.3757C34.9258 44.6898 34.8055 44.0075 34.556 43.368C34.3064 42.7284 33.9325 42.1441 33.4557 41.6484C32.9788 41.1527 32.4083 40.7555 31.7769 40.4794C30.9344 40.1021 29.9887 40.0182 29.0924 40.2414C28.1961 40.4646 27.4016 40.9818 26.8373 41.7095C27.0711 41.7657 27.2766 41.9042 27.4156 42.0994C27.5546 42.2947 27.6179 42.5334 27.5936 42.7714C27.5693 43.0095 27.4592 43.2307 27.2835 43.3942C27.1079 43.5577 26.8787 43.6523 26.6383 43.6607C26.3756 43.6664 26.1213 43.5685 25.9309 43.3883C25.7405 43.2082 25.6294 42.9605 25.622 42.6992C25.6199 42.5534 25.649 42.4089 25.7072 42.2751C25.9612 41.694 26.3289 41.1692 26.7889 40.731C27.249 40.2928 27.7921 39.9502 28.3867 39.723C29.5836 39.2626 30.9153 39.2931 32.0896 39.8078C33.53 40.4454 34.6579 41.6245 35.2266 43.0871C35.7953 44.5497 35.7586 46.1767 35.1244 47.6125C34.5469 48.9146 33.6011 50.0215 32.4022 50.7985C31.2034 51.5754 29.8033 51.9889 28.3725 51.9884C27.8147 51.9858 27.259 51.9194 26.7165 51.7905C26.7586 51.8661 26.7966 51.944 26.8302 52.0238C26.9381 52.29 26.9916 52.5748 26.9877 52.8618C26.9837 53.1488 26.9224 53.4321 26.8073 53.6953C26.6922 53.9585 26.5257 54.1962 26.3173 54.3947C26.1089 54.5933 25.8629 54.7485 25.5935 54.8515C25.3397 54.9497 25.0698 55 24.7975 55C24.4963 55.0008 24.1984 54.9382 23.9233 54.8162C23.5282 54.6442 23.1934 54.3592 22.9615 53.9975C22.7296 53.6358 22.6111 53.2136 22.621 52.7847C22.6309 52.3558 22.7688 51.9396 23.0171 51.5888C23.2655 51.2381 23.6131 50.9687 24.0157 50.8149C24.0821 50.7886 24.1512 50.7697 24.2218 50.7583C22.3767 49.5994 21.0105 47.8207 20.3715 45.7453C19.7325 43.6698 19.863 41.4352 20.7392 39.4473C20.789 39.313 22.0541 36.16 26.2332 33.1767C29.8721 30.5752 36.489 27.6697 47.5551 28.1009C43.4897 25.9306 39.5736 22.9402 35.5367 19.865C31.9562 17.011 28.2063 14.3741 24.3071 11.9685C24.3738 12.2838 24.3688 12.61 24.2926 12.9231C24.2163 13.2363 24.0707 13.5285 23.8664 13.7785C23.662 14.0285 23.4041 14.23 23.1115 14.3681C22.8188 14.5063 22.4988 14.5777 22.1749 14.5771C21.8717 14.5755 21.572 14.5129 21.2936 14.3933C20.7649 14.1603 20.3507 13.7281 20.1422 13.1915C20.0308 12.9298 19.9734 12.6486 19.9734 12.3644C19.9734 12.0802 20.0308 11.7989 20.1422 11.5373C20.2571 11.2753 20.423 11.0386 20.6304 10.8409C20.8378 10.6431 21.0825 10.4881 21.3505 10.385C20.0012 9.70563 18.6129 9.10604 17.1927 8.58933C10.4976 6.17866 4.66251 8.37018 1.96885 14.3085C1.47272 15.396 1.19759 16.5704 1.15926 17.764C1.12094 18.9577 1.32018 20.1471 1.74552 21.264C2.17087 22.3808 2.81393 23.403 3.63776 24.2718C4.46158 25.1406 5.44992 25.8389 6.54595 26.3265C7.41052 26.7152 8.3437 26.9305 9.29204 26.96C10.2404 26.9896 11.1853 26.8327 12.0726 26.4984C12.9599 26.1642 13.7722 25.6591 14.463 25.0122C15.1537 24.3652 15.7094 23.589 16.0982 22.7281C16.4106 22.0495 16.5848 21.3161 16.6109 20.5701C16.637 19.8242 16.5143 19.0805 16.25 18.3819C15.9858 17.6833 15.5851 17.0437 15.0711 16.4999C14.5571 15.956 13.9399 15.5188 13.2552 15.2134C13.0506 15.1236 12.8391 15.0503 12.6227 14.9942L12.4948 14.9589C12.2898 14.9041 12.0806 14.8663 11.8693 14.8458H11.7485C11.5497 14.8316 11.3502 14.8316 11.1515 14.8458H11.0946C10.8866 14.8615 10.6799 14.8922 10.4763 14.9377H10.3981C9.68738 15.4537 9.45284 17.5887 9.49548 18.84V19.5469L6.51041 17.4261L6.69521 17.1433C7.26453 15.8926 8.309 14.9172 9.59985 14.4309C10.8907 13.9446 12.3227 13.987 13.5822 14.5488C14.3542 14.8949 15.05 15.3889 15.6298 16.0028C16.2096 16.6167 16.662 17.3382 16.961 18.1262C17.2601 18.9142 17.4 19.7531 17.3726 20.595C17.3453 21.4368 17.1513 22.265 16.8018 23.0321C15.9375 24.9417 14.3459 26.4315 12.3773 27.1739C10.4087 27.9163 8.22416 27.8505 6.3043 26.991C5.60848 26.6738 4.95052 26.2802 4.34269 25.8175C4.37577 26.175 4.31708 26.535 4.17211 26.8637C3.99972 27.2477 3.71958 27.574 3.36531 27.8035C3.01105 28.033 2.59772 28.1559 2.17496 28.1574C1.87412 28.155 1.57684 28.0925 1.30076 27.9736C1.03746 27.8606 0.799767 27.696 0.601933 27.4895C0.404099 27.283 0.250179 27.0389 0.149376 26.7718C0.0450134 26.5064 -0.00558853 26.2231 0.000484467 25.9381C0.00656128 25.6532 0.0691872 25.3722 0.184769 25.1114C0.300346 24.8506 0.466602 24.6151 0.673977 24.4184C0.881351 24.2217 1.12576 24.0677 1.39315 23.9653ZM23.4258 53.3316C23.5661 53.6937 23.8445 53.9859 24.2005 54.1446C24.3785 54.2181 24.5693 54.2559 24.762 54.2559C24.9547 54.2559 25.1455 54.2181 25.3235 54.1446C25.6874 54.0051 25.9812 53.7281 26.1408 53.374C26.2147 53.197 26.2527 53.0072 26.2527 52.8155C26.2527 52.6239 26.2147 52.4341 26.1408 52.2571C26.033 51.9838 25.8454 51.7489 25.6022 51.5826C25.359 51.4163 25.0713 51.3262 24.7762 51.3239C24.594 51.3246 24.4133 51.3581 24.2431 51.4229C24.0632 51.4944 23.8992 51.6006 23.7606 51.7354C23.622 51.8702 23.5116 52.0309 23.4356 52.2083C23.3597 52.3856 23.3197 52.5762 23.318 52.769C23.3163 52.9617 23.353 53.153 23.4258 53.3316ZM39.3888 19.5257C39.5425 19.17 39.5497 18.7685 39.4088 18.4075C39.2679 18.0466 38.9902 17.7551 38.6354 17.5958C38.4485 17.5181 38.2481 17.4772 38.0455 17.4756C37.8631 17.4742 37.6821 17.5078 37.5125 17.5745C37.3326 17.6433 37.1682 17.7469 37.0289 17.8792C36.8895 18.0116 36.778 18.1701 36.7006 18.3457C36.6233 18.5212 36.5817 18.7103 36.5783 18.9019C36.575 19.0935 36.6098 19.2839 36.6809 19.4621C36.8223 19.8223 37.1012 20.1122 37.4568 20.2685C37.8123 20.4248 38.2156 20.4348 38.5786 20.2963C38.9403 20.1558 39.2316 19.8788 39.3888 19.5257ZM16.1977 1.00386L13.0989 1.7108C13.2145 3.39043 13.9099 4.97875 15.0676 6.20694C14.8828 4.47493 15.7286 2.12082 16.1977 1.00386ZM22.182 10.9505C21.9996 10.9492 21.8186 10.9828 21.649 11.0495C21.4685 11.1166 21.3036 11.2195 21.1643 11.352C21.025 11.4844 20.9142 11.6437 20.8387 11.82C20.7648 11.9971 20.7268 12.1869 20.7268 12.3785C20.7268 12.5702 20.7648 12.76 20.8387 12.937C20.9831 13.2965 21.2635 13.5854 21.6197 13.7414C21.9759 13.8974 22.3794 13.9081 22.7435 13.7712C23.1061 13.6284 23.3974 13.3489 23.5537 12.9936C23.6276 12.8166 23.6657 12.6268 23.6657 12.4351C23.6657 12.2434 23.6276 12.0536 23.5537 11.8766C23.458 11.6536 23.3063 11.4589 23.1131 11.3111L22.6227 11.0424C22.4809 10.9911 22.3326 10.9601 22.182 10.9505ZM9.28937 15.3477L9.2254 15.383C9.07615 15.4679 8.94111 15.5527 8.79897 15.6517L8.735 15.7012C8.58264 15.8142 8.43782 15.937 8.30146 16.0688L8.20195 16.1748C8.08117 16.2936 7.96951 16.4212 7.86791 16.5566L7.81105 16.6272C7.69608 16.7852 7.59161 16.9505 7.49833 17.1221C7.49968 17.1409 7.49968 17.1598 7.49833 17.1787L8.8274 18.1472C8.82653 17.1952 8.98259 16.2495 9.28937 15.3477ZM0.810356 26.5103C0.950638 26.8723 1.2291 27.1645 1.58505 27.3233C1.76302 27.3968 1.95383 27.4346 2.14653 27.4346C2.33923 27.4346 2.53004 27.3968 2.708 27.3233C3.07199 27.1837 3.36578 26.9067 3.52534 26.5527C3.59925 26.3757 3.63729 26.1859 3.63729 25.9942C3.63729 25.8025 3.59925 25.6127 3.52534 25.4357C3.38506 25.0737 3.1066 24.7815 2.75065 24.6227C2.5637 24.545 2.36335 24.5042 2.16074 24.5026C1.97851 24.5032 1.7979 24.5368 1.6277 24.6015C1.44772 24.6731 1.28373 24.7793 1.14515 24.9141C1.00658 25.0489 0.896141 25.2096 0.82019 25.3869C0.74424 25.5643 0.704273 25.7549 0.702583 25.9476C0.700897 26.1404 0.737522 26.3316 0.810356 26.5103Z" fill="#000000"/>
    <path d="M13.0347 34.2583C13.2314 34.2542 13.4249 34.3082 13.5909 34.4134C13.7568 34.5187 13.8876 34.6705 13.9667 34.8497C14.0459 35.0289 14.0698 35.2274 14.0356 35.4201C14.0013 35.6129 13.9104 35.7912 13.7743 35.9325C13.6381 36.0738 13.4629 36.1718 13.2708 36.2141C13.0787 36.2564 12.8782 36.2411 12.6949 36.1701C12.5115 36.0992 12.3534 35.9757 12.2405 35.8153C12.1277 35.655 12.0652 35.4649 12.061 35.2693C12.0571 35.0073 12.1571 34.7543 12.3394 34.5652C12.5216 34.376 12.7714 34.2657 13.0347 34.2583Z" fill="#000000"/>
</svg>
