<svg width="60" height="55" viewBox="0 0 60 55" fill="none" xmlns="http://www.w3.org/2000/svg">
    <path d="M58.6068 23.9653C58.2769 23.8379 57.9203 23.7941 57.5692 23.838C58.6113 22.4447 59.2597 20.7994 59.4472 19.0728C59.6346 17.3462 59.3543 15.6012 58.6353 14.0186C56.1477 8.48329 50.8741 6.01607 44.8471 7.26735C45.6944 6.53821 46.3787 5.64068 46.8561 4.63253C47.3335 3.62438 47.5934 2.52797 47.6189 1.41388V1.15231L42.5657 0L42.8713 0.657455C43.4967 1.9865 44.8826 5.71915 43.916 7.11182C43.3366 7.53394 42.697 7.86753 42.0184 8.10154C40.311 8.74412 38.6489 9.49989 37.0433 10.3638L36.9011 10.4132C36.7408 10.4832 36.5903 10.5735 36.4534 10.6819C32.0753 13.1067 28.017 16.2031 24.0582 19.2288C24.1167 18.8284 24.0625 18.4198 23.9019 18.0482C23.7568 17.724 23.5338 17.4402 23.2525 17.222C22.9712 17.0037 22.6402 16.8576 22.2887 16.7966C21.9373 16.7356 21.5761 16.7615 21.2371 16.8721C20.8981 16.9827 20.5916 17.1746 20.3447 17.4308C20.0979 17.687 19.9182 17.9997 19.8215 18.3413C19.7247 18.6829 19.714 19.0429 19.7902 19.3896C19.8664 19.7363 20.0272 20.059 20.2583 20.3293C20.4895 20.5996 20.784 20.8092 21.1158 20.9396C21.2842 20.9986 21.458 21.0412 21.6346 21.0668C14.6979 26.3477 7.91754 30.9004 0 30.7449V31.4518H0.398009C4.05117 31.3903 7.64276 30.5057 10.9026 28.8644C33.4825 27.3586 38.5571 39.5887 38.614 39.6947C39.51 41.7256 39.5597 44.0271 38.7524 46.0944C37.945 48.1618 36.3463 49.8263 34.307 50.723C32.6955 51.4287 30.8689 51.4717 29.2257 50.8425C27.5826 50.2134 26.2564 48.9633 25.5366 47.365C25.2577 46.7376 25.106 46.0615 25.0901 45.3757C25.0742 44.6898 25.1945 44.0075 25.444 43.368C25.6936 42.7284 26.0675 42.1441 26.5443 41.6484C27.0212 41.1527 27.5917 40.7555 28.2231 40.4794C29.0656 40.1021 30.0113 40.0182 30.9076 40.2414C31.8039 40.4646 32.5984 40.9818 33.1627 41.7095C32.9289 41.7657 32.7234 41.9042 32.5844 42.0994C32.4454 42.2947 32.3821 42.5334 32.4064 42.7714C32.4307 43.0095 32.5408 43.2307 32.7165 43.3942C32.8921 43.5577 33.1213 43.6523 33.3617 43.6607C33.6244 43.6664 33.8787 43.5685 34.0691 43.3883C34.2595 43.2082 34.3706 42.9605 34.378 42.6992C34.3801 42.5534 34.351 42.4089 34.2928 42.2751C34.0388 41.694 33.6711 41.1692 33.2111 40.731C32.751 40.2928 32.2079 39.9502 31.6133 39.723C30.4164 39.2626 29.0847 39.2931 27.9104 39.8078C26.47 40.4454 25.3421 41.6245 24.7734 43.0871C24.2047 44.5497 24.2414 46.1767 24.8756 47.6125C25.4531 48.9146 26.3989 50.0215 27.5978 50.7985C28.7966 51.5754 30.1967 51.9889 31.6275 51.9884C32.1853 51.9858 32.741 51.9194 33.2835 51.7905C33.2414 51.8661 33.2034 51.944 33.1698 52.0238C33.0619 52.29 33.0084 52.5748 33.0123 52.8618C33.0163 53.1488 33.0776 53.4321 33.1927 53.6953C33.3078 53.9585 33.4743 54.1962 33.6827 54.3947C33.8911 54.5933 34.1371 54.7485 34.4065 54.8515C34.6603 54.9497 34.9302 55 35.2025 55C35.5037 55.0008 35.8016 54.9382 36.0767 54.8162C36.4718 54.6442 36.8066 54.3592 37.0385 53.9975C37.2704 53.6358 37.3889 53.2136 37.379 52.7847C37.3691 52.3558 37.2312 51.9396 36.9829 51.5888C36.7345 51.2381 36.3869 50.9687 35.9843 50.8149C35.9179 50.7886 35.8488 50.7697 35.7782 50.7583C37.6233 49.5994 38.9895 47.8207 39.6285 45.7453C40.2675 43.6698 40.137 41.4352 39.2608 39.4473C39.211 39.313 37.9459 36.16 33.7668 33.1767C30.1279 30.5752 23.511 27.6697 12.4449 28.1009C16.5103 25.9306 20.4264 22.9402 24.4633 19.865C28.0438 17.011 31.7937 14.3741 35.6929 11.9685C35.6262 12.2838 35.6312 12.61 35.7074 12.9231C35.7837 13.2363 35.9293 13.5285 36.1336 13.7785C36.338 14.0285 36.5959 14.23 36.8885 14.3681C37.1812 14.5063 37.5012 14.5777 37.8251 14.5771C38.1283 14.5755 38.428 14.5129 38.7064 14.3933C39.2351 14.1603 39.6493 13.7281 39.8578 13.1915C39.9692 12.9298 40.0266 12.6486 40.0266 12.3644C40.0266 12.0802 39.9692 11.7989 39.8578 11.5373C39.7429 11.2753 39.577 11.0386 39.3696 10.8409C39.1622 10.6431 38.9175 10.4881 38.6495 10.385C39.9988 9.70563 41.3871 9.10604 42.8073 8.58933C49.5024 6.17866 55.3375 8.37018 58.0312 14.3085C58.5273 15.396 58.8024 16.5704 58.8407 17.764C58.8791 18.9577 58.6798 20.1471 58.2545 21.264C57.8291 22.3808 57.1861 23.403 56.3622 24.2718C55.5384 25.1406 54.5501 25.8389 53.454 26.3265C52.5895 26.7152 51.6563 26.9305 50.708 26.96C49.7596 26.9896 48.8147 26.8327 47.9274 26.4984C47.0401 26.1642 46.2278 25.6591 45.537 25.0122C44.8463 24.3652 44.2906 23.589 43.9018 22.7281C43.5894 22.0495 43.4152 21.3161 43.3891 20.5701C43.363 19.8242 43.4857 19.0805 43.75 18.3819C44.0142 17.6833 44.4149 17.0437 44.9289 16.4999C45.4429 15.956 46.0601 15.5188 46.7448 15.2134C46.9494 15.1236 47.1609 15.0503 47.3773 14.9942L47.5052 14.9589C47.7102 14.9041 47.9194 14.8663 48.1307 14.8458H48.2515C48.4503 14.8316 48.6498 14.8316 48.8485 14.8458H48.9054C49.1134 14.8615 49.3201 14.8922 49.5237 14.9377H49.6019C50.3126 15.4537 50.5472 17.5887 50.5045 18.84V19.5469L53.4896 17.4261L53.3048 17.1433C52.7355 15.8926 51.691 14.9172 50.4002 14.4309C49.1093 13.9446 47.6773 13.987 46.4178 14.5488C45.6458 14.8949 44.95 15.3889 44.3702 16.0028C43.7904 16.6167 43.338 17.3382 43.039 18.1262C42.7399 18.9142 42.6 19.7531 42.6274 20.595C42.6547 21.4368 42.8487 22.265 43.1982 23.0321C44.0625 24.9417 45.6541 26.4315 47.6227 27.1739C49.5913 27.9163 51.7758 27.8505 53.6957 26.991C54.3915 26.6738 55.0495 26.2802 55.6573 25.8175C55.6242 26.175 55.6829 26.535 55.8279 26.8637C56.0003 27.2477 56.2804 27.574 56.6347 27.8035C56.989 28.033 57.4023 28.1559 57.825 28.1574C58.1259 28.155 58.4232 28.0925 58.6992 27.9736C58.9625 27.8606 59.2002 27.696 59.3981 27.4895C59.5959 27.283 59.7498 27.0389 59.8506 26.7718C59.955 26.5064 60.0056 26.2231 59.9995 25.9381C59.9934 25.6532 59.9308 25.3722 59.8152 25.1114C59.6997 24.8506 59.5334 24.6151 59.326 24.4184C59.1186 24.2217 58.8742 24.0677 58.6068 23.9653ZM36.5742 53.3316C36.4339 53.6937 36.1555 53.9859 35.7995 54.1446C35.6215 54.2181 35.4307 54.2559 35.238 54.2559C35.0453 54.2559 34.8545 54.2181 34.6765 54.1446C34.3126 54.0051 34.0188 53.7281 33.8592 53.374C33.7853 53.197 33.7473 53.0072 33.7473 52.8155C33.7473 52.6239 33.7853 52.4341 33.8592 52.2571C33.967 51.9838 34.1546 51.7489 34.3978 51.5826C34.641 51.4163 34.9287 51.3262 35.2238 51.3239C35.406 51.3246 35.5867 51.3581 35.7569 51.4229C35.9368 51.4944 36.1008 51.6006 36.2394 51.7354C36.378 51.8702 36.4884 52.0309 36.5644 52.2083C36.6403 52.3856 36.6803 52.5762 36.682 52.769C36.6837 52.9617 36.647 53.153 36.5742 53.3316ZM20.6112 19.5257C20.4575 19.17 20.4503 18.7685 20.5912 18.4075C20.7321 18.0466 21.0098 17.7551 21.3646 17.5958C21.5515 17.5181 21.7519 17.4772 21.9545 17.4756C22.1369 17.4742 22.3179 17.5078 22.4875 17.5745C22.6674 17.6433 22.8318 17.7469 22.9711 17.8792C23.1105 18.0116 23.222 18.1701 23.2994 18.3457C23.3767 18.5212 23.4183 18.7103 23.4217 18.9019C23.425 19.0935 23.3902 19.2839 23.3191 19.4621C23.1777 19.8223 22.8988 20.1122 22.5432 20.2685C22.1877 20.4248 21.7844 20.4348 21.4214 20.2963C21.0597 20.1558 20.7684 19.8788 20.6112 19.5257ZM43.8023 1.00386L46.9011 1.7108C46.7855 3.39043 46.0901 4.97875 44.9324 6.20694C45.1172 4.47493 44.2714 2.12082 43.8023 1.00386ZM37.818 10.9505C38.0004 10.9492 38.1814 10.9828 38.351 11.0495C38.5315 11.1166 38.6964 11.2195 38.8357 11.352C38.975 11.4844 39.0858 11.6437 39.1613 11.82C39.2352 11.9971 39.2732 12.1869 39.2732 12.3785C39.2732 12.5702 39.2352 12.76 39.1613 12.937C39.0169 13.2965 38.7365 13.5854 38.3803 13.7414C38.0241 13.8974 37.6206 13.9081 37.2565 13.7712C36.8939 13.6284 36.6026 13.3489 36.4463 12.9936C36.3724 12.8166 36.3343 12.6268 36.3343 12.4351C36.3343 12.2434 36.3724 12.0536 36.4463 11.8766C36.542 11.6536 36.6937 11.4589 36.8869 11.3111L37.3773 11.0424C37.5191 10.9911 37.6674 10.9601 37.818 10.9505ZM50.7106 15.3477L50.7746 15.383C50.9239 15.4679 51.0589 15.5527 51.201 15.6517L51.265 15.7012C51.4174 15.8142 51.5622 15.937 51.6985 16.0688L51.798 16.1748C51.9188 16.2936 52.0305 16.4212 52.1321 16.5566L52.1889 16.6272C52.3039 16.7852 52.4084 16.9505 52.5017 17.1221C52.5003 17.1409 52.5003 17.1598 52.5017 17.1787L51.1726 18.1472C51.1735 17.1952 51.0174 16.2495 50.7106 15.3477ZM59.1896 26.5103C59.0494 26.8723 58.7709 27.1645 58.415 27.3233C58.237 27.3968 58.0462 27.4346 57.8535 27.4346C57.6608 27.4346 57.47 27.3968 57.292 27.3233C56.928 27.1837 56.6342 26.9067 56.4747 26.5527C56.4008 26.3757 56.3627 26.1859 56.3627 25.9942C56.3627 25.8025 56.4008 25.6127 56.4747 25.4357C56.6149 25.0737 56.8934 24.7815 57.2494 24.6227C57.4363 24.545 57.6367 24.5042 57.8393 24.5026C58.0215 24.5032 58.2021 24.5368 58.3723 24.6015C58.5523 24.6731 58.7163 24.7793 58.8548 24.9141C58.9934 25.0489 59.1039 25.2096 59.1798 25.3869C59.2558 25.5643 59.2957 25.7549 59.2974 25.9476C59.2991 26.1404 59.2625 26.3316 59.1896 26.5103Z" fill="#EA5254"/>
    <path d="M46.9654 34.2583C46.7686 34.2542 46.5751 34.3082 46.4092 34.4134C46.2433 34.5187 46.1124 34.6705 46.0333 34.8497C45.9541 35.0289 45.9302 35.2274 45.9644 35.4201C45.9987 35.6129 46.0896 35.7912 46.2257 35.9325C46.3619 36.0738 46.5371 36.1718 46.7292 36.2141C46.9214 36.2564 47.1218 36.2411 47.3052 36.1701C47.4885 36.0992 47.6466 35.9757 47.7595 35.8153C47.8723 35.655 47.9348 35.4649 47.9391 35.2693C47.9429 35.0073 47.8429 34.7543 47.6607 34.5652C47.4784 34.376 47.2287 34.2657 46.9654 34.2583Z" fill="#EA5254"/>
</svg>
