<svg width="60" height="55" viewBox="0 0 60 55" fill="none" xmlns="http://www.w3.org/2000/svg">
    <path d="M1.39315 31.0347C1.72306 31.1621 2.07967 31.2059 2.43082 31.162C1.38869 32.5553 0.74028 34.2006 0.552822 35.9272C0.365364 37.6538 0.645691 39.3988 1.36472 40.9814C3.85228 46.5167 9.1259 48.9839 15.1529 47.7326C14.3056 48.4618 13.6213 49.3593 13.1439 50.3675C12.6665 51.3756 12.4066 52.472 12.3811 53.5861V53.8477L17.4343 55L17.1287 54.3425C16.5033 53.0135 15.1174 49.2808 16.084 47.8882C16.6634 47.4661 17.303 47.1325 17.9816 46.8985C19.689 46.2559 21.3511 45.5001 22.9567 44.6362L23.0989 44.5868C23.2592 44.5168 23.4097 44.4265 23.5466 44.3181C27.9247 41.8933 31.983 38.7969 35.9418 35.7712C35.8833 36.1716 35.9375 36.5802 36.0981 36.9518C36.2432 37.276 36.4662 37.5598 36.7475 37.778C37.0288 37.9963 37.3598 38.1424 37.7113 38.2034C38.0627 38.2644 38.4239 38.2385 38.7629 38.1279C39.1019 38.0173 39.4084 37.8254 39.6553 37.5692C39.9021 37.313 40.0818 37.0003 40.1785 36.6587C40.2753 36.3171 40.286 35.9571 40.2098 35.6104C40.1336 35.2637 39.9728 34.941 39.7417 34.6707C39.5105 34.4004 39.216 34.1908 38.8842 34.0604C38.7158 34.0014 38.542 33.9588 38.3654 33.9332C45.3021 28.6523 52.0825 24.0996 60 24.2551V23.5482H59.602C55.9488 23.6097 52.3572 24.4943 49.0974 26.1356C26.5175 27.6414 21.4429 15.4113 21.386 15.3053C20.49 13.2744 20.4403 10.9729 21.2476 8.90559C22.055 6.83824 23.6537 5.17372 25.693 4.277C27.3045 3.57132 29.1311 3.52834 30.7743 4.15747C32.4174 4.78659 33.7436 6.03672 34.4634 7.63497C34.7423 8.26244 34.894 8.93847 34.9099 9.62433C34.9258 10.3102 34.8055 10.9925 34.556 11.632C34.3064 12.2716 33.9325 12.8559 33.4557 13.3516C32.9788 13.8473 32.4083 14.2445 31.7769 14.5206C30.9344 14.8979 29.9887 14.9818 29.0924 14.7586C28.1961 14.5354 27.4016 14.0182 26.8373 13.2905C27.0711 13.2343 27.2766 13.0958 27.4156 12.9006C27.5546 12.7053 27.6179 12.4666 27.5936 12.2286C27.5693 11.9905 27.4592 11.7693 27.2835 11.6058C27.1079 11.4423 26.8787 11.3477 26.6383 11.3393C26.3756 11.3336 26.1213 11.4315 25.9309 11.6117C25.7405 11.7918 25.6294 12.0395 25.622 12.3008C25.6199 12.4466 25.649 12.5911 25.7072 12.7249C25.9612 13.306 26.3289 13.8308 26.7889 14.269C27.249 14.7072 27.7921 15.0498 28.3867 15.277C29.5836 15.7374 30.9153 15.7069 32.0896 15.1922C33.53 14.5546 34.6579 13.3755 35.2266 11.9129C35.7953 10.4503 35.7586 8.82326 35.1244 7.38754C34.5469 6.08543 33.6011 4.97849 32.4022 4.20153C31.2034 3.42457 29.8033 3.01114 28.3725 3.01158C27.8147 3.01422 27.259 3.08064 26.7165 3.20952C26.7586 3.13388 26.7966 3.056 26.8302 2.97623C26.9381 2.71004 26.9916 2.42516 26.9877 2.13818C26.9837 1.85121 26.9224 1.56788 26.8073 1.3047C26.6922 1.04152 26.5257 0.803757 26.3173 0.605251C26.1089 0.406746 25.8629 0.251472 25.5935 0.148472C25.3397 0.0503311 25.0698 -1.52588e-05 24.7975 1.14441e-05C24.4963 -0.00082016 24.1984 0.0618248 23.9233 0.183815C23.5282 0.355812 23.1934 0.640781 22.9615 1.00251C22.7296 1.36423 22.6111 1.78637 22.621 2.21527C22.6309 2.64417 22.7688 3.06044 23.0171 3.4112C23.2655 3.76195 23.6131 4.03133 24.0157 4.1851C24.0821 4.21137 24.1512 4.23033 24.2218 4.24165C22.3767 5.40059 21.0105 7.17928 20.3715 9.25474C19.7325 11.3302 19.863 13.5648 20.7392 15.5527C20.789 15.687 22.0541 18.84 26.2332 21.8233C29.8721 24.4248 36.489 27.3303 47.5551 26.8991C43.4897 29.0694 39.5736 32.0598 35.5367 35.135C31.9562 37.989 28.2063 40.6259 24.3071 43.0315C24.3738 42.7162 24.3688 42.39 24.2926 42.0769C24.2163 41.7637 24.0707 41.4715 23.8664 41.2215C23.662 40.9715 23.4041 40.77 23.1115 40.6319C22.8188 40.4937 22.4988 40.4223 22.1749 40.4229C21.8717 40.4245 21.572 40.4871 21.2936 40.6067C20.7649 40.8397 20.3507 41.2719 20.1422 41.8085C20.0308 42.0702 19.9734 42.3514 19.9734 42.6356C19.9734 42.9198 20.0308 43.2011 20.1422 43.4627C20.2571 43.7247 20.423 43.9614 20.6304 44.1591C20.8378 44.3569 21.0825 44.5119 21.3505 44.615C20.0012 45.2944 18.6129 45.894 17.1927 46.4107C10.4976 48.8213 4.66251 46.6298 1.96885 40.6915C1.47272 39.604 1.19759 38.4296 1.15926 37.236C1.12094 36.0423 1.32018 34.8529 1.74552 33.736C2.17087 32.6192 2.81393 31.597 3.63776 30.7282C4.46158 29.8594 5.44992 29.1611 6.54595 28.6735C7.41052 28.2848 8.3437 28.0695 9.29204 28.04C10.2404 28.0104 11.1853 28.1673 12.0726 28.5016C12.9599 28.8358 13.7722 29.3409 14.463 29.9878C15.1537 30.6348 15.7094 31.411 16.0982 32.2719C16.4106 32.9505 16.5848 33.6839 16.6109 34.4299C16.637 35.1758 16.5143 35.9195 16.25 36.6181C15.9858 37.3167 15.5851 37.9563 15.0711 38.5001C14.5571 39.044 13.9399 39.4812 13.2552 39.7866C13.0506 39.8764 12.8391 39.9497 12.6227 40.0058L12.4948 40.0411C12.2898 40.0959 12.0806 40.1337 11.8693 40.1542H11.7485C11.5497 40.1684 11.3502 40.1684 11.1515 40.1542H11.0946C10.8866 40.1385 10.6799 40.1078 10.4763 40.0623H10.3981C9.68738 39.5463 9.45284 37.4113 9.49548 36.16V35.4531L6.51041 37.5739L6.69521 37.8567C7.26453 39.1074 8.309 40.0828 9.59985 40.5691C10.8907 41.0554 12.3227 41.013 13.5822 40.4512C14.3542 40.1051 15.05 39.6111 15.6298 38.9972C16.2096 38.3833 16.662 37.6618 16.961 36.8738C17.2601 36.0858 17.4 35.2469 17.3726 34.405C17.3453 33.5632 17.1513 32.735 16.8018 31.9679C15.9375 30.0583 14.3459 28.5685 12.3773 27.8261C10.4087 27.0837 8.22416 27.1495 6.3043 28.009C5.60848 28.3262 4.95052 28.7198 4.34269 29.1825C4.37577 28.825 4.31708 28.465 4.17211 28.1363C3.99972 27.7523 3.71958 27.426 3.36531 27.1965C3.01105 26.967 2.59772 26.8441 2.17496 26.8426C1.87412 26.845 1.57684 26.9075 1.30076 27.0264C1.03746 27.1394 0.799767 27.304 0.601933 27.5105C0.404099 27.717 0.250179 27.9611 0.149376 28.2282C0.0450134 28.4936 -0.00558853 28.7769 0.000484467 29.0619C0.00656128 29.3468 0.0691872 29.6278 0.184769 29.8886C0.300346 30.1494 0.466602 30.3849 0.673977 30.5816C0.881351 30.7783 1.12576 30.9323 1.39315 31.0347ZM23.4258 1.66839C23.5661 1.30635 23.8445 1.01413 24.2005 0.855415C24.3785 0.781906 24.5693 0.744064 24.762 0.744064C24.9547 0.744064 25.1455 0.781906 25.3235 0.855415C25.6874 0.994949 25.9812 1.27192 26.1408 1.62598C26.2147 1.803 26.2527 1.99279 26.2527 2.18446C26.2527 2.37613 26.2147 2.56593 26.1408 2.74294C26.033 3.0162 25.8454 3.25111 25.6022 3.41742C25.359 3.58372 25.0713 3.67382 24.7762 3.67611C24.594 3.67545 24.4133 3.64192 24.2431 3.57713C24.0632 3.50558 23.8992 3.39936 23.7606 3.26457C23.622 3.12979 23.5116 2.9691 23.4356 2.79173C23.3597 2.61436 23.3197 2.42382 23.318 2.23104C23.3163 2.03826 23.353 1.84705 23.4258 1.66839ZM39.3888 35.4743C39.5425 35.83 39.5497 36.2315 39.4088 36.5925C39.2679 36.9534 38.9902 37.2449 38.6354 37.4042C38.4485 37.4819 38.2481 37.5228 38.0455 37.5244C37.8631 37.5258 37.6821 37.4922 37.5125 37.4255C37.3326 37.3567 37.1682 37.2531 37.0289 37.1208C36.8895 36.9884 36.778 36.8299 36.7006 36.6543C36.6233 36.4788 36.5817 36.2897 36.5783 36.0981C36.575 35.9065 36.6098 35.7161 36.6809 35.5379C36.8223 35.1777 37.1012 34.8878 37.4568 34.7315C37.8123 34.5752 38.2156 34.5652 38.5786 34.7037C38.9403 34.8442 39.2316 35.1212 39.3888 35.4743ZM16.1977 53.9961L13.0989 53.2892C13.2145 51.6096 13.9099 50.0212 15.0676 48.7931C14.8828 50.5251 15.7286 52.8792 16.1977 53.9961ZM22.182 44.0495C21.9996 44.0508 21.8186 44.0172 21.649 43.9505C21.4685 43.8834 21.3036 43.7805 21.1643 43.648C21.025 43.5156 20.9142 43.3563 20.8387 43.18C20.7648 43.0029 20.7268 42.8131 20.7268 42.6215C20.7268 42.4298 20.7648 42.24 20.8387 42.063C20.9831 41.7035 21.2635 41.4146 21.6197 41.2586C21.9759 41.1026 22.3794 41.0919 22.7435 41.2288C23.1061 41.3716 23.3974 41.6511 23.5537 42.0064C23.6276 42.1834 23.6657 42.3732 23.6657 42.5649C23.6657 42.7566 23.6276 42.9464 23.5537 43.1234C23.458 43.3464 23.3063 43.5411 23.1131 43.6889L22.6227 43.9576C22.4809 44.0089 22.3326 44.0399 22.182 44.0495ZM9.28937 39.6523L9.2254 39.617C9.07615 39.5321 8.94111 39.4473 8.79897 39.3483L8.735 39.2988C8.58264 39.1858 8.43782 39.063 8.30146 38.9312L8.20195 38.8252C8.08117 38.7064 7.96951 38.5788 7.86791 38.4434L7.81105 38.3728C7.69608 38.2148 7.59161 38.0495 7.49833 37.8779C7.49968 37.8591 7.49968 37.8402 7.49833 37.8213L8.8274 36.8528C8.82653 37.8048 8.98259 38.7505 9.28937 39.6523ZM0.810356 28.4897C0.950638 28.1277 1.2291 27.8355 1.58505 27.6767C1.76302 27.6032 1.95383 27.5654 2.14653 27.5654C2.33923 27.5654 2.53004 27.6032 2.708 27.6767C3.07199 27.8163 3.36578 28.0933 3.52534 28.4473C3.59925 28.6243 3.63729 28.8141 3.63729 29.0058C3.63729 29.1975 3.59925 29.3873 3.52534 29.5643C3.38506 29.9263 3.1066 30.2185 2.75065 30.3773C2.5637 30.455 2.36335 30.4958 2.16074 30.4974C1.97851 30.4968 1.7979 30.4632 1.6277 30.3985C1.44772 30.3269 1.28373 30.2207 1.14515 30.0859C1.00658 29.9511 0.896141 29.7904 0.82019 29.6131C0.74424 29.4357 0.704273 29.2451 0.702583 29.0524C0.700897 28.8596 0.737522 28.6684 0.810356 28.4897Z" fill="#000000"/>
    <path d="M13.0347 20.7416C13.2314 20.7457 13.4249 20.6918 13.5909 20.5865C13.7568 20.4813 13.8876 20.3294 13.9667 20.1503C14.0459 19.9711 14.0698 19.7725 14.0356 19.5798C14.0013 19.3871 13.9104 19.2088 13.7743 19.0674C13.6381 18.9261 13.4629 18.8281 13.2708 18.7858C13.0787 18.7435 12.8782 18.7588 12.6949 18.8298C12.5115 18.9008 12.3534 19.0243 12.2405 19.1846C12.1277 19.345 12.0652 19.535 12.061 19.7307C12.0571 19.9927 12.1571 20.2456 12.3394 20.4348C12.5216 20.624 12.7714 20.7342 13.0347 20.7416Z" fill="#000000"/>
</svg>
