<svg width="60" height="55" viewBox="0 0 60 55" fill="none" xmlns="http://www.w3.org/2000/svg">
    <path d="M58.6068 31.0347C58.2769 31.1621 57.9203 31.2059 57.5692 31.162C58.6113 32.5553 59.2597 34.2006 59.4472 35.9272C59.6346 37.6538 59.3543 39.3988 58.6353 40.9814C56.1477 46.5167 50.8741 48.9839 44.8471 47.7326C45.6944 48.4618 46.3787 49.3593 46.8561 50.3675C47.3335 51.3756 47.5934 52.472 47.6189 53.5861V53.8477L42.5657 55L42.8713 54.3425C43.4967 53.0135 44.8826 49.2808 43.916 47.8882C43.3366 47.4661 42.697 47.1325 42.0184 46.8985C40.311 46.2559 38.6489 45.5001 37.0433 44.6362L36.9011 44.5868C36.7408 44.5168 36.5903 44.4265 36.4534 44.3181C32.0753 41.8933 28.017 38.7969 24.0582 35.7712C24.1167 36.1716 24.0625 36.5802 23.9019 36.9518C23.7568 37.276 23.5338 37.5598 23.2525 37.778C22.9712 37.9963 22.6402 38.1424 22.2887 38.2034C21.9373 38.2644 21.5761 38.2385 21.2371 38.1279C20.8981 38.0173 20.5916 37.8254 20.3447 37.5692C20.0979 37.313 19.9182 37.0003 19.8215 36.6587C19.7247 36.3171 19.714 35.9571 19.7902 35.6104C19.8664 35.2637 20.0272 34.941 20.2583 34.6707C20.4895 34.4004 20.784 34.1908 21.1158 34.0604C21.2842 34.0014 21.458 33.9588 21.6346 33.9332C14.6979 28.6523 7.91754 24.0996 0 24.2551V23.5482H0.398009C4.05117 23.6097 7.64276 24.4943 10.9026 26.1356C33.4825 27.6414 38.5571 15.4113 38.614 15.3053C39.51 13.2744 39.5597 10.9729 38.7524 8.90559C37.945 6.83824 36.3463 5.17372 34.307 4.277C32.6955 3.57132 30.8689 3.52834 29.2257 4.15747C27.5826 4.78659 26.2564 6.03672 25.5366 7.63497C25.2577 8.26244 25.106 8.93847 25.0901 9.62433C25.0742 10.3102 25.1945 10.9925 25.444 11.632C25.6936 12.2716 26.0675 12.8559 26.5443 13.3516C27.0212 13.8473 27.5917 14.2445 28.2231 14.5206C29.0656 14.8979 30.0113 14.9818 30.9076 14.7586C31.8039 14.5354 32.5984 14.0182 33.1627 13.2905C32.9289 13.2343 32.7234 13.0958 32.5844 12.9006C32.4454 12.7053 32.3821 12.4666 32.4064 12.2286C32.4307 11.9905 32.5408 11.7693 32.7165 11.6058C32.8921 11.4423 33.1213 11.3477 33.3617 11.3393C33.6244 11.3336 33.8787 11.4315 34.0691 11.6117C34.2595 11.7918 34.3706 12.0395 34.378 12.3008C34.3801 12.4466 34.351 12.5911 34.2928 12.7249C34.0388 13.306 33.6711 13.8308 33.2111 14.269C32.751 14.7072 32.2079 15.0498 31.6133 15.277C30.4164 15.7374 29.0847 15.7069 27.9104 15.1922C26.47 14.5546 25.3421 13.3755 24.7734 11.9129C24.2047 10.4503 24.2414 8.82326 24.8756 7.38754C25.4531 6.08543 26.3989 4.97849 27.5978 4.20153C28.7966 3.42457 30.1967 3.01114 31.6275 3.01158C32.1853 3.01422 32.741 3.08064 33.2835 3.20952C33.2414 3.13388 33.2034 3.056 33.1698 2.97623C33.0619 2.71004 33.0084 2.42516 33.0123 2.13818C33.0163 1.85121 33.0776 1.56788 33.1927 1.3047C33.3078 1.04152 33.4743 0.803757 33.6827 0.605251C33.8911 0.406746 34.1371 0.251472 34.4065 0.148472C34.6603 0.0503311 34.9302 -1.52588e-05 35.2025 1.14441e-05C35.5037 -0.00082016 35.8016 0.0618248 36.0767 0.183815C36.4718 0.355812 36.8066 0.640781 37.0385 1.00251C37.2704 1.36423 37.3889 1.78637 37.379 2.21527C37.3691 2.64417 37.2312 3.06044 36.9829 3.4112C36.7345 3.76195 36.3869 4.03133 35.9843 4.1851C35.9179 4.21137 35.8488 4.23033 35.7782 4.24165C37.6233 5.40059 38.9895 7.17928 39.6285 9.25474C40.2675 11.3302 40.137 13.5648 39.2608 15.5527C39.211 15.687 37.9459 18.84 33.7668 21.8233C30.1279 24.4248 23.511 27.3303 12.4449 26.8991C16.5103 29.0694 20.4264 32.0598 24.4633 35.135C28.0438 37.989 31.7937 40.6259 35.6929 43.0315C35.6262 42.7162 35.6312 42.39 35.7074 42.0769C35.7837 41.7637 35.9293 41.4715 36.1336 41.2215C36.338 40.9715 36.5959 40.77 36.8885 40.6319C37.1812 40.4937 37.5012 40.4223 37.8251 40.4229C38.1283 40.4245 38.428 40.4871 38.7064 40.6067C39.2351 40.8397 39.6493 41.2719 39.8578 41.8085C39.9692 42.0702 40.0266 42.3514 40.0266 42.6356C40.0266 42.9198 39.9692 43.2011 39.8578 43.4627C39.7429 43.7247 39.577 43.9614 39.3696 44.1591C39.1622 44.3569 38.9175 44.5119 38.6495 44.615C39.9988 45.2944 41.3871 45.894 42.8073 46.4107C49.5024 48.8213 55.3375 46.6298 58.0312 40.6915C58.5273 39.604 58.8024 38.4296 58.8407 37.236C58.8791 36.0423 58.6798 34.8529 58.2545 33.736C57.8291 32.6192 57.1861 31.597 56.3622 30.7282C55.5384 29.8594 54.5501 29.1611 53.454 28.6735C52.5895 28.2848 51.6563 28.0695 50.708 28.04C49.7596 28.0104 48.8147 28.1673 47.9274 28.5016C47.0401 28.8358 46.2278 29.3409 45.537 29.9878C44.8463 30.6348 44.2906 31.411 43.9018 32.2719C43.5894 32.9505 43.4152 33.6839 43.3891 34.4299C43.363 35.1758 43.4857 35.9195 43.75 36.6181C44.0142 37.3167 44.4149 37.9563 44.9289 38.5001C45.4429 39.044 46.0601 39.4812 46.7448 39.7866C46.9494 39.8764 47.1609 39.9497 47.3773 40.0058L47.5052 40.0411C47.7102 40.0959 47.9194 40.1337 48.1307 40.1542H48.2515C48.4503 40.1684 48.6498 40.1684 48.8485 40.1542H48.9054C49.1134 40.1385 49.3201 40.1078 49.5237 40.0623H49.6019C50.3126 39.5463 50.5472 37.4113 50.5045 36.16V35.4531L53.4896 37.5739L53.3048 37.8567C52.7355 39.1074 51.691 40.0828 50.4002 40.5691C49.1093 41.0554 47.6773 41.013 46.4178 40.4512C45.6458 40.1051 44.95 39.6111 44.3702 38.9972C43.7904 38.3833 43.338 37.6618 43.039 36.8738C42.7399 36.0858 42.6 35.2469 42.6274 34.405C42.6547 33.5632 42.8487 32.735 43.1982 31.9679C44.0625 30.0583 45.6541 28.5685 47.6227 27.8261C49.5913 27.0837 51.7758 27.1495 53.6957 28.009C54.3915 28.3262 55.0495 28.7198 55.6573 29.1825C55.6242 28.825 55.6829 28.465 55.8279 28.1363C56.0003 27.7523 56.2804 27.426 56.6347 27.1965C56.989 26.967 57.4023 26.8441 57.825 26.8426C58.1259 26.845 58.4232 26.9075 58.6992 27.0264C58.9625 27.1394 59.2002 27.304 59.3981 27.5105C59.5959 27.717 59.7498 27.9611 59.8506 28.2282C59.955 28.4936 60.0056 28.7769 59.9995 29.0619C59.9934 29.3468 59.9308 29.6278 59.8152 29.8886C59.6997 30.1494 59.5334 30.3849 59.326 30.5816C59.1186 30.7783 58.8742 30.9323 58.6068 31.0347ZM36.5742 1.66839C36.4339 1.30635 36.1555 1.01413 35.7995 0.855415C35.6215 0.781906 35.4307 0.744064 35.238 0.744064C35.0453 0.744064 34.8545 0.781906 34.6765 0.855415C34.3126 0.994949 34.0188 1.27192 33.8592 1.62598C33.7853 1.803 33.7473 1.99279 33.7473 2.18446C33.7473 2.37613 33.7853 2.56593 33.8592 2.74294C33.967 3.0162 34.1546 3.25111 34.3978 3.41742C34.641 3.58372 34.9287 3.67382 35.2238 3.67611C35.406 3.67545 35.5867 3.64192 35.7569 3.57713C35.9368 3.50558 36.1008 3.39936 36.2394 3.26457C36.378 3.12979 36.4884 2.9691 36.5644 2.79173C36.6403 2.61436 36.6803 2.42382 36.682 2.23104C36.6837 2.03826 36.647 1.84705 36.5742 1.66839ZM20.6112 35.4743C20.4575 35.83 20.4503 36.2315 20.5912 36.5925C20.7321 36.9534 21.0098 37.2449 21.3646 37.4042C21.5515 37.4819 21.7519 37.5228 21.9545 37.5244C22.1369 37.5258 22.3179 37.4922 22.4875 37.4255C22.6674 37.3567 22.8318 37.2531 22.9711 37.1208C23.1105 36.9884 23.222 36.8299 23.2994 36.6543C23.3767 36.4788 23.4183 36.2897 23.4217 36.0981C23.425 35.9065 23.3902 35.7161 23.3191 35.5379C23.1777 35.1777 22.8988 34.8878 22.5432 34.7315C22.1877 34.5752 21.7844 34.5652 21.4214 34.7037C21.0597 34.8442 20.7684 35.1212 20.6112 35.4743ZM43.8023 53.9961L46.9011 53.2892C46.7855 51.6096 46.0901 50.0212 44.9324 48.7931C45.1172 50.5251 44.2714 52.8792 43.8023 53.9961ZM37.818 44.0495C38.0004 44.0508 38.1814 44.0172 38.351 43.9505C38.5315 43.8834 38.6964 43.7805 38.8357 43.648C38.975 43.5156 39.0858 43.3563 39.1613 43.18C39.2352 43.0029 39.2732 42.8131 39.2732 42.6215C39.2732 42.4298 39.2352 42.24 39.1613 42.063C39.0169 41.7035 38.7365 41.4146 38.3803 41.2586C38.0241 41.1026 37.6206 41.0919 37.2565 41.2288C36.8939 41.3716 36.6026 41.6511 36.4463 42.0064C36.3724 42.1834 36.3343 42.3732 36.3343 42.5649C36.3343 42.7566 36.3724 42.9464 36.4463 43.1234C36.542 43.3464 36.6937 43.5411 36.8869 43.6889L37.3773 43.9576C37.5191 44.0089 37.6674 44.0399 37.818 44.0495ZM50.7106 39.6523L50.7746 39.617C50.9239 39.5321 51.0589 39.4473 51.201 39.3483L51.265 39.2988C51.4174 39.1858 51.5622 39.063 51.6985 38.9312L51.798 38.8252C51.9188 38.7064 52.0305 38.5788 52.1321 38.4434L52.1889 38.3728C52.3039 38.2148 52.4084 38.0495 52.5017 37.8779C52.5003 37.8591 52.5003 37.8402 52.5017 37.8213L51.1726 36.8528C51.1735 37.8048 51.0174 38.7505 50.7106 39.6523ZM59.1896 28.4897C59.0494 28.1277 58.7709 27.8355 58.415 27.6767C58.237 27.6032 58.0462 27.5654 57.8535 27.5654C57.6608 27.5654 57.47 27.6032 57.292 27.6767C56.928 27.8163 56.6342 28.0933 56.4747 28.4473C56.4008 28.6243 56.3627 28.8141 56.3627 29.0058C56.3627 29.1975 56.4008 29.3873 56.4747 29.5643C56.6149 29.9263 56.8934 30.2185 57.2494 30.3773C57.4363 30.455 57.6367 30.4958 57.8393 30.4974C58.0215 30.4968 58.2021 30.4632 58.3723 30.3985C58.5523 30.3269 58.7163 30.2207 58.8548 30.0859C58.9934 29.9511 59.1039 29.7904 59.1798 29.6131C59.2558 29.4357 59.2957 29.2451 59.2974 29.0524C59.2991 28.8596 59.2625 28.6684 59.1896 28.4897Z" fill="#000000"/>
    <path d="M46.9654 20.7416C46.7686 20.7457 46.5751 20.6918 46.4092 20.5865C46.2433 20.4813 46.1124 20.3294 46.0333 20.1503C45.9541 19.9711 45.9302 19.7725 45.9644 19.5798C45.9987 19.3871 46.0896 19.2088 46.2257 19.0674C46.3619 18.9261 46.5371 18.8281 46.7292 18.7858C46.9214 18.7435 47.1218 18.7588 47.3052 18.8298C47.4885 18.9008 47.6466 19.0243 47.7595 19.1846C47.8723 19.345 47.9348 19.535 47.9391 19.7307C47.9429 19.9927 47.8429 20.2456 47.6607 20.4348C47.4784 20.624 47.2287 20.7342 46.9654 20.7416Z" fill="#000000"/>
</svg>
